<?xml version="1.0" encoding="utf-8"?>
<!-- Generator: Adobe Illustrator 16.0.0, SVG Export Plug-In . SVG Version: 6.00 Build 0)  -->
<!DOCTYPE svg PUBLIC "-//W3C//DTD SVG 1.1//EN" "http://www.w3.org/Graphics/SVG/1.1/DTD/svg11.dtd">
<svg version="1.1" xmlns="http://www.w3.org/2000/svg" xmlns:xlink="http://www.w3.org/1999/xlink" x="0px" y="0px" width="120px"
	 height="1308.001px" viewBox="0 0 120 1308.001" enable-background="new 0 0 120 1308.001" xml:space="preserve">
<g id="Background" display="none">
	<rect display="inline" fill="#EFA14D" width="120" height="1308.001"/>
</g>
<g id="Icons">
	<g>
		<rect x="12" y="523.665" fill="#0066CC" width="6" height="16.335"/>
		<rect x="21" y="516" fill="#0066CC" width="6" height="24"/>
		<rect x="30" y="528" fill="#0066CC" width="6" height="12"/>
	</g>
	<g>
		<rect x="12" y="660" fill="#0066CC" width="16.335" height="6"/>
		<rect x="12" y="669" fill="#0066CC" width="24" height="6"/>
		<rect x="12" y="678" fill="#0066CC" width="12" height="6"/>
	</g>
	<path fill="#0066CC" d="M24,624c-6.627,0-12,5.373-12,12s5.373,12,12,12s12-5.373,12-12S30.627,624,24,624z M24,636v-9.499
		c5.799,0,9.5,3.7,9.5,9.499H24z"/>
	<g>
		<polygon fill="#0066CC" points="33.419,601.396 28.925,607.927 19.709,599.556 12,607.466 12,612 36,612 36,603.199 		"/>
		<polygon fill="#0066CC" points="19.624,596.777 28.575,604.906 32.914,598.604 36,600.76 36,594.499 32,590.625 28,595.5 
			20.375,588 12,595.75 12,604.601 		"/>
	</g>
	<g>
		<polygon fill="none" points="25.581,571.452 30.939,565.253 21.184,556.283 12,564.382 12,568.632 19.916,563.61 		"/>
		<polygon fill="#0066CC" points="30.939,565.253 32.248,563.739 21.212,553.592 12,561.715 12,564.382 21.184,556.283 		"/>
		<polygon fill="#0066CC" points="33.721,565.093 32.412,566.606 36,569.905 36,567.188 		"/>
		<polygon fill="#0066CC" points="25.44,574.673 32.412,566.606 30.939,565.253 25.581,571.452 19.916,563.61 12,568.632 12,571 
			19.397,566.307 		"/>
		<polygon fill="#0066CC" points="33.721,565.093 36,562.456 36,559.398 32.248,563.739 		"/>
		<polygon fill="#0066CC" points="30.939,565.253 32.412,566.606 33.721,565.093 32.248,563.739 		"/>
	</g>
	<g>
		<polygon fill="#FFFFFF" points="24.002,13.598 12,23.471 13.518,25.294 24.002,16.669 34.482,25.291 36,23.468 		"/>
		<path fill="#FFFFFF" d="M24.004,17.896l-8.749,7.224v4.246v1.578v0.982v1.915v0.563h0.563h3.351h0.51h1.715v-4.681v-0.007v-1.641
			c0-0.621,0-1.178,0-1.884c0.619,0,1.104,0,1.692,0h3.538v8.211h2.214v0.001h3.913v-0.563v-1.915v-0.981v-0.922v-4.876
			L24.004,17.896z"/>
	</g>
	<path fill="#FFFFFF" d="M34.999,86.316v-0.225H13v0.225v1.7v15.969v1.76v0.165h21.999v-0.165H35v-5.817v-1.833v-4.082v-1.833
		L34.999,86.316L34.999,86.316z M20.095,88.016v4.164h-5.17v-4.164H20.095z M14.925,94.012h5.17v4.082h-5.17V94.012z M14.925,99.927
		h5.17v4.058h-5.17V99.927z M33.075,103.984H21.928v-4.058h11.147V103.984z M33.075,98.094H21.928v-4.082h11.147V98.094z
		 M21.928,92.179v-4.164h11.147v4.164H21.928z"/>
	<g>
		<path fill="#FFFFFF" d="M30.188,49H17.813l-4.125,11v11h20.625V60L30.188,49z M26.063,66.875h-4.125V65.5h4.125V66.875z
			 M31.563,64.125h-1.375V62.75h1.375V64.125z M27.339,60c-0.306,1.184-1.371,2.063-2.651,2.063h-1.375
			c-1.28,0-2.345-0.879-2.653-2.063H15.75l3.438-9.625h9.625L32.25,60H27.339z"/>
		<polygon fill="#FFFFFF" points="28.125,51.293 19.877,51.293 19.438,52.788 28.562,52.788 		"/>
		<polygon fill="#FFFFFF" points="18.664,55.433 29.337,55.433 28.932,54.052 19.068,54.052 		"/>
		<path fill="#FFFFFF" d="M18.294,56.697l-0.481,1.643h2.854h1.271v0.645c0,0.27,0.081,0.518,0.214,0.731
			c0.245,0.386,0.671,0.645,1.161,0.645h1.375c0.49,0,0.916-0.259,1.159-0.645c0.134-0.214,0.215-0.462,0.215-0.731v-0.645h1.271
			h2.854l0,0l-0.002-0.004l-0.48-1.638H18.294z"/>
	</g>
	<path fill="#FFFFFF" d="M24,120.5c-6.351,0-11.5,5.149-11.5,11.5s5.149,11.5,11.5,11.5s11.5-5.149,11.5-11.5S30.351,120.5,24,120.5
		z M24,132v-9.062c5.557,0,9.062,3.505,9.062,9.062H24z"/>
	<g>
		<rect x="29" y="173" fill="#FFFFFF" width="5" height="5"/>
		<rect x="21.5" y="173" fill="#FFFFFF" width="5" height="5"/>
		<rect x="14" y="173" fill="#FFFFFF" width="5" height="5"/>
		<rect x="14" y="158" fill="#FFFFFF" width="5" height="5"/>
		<rect x="21.5" y="158" fill="#FFFFFF" width="5" height="5"/>
		<rect x="29" y="158" fill="#FFFFFF" width="5" height="5"/>
		<rect x="21.5" y="165.5" fill="#FFFFFF" width="5" height="5"/>
		<rect x="14" y="165.5" fill="#FFFFFF" width="5" height="5"/>
		<rect x="29" y="165.5" fill="#FFFFFF" width="5" height="5"/>
	</g>
	<g>
		<rect x="65" y="173" fill="#232831" width="5" height="5"/>
		<rect x="57.5" y="173" fill="#232831" width="5" height="5"/>
		<rect x="50" y="173" fill="#232831" width="5" height="5"/>
		<rect x="50" y="158" fill="#232831" width="5" height="5"/>
		<rect x="57.5" y="158" fill="#232831" width="5" height="5"/>
		<rect x="65" y="158" fill="#232831" width="5" height="5"/>
		<rect x="57.5" y="165.5" fill="#232831" width="5" height="5"/>
		<rect x="50" y="165.5" fill="#232831" width="5" height="5"/>
		<rect x="65" y="165.5" fill="#232831" width="5" height="5"/>
	</g>
	<g>
		<rect x="101" y="173" fill="#999999" width="5" height="5"/>
		<rect x="93.5" y="173" fill="#999999" width="5" height="5"/>
		<rect x="86" y="173" fill="#999999" width="5" height="5"/>
		<rect x="86" y="158" fill="#999999" width="5" height="5"/>
		<rect x="93.5" y="158" fill="#999999" width="5" height="5"/>
		<rect x="101" y="158" fill="#999999" width="5" height="5"/>
		<rect x="93.5" y="165.5" fill="#999999" width="5" height="5"/>
		<rect x="86" y="165.5" fill="#999999" width="5" height="5"/>
		<rect x="101" y="165.5" fill="#999999" width="5" height="5"/>
	</g>
	<g>
		<path fill="#FFFFFF" d="M33.6,210.4H14.4c-0.442,0-0.8,0.358-0.8,0.8c0,0.441,0.357,0.8,0.8,0.8H20l-1.6,4h2.4l1.6-4h3.2l1.6,4
			h2.4l-1.6-4h5.6c0.441,0,0.8-0.358,0.8-0.8C34.4,210.758,34.042,210.4,33.6,210.4z"/>
		<path fill="#FFFFFF" d="M32.4,194.291H15.6c-0.883,0-1.6,0.716-1.6,1.6v12c0,0.883,0.717,1.6,1.6,1.6h16.8
			c0.883,0,1.6-0.717,1.6-1.6v-12C34,195.007,33.283,194.291,32.4,194.291z M31.705,202.523l-1.605-1.606l-4.27,4.271l-1.103,1.159
			l-3.597-3.596l-4.397,4.396l-1.132-1.13l5.539-5.539l1.121,1.143l2.437,2.437l4.271-4.271l-1.763-1.763l5.078-0.579
			L31.705,202.523z"/>
		<polygon fill="#FFFFFF" points="24.8,192 23.2,192 21.6,192 21.6,193.6 26.4,193.6 26.4,192 		"/>
	</g>
	<path fill="#FFFFFF" d="M33.967,237.7h-1.859c-0.185-0.656-0.447-1.278-0.776-1.858l1.34-1.34c0.602-0.602,0.602-1.578,0-2.179
		l-1.09-1.09c-0.602-0.602-1.578-0.602-2.18,0l-1.364,1.363c-0.544-0.297-1.128-0.53-1.738-0.703v-1.859
		c0-0.846-0.688-1.533-1.533-1.533h-1.533c-0.846,0-1.533,0.687-1.533,1.533v1.859c-0.633,0.179-1.236,0.426-1.799,0.74l-1.399-1.4
		c-0.602-0.602-1.579-0.602-2.181,0l-1.089,1.09c-0.603,0.602-0.603,1.578,0,2.179l1.399,1.399
		c-0.314,0.564-0.561,1.166-0.739,1.799h-1.859c-0.846,0-1.533,0.686-1.533,1.533v1.533c0,0.846,0.687,1.533,1.533,1.533h1.859
		c0.172,0.61,0.406,1.194,0.703,1.738l-1.363,1.364c-0.603,0.602-0.603,1.578,0,2.18l1.089,1.09c0.602,0.602,1.579,0.602,2.181,0
		l1.34-1.34c0.58,0.331,1.202,0.591,1.858,0.776v1.859c0,0.846,0.687,1.533,1.533,1.533h1.533c0.846,0,1.533-0.688,1.533-1.533
		v-1.859c0.633-0.18,1.235-0.426,1.798-0.74l1.303,1.304c0.602,0.601,1.579,0.601,2.181,0l1.09-1.09
		c0.602-0.602,0.602-1.579,0-2.181l-1.304-1.303c0.314-0.563,0.561-1.166,0.74-1.798h1.859c0.846,0,1.533-0.688,1.533-1.533v-1.533
		C35.5,238.386,34.813,237.7,33.967,237.7z M24,244.6c-2.54,0-4.6-2.06-4.6-4.6c0-2.541,2.06-4.6,4.6-4.6c2.54,0,4.6,2.059,4.6,4.6
		C28.6,242.54,26.54,244.6,24,244.6z"/>
	<g>
		<polygon fill="#232831" points="60.002,13.598 48,23.471 49.518,25.294 60.002,16.669 70.482,25.291 72,23.468 		"/>
		<path fill="#232831" d="M60.004,17.896l-8.749,7.224v4.246v1.578v0.982v1.915v0.563h0.563h3.351h0.51h1.715v-4.681v-0.007v-1.641
			c0-0.621,0-1.178,0-1.884c0.619,0,1.104,0,1.692,0h3.538v8.211h2.214v0.001h3.913v-0.563v-1.915v-0.981v-0.922v-4.876
			L60.004,17.896z"/>
	</g>
	<g>
		<polygon fill="#999999" points="96.002,13.598 84,23.471 85.518,25.294 96.002,16.669 106.482,25.291 108,23.468 		"/>
		<path fill="#999999" d="M96.004,17.896l-8.749,7.224v4.246v1.578v0.982v1.915v0.563h0.563h3.351h0.51h1.715v-4.681v-0.007v-1.641
			c0-0.621,0-1.178,0-1.884c0.619,0,1.104,0,1.692,0h3.538v8.211h2.214v0.001h3.913v-0.563v-1.915v-0.981v-0.922v-4.876
			L96.004,17.896z"/>
	</g>
	<path fill="#232831" d="M70.999,86.316v-0.225H49v0.225v1.7v15.969v1.76v0.165h21.999v-0.165H71v-5.817v-1.833v-4.082v-1.833
		L70.999,86.316L70.999,86.316z M56.095,88.016v4.164h-5.17v-4.164H56.095z M50.925,94.012h5.17v4.082h-5.17V94.012z M50.925,99.927
		h5.17v4.058h-5.17V99.927z M69.075,103.984H57.928v-4.058h11.147V103.984z M69.075,98.094H57.928v-4.082h11.147V98.094z
		 M57.928,92.179v-4.164h11.147v4.164H57.928z"/>
	<path fill="#999999" d="M106.999,86.316v-0.225H85v0.225v1.7v15.969v1.76v0.165h21.999v-0.165H107v-5.817v-1.833v-4.082v-1.833
		L106.999,86.316L106.999,86.316z M92.096,88.016v4.164h-5.171v-4.164H92.096z M86.925,94.012h5.171v4.082h-5.171V94.012z
		 M86.925,99.927h5.171v4.058h-5.171V99.927z M105.075,103.984H93.928v-4.058h11.147V103.984z M105.075,98.094H93.928v-4.082h11.147
		V98.094z M93.928,92.179v-4.164h11.147v4.164H93.928z"/>
	<g>
		<path fill="#232831" d="M66.188,49H53.813l-4.125,11v11h20.625V60L66.188,49z M62.063,66.875h-4.125V65.5h4.125V66.875z
			 M67.563,64.125h-1.375V62.75h1.375V64.125z M63.339,60c-0.307,1.184-1.371,2.063-2.651,2.063h-1.375
			c-1.28,0-2.345-0.879-2.653-2.063H51.75l3.438-9.625h9.625L68.25,60H63.339z"/>
		<polygon fill="#232831" points="64.125,51.293 55.877,51.293 55.438,52.788 64.562,52.788 		"/>
		<polygon fill="#232831" points="54.664,55.433 65.337,55.433 64.932,54.052 55.068,54.052 		"/>
		<path fill="#232831" d="M54.294,56.697l-0.481,1.643h2.854h1.271v0.645c0,0.27,0.081,0.518,0.214,0.731
			c0.245,0.386,0.671,0.645,1.161,0.645h1.375c0.489,0,0.915-0.259,1.159-0.645c0.134-0.214,0.215-0.462,0.215-0.731v-0.645h1.271
			h2.854l0,0l-0.002-0.004l-0.479-1.638H54.294z"/>
	</g>
	<g>
		<path fill="#999999" d="M102.188,49H89.813l-4.125,11v11h20.625V60L102.188,49z M98.063,66.875h-4.125V65.5h4.125V66.875z
			 M103.563,64.125h-1.375V62.75h1.375V64.125z M99.339,60c-0.307,1.184-1.371,2.063-2.651,2.063h-1.375
			c-1.28,0-2.346-0.879-2.653-2.063H87.75l3.438-9.625h9.625L104.25,60H99.339z"/>
		<polygon fill="#999999" points="100.125,51.293 91.877,51.293 91.438,52.788 100.562,52.788 		"/>
		<polygon fill="#999999" points="90.664,55.433 101.337,55.433 100.932,54.052 91.068,54.052 		"/>
		<path fill="#999999" d="M90.295,56.697l-0.481,1.643h2.854h1.271v0.645c0,0.27,0.081,0.518,0.214,0.731
			c0.244,0.386,0.672,0.645,1.161,0.645h1.375c0.489,0,0.915-0.259,1.159-0.645c0.134-0.214,0.215-0.462,0.215-0.731v-0.645h1.271
			h2.854l0,0l-0.002-0.004l-0.479-1.638H90.295z"/>
	</g>
	<path fill="#232831" d="M60,120.5c-6.351,0-11.5,5.149-11.5,11.5s5.149,11.5,11.5,11.5c6.352,0,11.5-5.149,11.5-11.5
		S66.352,120.5,60,120.5z M60,132v-9.062c5.557,0,9.062,3.505,9.062,9.062H60z"/>
	<path fill="#999999" d="M96,120.5c-6.352,0-11.5,5.149-11.5,11.5s5.148,11.5,11.5,11.5s11.5-5.149,11.5-11.5
		S102.352,120.5,96,120.5z M96,132v-9.062c5.557,0,9.062,3.505,9.062,9.062H96z"/>
	<g>
		<path fill="#232831" d="M69.6,210.4H50.4c-0.442,0-0.8,0.358-0.8,0.8c0,0.441,0.357,0.8,0.8,0.8H56l-1.6,4h2.4l1.6-4h3.2l1.601,4
			H65.6l-1.6-4h5.6c0.441,0,0.8-0.358,0.8-0.8C70.399,210.758,70.041,210.4,69.6,210.4z"/>
		<path fill="#232831" d="M68.399,194.291H51.6c-0.883,0-1.6,0.716-1.6,1.6v12c0,0.883,0.717,1.6,1.6,1.6h16.799
			c0.883,0,1.601-0.717,1.601-1.6v-12C70,195.007,69.282,194.291,68.399,194.291z M67.705,202.523l-1.606-1.606l-4.27,4.271
			l-1.103,1.159l-3.597-3.596l-4.397,4.396l-1.132-1.13l5.539-5.539l1.121,1.143l2.437,2.437l4.272-4.271l-1.763-1.763l5.077-0.579
			L67.705,202.523z"/>
		<polygon fill="#232831" points="60.8,192 59.2,192 57.6,192 57.6,193.6 62.399,193.6 62.399,192 		"/>
	</g>
	<g>
		<path fill="#999999" d="M105.6,210.4H86.4c-0.443,0-0.801,0.358-0.801,0.8c0,0.441,0.357,0.8,0.801,0.8H92l-1.6,4h2.4l1.6-4H97.6
			l1.602,4h2.398l-1.6-4h5.6c0.441,0,0.801-0.358,0.801-0.8C106.4,210.758,106.041,210.4,105.6,210.4z"/>
		<path fill="#999999" d="M104.4,194.291H87.6c-0.883,0-1.6,0.716-1.6,1.6v12c0,0.883,0.717,1.6,1.6,1.6H104.4
			c0.883,0,1.6-0.717,1.6-1.6v-12C106,195.007,105.283,194.291,104.4,194.291z M103.705,202.523l-1.605-1.606l-4.27,4.271
			l-1.104,1.159l-3.598-3.596l-4.396,4.396l-1.133-1.13l5.539-5.539l1.121,1.143l2.436,2.437l4.273-4.271l-1.764-1.763l5.078-0.579
			L103.705,202.523z"/>
		<polygon fill="#999999" points="96.801,192 95.201,192 93.6,192 93.6,193.6 98.4,193.6 98.4,192 		"/>
	</g>
	<path fill="#232831" d="M69.967,237.7h-1.859c-0.185-0.656-0.447-1.278-0.776-1.858l1.341-1.34c0.602-0.602,0.602-1.578,0-2.179
		l-1.091-1.09c-0.602-0.602-1.578-0.602-2.179,0l-1.364,1.363c-0.544-0.297-1.128-0.53-1.738-0.703v-1.859
		c0-0.846-0.688-1.533-1.533-1.533h-1.533c-0.846,0-1.533,0.687-1.533,1.533v1.859c-0.633,0.179-1.236,0.426-1.799,0.74l-1.399-1.4
		c-0.602-0.602-1.579-0.602-2.181,0l-1.089,1.09c-0.603,0.602-0.603,1.578,0,2.179l1.399,1.399
		c-0.314,0.564-0.561,1.166-0.739,1.799h-1.859c-0.846,0-1.533,0.686-1.533,1.533v1.533c0,0.846,0.687,1.533,1.533,1.533h1.859
		c0.172,0.61,0.406,1.194,0.703,1.738l-1.363,1.364c-0.603,0.602-0.603,1.578,0,2.18l1.089,1.09c0.602,0.602,1.579,0.602,2.181,0
		l1.34-1.34c0.58,0.331,1.202,0.591,1.858,0.776v1.859c0,0.846,0.687,1.533,1.533,1.533h1.533c0.846,0,1.533-0.688,1.533-1.533
		v-1.859c0.633-0.18,1.235-0.426,1.798-0.74l1.304,1.304c0.602,0.601,1.578,0.601,2.18,0l1.091-1.09
		c0.602-0.602,0.602-1.579,0-2.181l-1.305-1.303c0.314-0.563,0.561-1.166,0.74-1.798h1.859c0.846,0,1.533-0.688,1.533-1.533v-1.533
		C71.5,238.386,70.813,237.7,69.967,237.7z M60,244.6c-2.54,0-4.6-2.06-4.6-4.6c0-2.541,2.06-4.6,4.6-4.6s4.6,2.059,4.6,4.6
		C64.6,242.54,62.54,244.6,60,244.6z"/>
	<path fill="#999999" d="M105.967,237.7h-1.859c-0.185-0.656-0.447-1.278-0.776-1.858l1.341-1.34c0.602-0.602,0.602-1.578,0-2.179
		l-1.091-1.09c-0.602-0.602-1.578-0.602-2.179,0l-1.364,1.363c-0.544-0.297-1.128-0.53-1.738-0.703v-1.859
		c0-0.846-0.688-1.533-1.533-1.533h-1.533c-0.847,0-1.533,0.687-1.533,1.533v1.859c-0.633,0.179-1.235,0.426-1.799,0.74l-1.399-1.4
		c-0.602-0.602-1.578-0.602-2.18,0l-1.09,1.09c-0.604,0.602-0.604,1.578,0,2.179l1.399,1.399c-0.313,0.564-0.561,1.166-0.739,1.799
		h-1.859c-0.846,0-1.533,0.686-1.533,1.533v1.533c0,0.846,0.688,1.533,1.533,1.533h1.859c0.172,0.61,0.406,1.194,0.703,1.738
		l-1.363,1.364c-0.604,0.602-0.604,1.578,0,2.18l1.09,1.09c0.602,0.602,1.578,0.602,2.18,0l1.34-1.34
		c0.58,0.331,1.203,0.591,1.858,0.776v1.859c0,0.846,0.687,1.533,1.533,1.533h1.533c0.846,0,1.533-0.688,1.533-1.533v-1.859
		c0.633-0.18,1.235-0.426,1.798-0.74l1.304,1.304c0.602,0.601,1.578,0.601,2.18,0l1.091-1.09c0.602-0.602,0.602-1.579,0-2.181
		l-1.305-1.303c0.314-0.563,0.561-1.166,0.74-1.798h1.859c0.846,0,1.533-0.688,1.533-1.533v-1.533
		C107.5,238.386,106.813,237.7,105.967,237.7z M96,244.6c-2.54,0-4.6-2.06-4.6-4.6c0-2.541,2.06-4.6,4.6-4.6s4.6,2.059,4.6,4.6
		C100.6,242.54,98.54,244.6,96,244.6z"/>
	<g>
		<polygon fill="#0066CC" points="20.129,285.313 14.036,285.971 14.692,279.875 		"/>
		<path fill="#0066CC" d="M31.838,273.58l1.803-1.804c0.432-0.43,0.429-1.125,0.001-1.554l-3.873-3.871
			c-0.43-0.43-1.125-0.431-1.555-0.001l-1.801,1.805L31.838,273.58z"/>
		<polygon fill="#0066CC" points="30.296,273.591 21.295,282.593 20.13,281.428 29.132,272.427 27.578,270.873 18.575,279.875 
			17.411,278.709 26.413,269.708 25.636,268.931 15.469,279.097 20.907,284.535 31.073,274.368 		"/>
	</g>
	<g>
		<polygon fill="#0066FF" points="56.129,285.313 50.036,285.971 50.692,279.875 		"/>
		<path fill="#0066FF" d="M67.838,273.58l1.803-1.804c0.433-0.43,0.43-1.125,0.002-1.554l-3.873-3.871
			c-0.43-0.43-1.124-0.431-1.555-0.001l-1.801,1.805L67.838,273.58z"/>
		<polygon fill="#0066FF" points="66.297,273.591 57.295,282.593 56.13,281.428 65.132,272.427 63.578,270.873 54.575,279.875 
			53.411,278.709 62.412,269.708 61.636,268.931 51.469,279.097 56.907,284.535 67.073,274.368 		"/>
	</g>
	<g>
		<polygon fill="#FFFFFF" points="20.129,321.313 14.036,321.971 14.692,315.875 		"/>
		<path fill="#FFFFFF" d="M31.838,309.58l1.803-1.804c0.432-0.43,0.429-1.125,0.001-1.554l-3.873-3.871
			c-0.43-0.43-1.125-0.431-1.555-0.001l-1.801,1.805L31.838,309.58z"/>
		<polygon fill="#FFFFFF" points="30.296,309.591 21.295,318.593 20.13,317.428 29.132,308.427 27.578,306.873 18.575,315.875 
			17.411,314.709 26.413,305.708 25.636,304.931 15.469,315.097 20.907,320.535 31.073,310.368 		"/>
	</g>
	<g>
		<polygon fill="#999999" points="92.129,285.313 86.036,285.972 86.692,279.876 		"/>
		<path fill="#999999" d="M103.838,273.58l1.803-1.803c0.432-0.43,0.429-1.125,0.002-1.554l-3.873-3.871
			c-0.43-0.43-1.125-0.431-1.555-0.001l-1.801,1.805L103.838,273.58z"/>
		<polygon fill="#999999" points="102.296,273.591 93.295,282.593 92.13,281.428 101.132,272.427 99.577,270.873 90.576,279.875 
			89.41,278.71 98.412,269.708 97.636,268.931 87.469,279.097 92.906,284.536 103.073,274.369 		"/>
	</g>
	<path fill="#B32300" d="M68.419,414.067h-3.881v-1.332v-0.575c0-2.593-1.297-2.593-2.594-2.593c-1.296,0-1.296,0-3.89,0
		s-2.593,1.297-2.593,2.593c0,0.405,0,0.557,0,0.575v1.332H51.58c-0.581,0-1.052,0.471-1.052,1.052v1.053
		c0,0.581,0.471,1.052,1.052,1.052h0.526v13.208h15.788v-13.208h0.525c0.582,0,1.054-0.471,1.054-1.052v-1.053
		C69.473,414.539,69.001,414.067,68.419,414.067z M58.055,412.161h3.89v1.907h-3.89V412.161z M56.316,428.275h-2.104v-11.051h2.104
		V428.275z M61.052,428.275h-2.104v-11.051h2.104V428.275z M65.789,428.275h-2.106v-11.051h2.106V428.275z"/>
	<path fill="#979797" d="M32.419,414.067h-3.881v-1.332v-0.575c0-2.593-1.297-2.593-2.593-2.593c-1.297,0-1.297,0-3.89,0
		s-2.593,1.297-2.593,2.593c0,0.405,0,0.557,0,0.575v1.332H15.58c-0.581,0-1.052,0.471-1.052,1.052v1.053
		c0,0.581,0.471,1.052,1.052,1.052h0.526v13.208h15.787v-13.208h0.526c0.581,0,1.053-0.471,1.053-1.052v-1.053
		C33.472,414.539,33,414.067,32.419,414.067z M22.055,412.161h3.89v1.907h-3.89V412.161z M20.316,428.275h-2.104v-11.051h2.104
		V428.275z M25.052,428.275h-2.104v-11.051h2.104V428.275z M29.789,428.275h-2.105v-11.051h2.105V428.275z"/>
	<g>
		<path fill="#FFFFFF" d="M22.156,394.5v-8.711H13.5v-3.64h8.656V373.5h3.688v8.649H34.5v3.64h-8.656v8.711H22.156z"/>
	</g>
	<g>
		<path fill="#0066CC" d="M22.156,358.5v-8.711H13.5v-3.64h8.656V337.5h3.688v8.649H34.5v3.64h-8.656v8.711H22.156z"/>
	</g>
	<g>
		<path fill="#999999" d="M94.156,358.5v-8.711H85.5v-3.64h8.656V337.5h3.688v8.649h8.656v3.64h-8.656v8.711H94.156z"/>
	</g>
	<g>
		<polygon fill="#3A66C7" points="23.697,450.5 21.278,450.5 21.278,453.278 18.5,453.278 18.5,455.697 21.278,455.697 
			21.278,458.476 23.697,458.476 23.697,455.697 26.476,455.697 26.476,453.278 23.697,453.278 		"/>
		<path fill="#3A66C7" d="M30.108,459.62c0.996-1.483,1.578-3.268,1.578-5.188c0-5.149-4.176-9.324-9.326-9.324
			c-5.149,0-9.324,4.175-9.324,9.324c0,5.15,4.175,9.325,9.324,9.325c1.993,0,3.837-0.631,5.353-1.696l4.833,4.833l2.418-2.417
			L30.108,459.62z M22.36,461.381c-3.832,0-6.949-3.117-6.949-6.95c0-3.832,3.117-6.949,6.949-6.949
			c3.833,0,6.951,3.117,6.951,6.949C29.312,458.264,26.193,461.381,22.36,461.381z"/>
	</g>
	<g>
		<polygon fill="#999999" points="95.697,450.5 93.278,450.5 93.278,453.278 90.5,453.278 90.5,455.697 93.278,455.697 
			93.278,458.476 95.697,458.476 95.697,455.697 98.476,455.697 98.476,453.278 95.697,453.278 		"/>
		<path fill="#999999" d="M102.108,459.62c0.996-1.483,1.578-3.268,1.578-5.188c0-5.149-4.176-9.324-9.326-9.324
			c-5.149,0-9.324,4.175-9.324,9.324c0,5.15,4.175,9.325,9.324,9.325c1.993,0,3.837-0.631,5.353-1.696l4.833,4.833l2.418-2.417
			L102.108,459.62z M94.36,461.381c-3.832,0-6.949-3.117-6.949-6.95c0-3.832,3.117-6.949,6.949-6.949
			c3.833,0,6.951,3.117,6.951,6.949C101.312,458.264,98.193,461.381,94.36,461.381z"/>
	</g>
	<g>
		<rect x="18.373" y="488.972" fill="#3A66C7" width="7.976" height="2.918"/>
		<path fill="#3A66C7" d="M34.964,500.476l-4.855-4.856c0.996-1.483,1.578-3.268,1.578-5.188c0-5.149-4.176-9.324-9.326-9.324
			c-5.149,0-9.324,4.175-9.324,9.324c0,5.15,4.175,9.325,9.324,9.325c1.993,0,3.837-0.631,5.353-1.696l4.833,4.833L34.964,500.476z
			 M15.411,490.431c0-3.832,3.117-6.949,6.949-6.949c3.833,0,6.951,3.117,6.951,6.949c0,3.833-3.118,6.95-6.951,6.95
			C18.528,497.381,15.411,494.264,15.411,490.431z"/>
	</g>
	<g>
		<rect x="90.373" y="488.972" fill="#999999" width="7.976" height="2.918"/>
		<path fill="#999999" d="M106.964,500.476l-4.855-4.856c0.996-1.483,1.578-3.268,1.578-5.188c0-5.149-4.176-9.324-9.326-9.324
			c-5.149,0-9.324,4.175-9.324,9.324c0,5.15,4.175,9.325,9.324,9.325c1.993,0,3.837-0.631,5.353-1.696l4.833,4.833L106.964,500.476z
			 M87.411,490.431c0-3.832,3.117-6.949,6.949-6.949c3.833,0,6.951,3.117,6.951,6.949c0,3.833-3.118,6.95-6.951,6.95
			C90.528,497.381,87.411,494.264,87.411,490.431z"/>
	</g>
	<g>
		<polygon fill="#0066CC" points="30,714 18,714 18,702 24,702 24,700 18,700 16.008,700 16,700 16,714 16,716 18,716 30,716 
			32,716 32,714 32,708 30,708 		"/>
		<polygon fill="#0066CC" points="21.53,709.075 22.944,710.489 29.355,704.079 28.07,702.793 29.418,704.132 31.332,706.035 
			32,700 25.971,700.705 27.941,702.665 		"/>
	</g>
	<g>
		<polygon fill="#FFFFFF" points="66,714 54,714 54,702 60,702 60,700 54,700 52.008,700 52,700 52,714 52,716 54,716 66,716 
			68,716 68,714 68,708 66,708 		"/>
		<polygon fill="#FFFFFF" points="57.53,709.076 58.944,710.489 65.355,704.079 64.069,702.793 65.419,704.132 67.332,706.034 
			68,700 61.972,700.706 63.941,702.665 		"/>
	</g>
	<g>
		<polygon fill="#211915" points="30,1074.003 18,1074.003 18,1062.003 24,1062.003 24,1060.003 18,1060.003 16.008,1060.003 
			16,1060.003 16,1074.003 16,1076.003 18,1076.003 30,1076.003 32,1076.003 32,1074.003 32,1068.003 30,1068.003 		"/>
		<polygon fill="#211915" points="21.529,1069.079 22.943,1070.492 29.355,1064.082 28.069,1062.796 29.419,1064.135 
			31.332,1066.037 32,1060.003 25.972,1060.709 27.941,1062.668 		"/>
	</g>
	<g>
		<polygon fill="#0066FF" points="66,1074.003 54,1074.003 54,1062.003 60,1062.003 60,1060.003 54,1060.003 52.008,1060.003 
			52,1060.003 52,1074.003 52,1076.003 54,1076.003 66,1076.003 68,1076.003 68,1074.003 68,1068.003 66,1068.003 		"/>
		<polygon fill="#0066FF" points="57.529,1069.079 58.943,1070.492 65.355,1064.082 64.069,1062.796 65.419,1064.135 
			67.332,1066.037 68,1060.003 61.972,1060.709 63.941,1062.668 		"/>
	</g>
	<g>
		<circle fill="#0066CC" cx="15" cy="744" r="2.845"/>
		<circle fill="#0066CC" cx="24" cy="744" r="2.845"/>
		<circle fill="#0066CC" cx="33" cy="744" r="2.845"/>
	</g>
	<g>
		<circle fill="#0066FF" cx="51" cy="744" r="2.845"/>
		<circle fill="#0066FF" cx="60" cy="744" r="2.845"/>
		<circle fill="#0066FF" cx="69" cy="744" r="2.845"/>
	</g>
	<polygon fill="#FFFFFF" points="19.491,812 24,820 28.508,812 	"/>
	<rect x="12" y="768" fill="none" width="24" height="24"/>
	<polygon fill="#0066CC" points="20,776 24,784 28,776 	"/>
	<polygon fill="#FFFFFF" points="28,892 24,884 20,892 	"/>
	<polygon fill="#0066CC" points="28,856 24,847.999 20,856 	"/>
	<g>
		<rect x="48" y="523.665" fill="#0066FF" width="6" height="16.335"/>
		<rect x="57" y="516" fill="#0066FF" width="6" height="24"/>
		<rect x="66" y="528" fill="#0066FF" width="6" height="12"/>
	</g>
	<g>
		<rect x="48" y="660" fill="#0066FF" width="16.335" height="6"/>
		<rect x="48" y="669" fill="#0066FF" width="24" height="6"/>
		<rect x="48" y="678" fill="#0066FF" width="12" height="6"/>
	</g>
	<path fill="#0066FF" d="M60,624c-6.627,0-12,5.373-12,12s5.373,12,12,12c6.627,0,12-5.373,12-12S66.627,624,60,624z M60,636v-9.499
		c5.799,0,9.499,3.7,9.499,9.499H60z"/>
	<g>
		<polygon fill="#0066FF" points="69.419,601.396 64.925,607.927 55.709,599.556 48,607.466 48,612 72,612 72,603.199 		"/>
		<polygon fill="#0066FF" points="55.624,596.777 64.575,604.906 68.914,598.604 72,600.76 72,594.499 67.999,590.625 64.001,595.5 
			56.375,588 48,595.75 48,604.601 		"/>
	</g>
	<g>
		<polygon fill="none" points="61.581,571.452 66.939,565.253 57.184,556.283 48,564.382 48,568.632 55.916,563.61 		"/>
		<polygon fill="#0066FF" points="66.939,565.253 68.248,563.739 57.212,553.592 48,561.715 48,564.382 57.184,556.283 		"/>
		<polygon fill="#0066FF" points="69.721,565.093 68.412,566.606 72,569.905 72,567.188 		"/>
		<polygon fill="#0066FF" points="61.439,574.673 68.412,566.606 66.939,565.253 61.581,571.452 55.916,563.61 48,568.632 48,571 
			55.397,566.307 		"/>
		<polygon fill="#0066FF" points="69.721,565.093 72,562.456 72,559.398 68.248,563.739 		"/>
		<polygon fill="#0066FF" points="66.939,565.253 68.412,566.606 69.721,565.093 68.248,563.739 		"/>
	</g>
	<g>
		<rect x="84" y="523.665" fill="#999999" width="6" height="16.335"/>
		<rect x="93" y="516" fill="#999999" width="6" height="24"/>
		<rect x="102" y="528" fill="#999999" width="6" height="12"/>
	</g>
	<g>
		<rect x="84" y="660" fill="#999999" width="16.335" height="6"/>
		<rect x="84" y="669" fill="#999999" width="24" height="6"/>
		<rect x="84" y="678" fill="#999999" width="12" height="6"/>
	</g>
	<path fill="#999999" d="M96,624c-6.627,0-12,5.373-12,12s5.373,12,12,12s12-5.373,12-12S102.627,624,96,624z M96,636v-9.499
		c5.799,0,9.499,3.7,9.499,9.499H96z"/>
	<g>
		<polygon fill="#999999" points="105.419,601.396 100.925,607.927 91.709,599.556 84,607.466 84,612 108,612 108,603.199 		"/>
		<polygon fill="#999999" points="91.624,596.777 100.575,604.906 104.914,598.604 108,600.76 108,594.499 103.999,590.625 
			100.001,595.5 92.374,588 84,595.75 84,604.601 		"/>
	</g>
	<g>
		<polygon fill="none" points="97.581,571.452 102.939,565.253 93.184,556.283 84,564.382 84,568.632 91.915,563.61 		"/>
		<polygon fill="#999999" points="102.939,565.253 104.248,563.739 93.212,553.592 84,561.715 84,564.382 93.184,556.283 		"/>
		<polygon fill="#999999" points="105.721,565.093 104.412,566.606 108,569.905 108,567.188 		"/>
		<polygon fill="#999999" points="97.439,574.673 104.412,566.606 102.939,565.253 97.581,571.452 91.915,563.61 84,568.632 84,571 
			91.397,566.307 		"/>
		<polygon fill="#999999" points="105.721,565.093 108,562.456 108,559.398 104.248,563.739 		"/>
		<polygon fill="#999999" points="102.939,565.253 104.412,566.606 105.721,565.093 104.248,563.739 		"/>
	</g>
	<g>
		<polygon fill="#999999" points="95.697,450.5 93.278,450.5 93.278,453.278 90.5,453.278 90.5,455.697 93.278,455.697 
			93.278,458.476 95.697,458.476 95.697,455.697 98.476,455.697 98.476,453.278 95.697,453.278 		"/>
		<path fill="#999999" d="M102.108,459.62c0.996-1.483,1.578-3.268,1.578-5.188c0-5.149-4.176-9.324-9.326-9.324
			c-5.149,0-9.324,4.175-9.324,9.324c0,5.15,4.175,9.325,9.324,9.325c1.993,0,3.837-0.631,5.353-1.696l4.833,4.833l2.418-2.417
			L102.108,459.62z M94.36,461.381c-3.832,0-6.949-3.117-6.949-6.95c0-3.832,3.117-6.949,6.949-6.949
			c3.833,0,6.951,3.117,6.951,6.949C101.312,458.264,98.193,461.381,94.36,461.381z"/>
	</g>
	<g>
		<polygon fill="#0066FF" points="59.697,450.5 57.278,450.5 57.278,453.278 54.5,453.278 54.5,455.697 57.278,455.697 
			57.278,458.476 59.697,458.476 59.697,455.697 62.476,455.697 62.476,453.278 59.697,453.278 		"/>
		<path fill="#0066FF" d="M66.108,459.62c0.996-1.483,1.578-3.268,1.578-5.188c0-5.149-4.176-9.324-9.326-9.324
			c-5.149,0-9.324,4.175-9.324,9.324c0,5.15,4.175,9.325,9.324,9.325c1.993,0,3.837-0.631,5.353-1.696l4.833,4.833l2.418-2.417
			L66.108,459.62z M58.36,461.381c-3.832,0-6.949-3.117-6.949-6.95c0-3.832,3.117-6.949,6.949-6.949
			c3.833,0,6.951,3.117,6.951,6.949C65.312,458.264,62.193,461.381,58.36,461.381z"/>
	</g>
	<g>
		<rect x="54.373" y="488.972" fill="#0066FF" width="7.976" height="2.918"/>
		<path fill="#0066FF" d="M70.964,500.476l-4.855-4.856c0.996-1.483,1.578-3.268,1.578-5.188c0-5.149-4.176-9.324-9.326-9.324
			c-5.149,0-9.324,4.175-9.324,9.324c0,5.15,4.175,9.325,9.324,9.325c1.993,0,3.837-0.631,5.353-1.696l4.833,4.833L70.964,500.476z
			 M51.411,490.431c0-3.832,3.117-6.949,6.949-6.949c3.833,0,6.951,3.117,6.951,6.949c0,3.833-3.118,6.95-6.951,6.95
			C54.528,497.381,51.411,494.264,51.411,490.431z"/>
	</g>
	<g>
		<rect x="90.373" y="488.972" fill="#999999" width="7.976" height="2.918"/>
		<path fill="#999999" d="M106.964,500.476l-4.855-4.856c0.996-1.483,1.578-3.268,1.578-5.188c0-5.149-4.176-9.324-9.326-9.324
			c-5.149,0-9.324,4.175-9.324,9.324c0,5.15,4.175,9.325,9.324,9.325c1.993,0,3.837-0.631,5.353-1.696l4.833,4.833L106.964,500.476z
			 M87.411,490.431c0-3.832,3.117-6.949,6.949-6.949c3.833,0,6.951,3.117,6.951,6.949c0,3.833-3.118,6.95-6.951,6.95
			C90.528,497.381,87.411,494.264,87.411,490.431z"/>
	</g>
	<g>
		<path d="M30.645,919.548l-0.239,0.077l-1.276,0.112l-0.358,0.574l-0.261-0.082l-1.015-0.915l-0.149-0.476l-0.197-0.507
			l-0.637-0.572l-0.753-0.146l-0.018,0.343l0.739,0.719l0.361,0.426l-0.406,0.211l-0.331-0.097l-0.495-0.207l0.018-0.397
			l-0.649-0.267l-0.216,0.938l-0.654,0.146l0.064,0.524l0.853,0.164l0.147-0.835l0.704,0.102l0.326,0.191h0.524l0.361,0.719
			l0.95,0.968l-0.07,0.375l-0.766-0.099l-1.328,0.671l-0.955,1.145l-0.125,0.507h-0.343l-0.637-0.293l-0.622,0.293l0.154,0.654
			l0.271-0.311l0.475-0.015l-0.035,0.589l0.393,0.114l0.393,0.44l0.642-0.179l0.733,0.114l0.851,0.229l0.425,0.05l0.719,0.818
			l1.391,0.818l-0.898,1.716l-0.95,0.443l-0.361,0.979l-1.373,0.918l-0.147,0.529C29.389,930.924,32,927.771,32,924
			C32,922.354,31.5,920.819,30.645,919.548L30.645,919.548z M30.645,919.548"/>
		<path d="M24.919,928.181l-0.582-1.079l0.535-1.114l-0.535-0.162l-0.599-0.602l-1.331-0.299L21.964,924v0.55H21.77l-1.146-1.555
			v-1.278l-0.84-1.365l-1.336,0.238h-0.898l-0.453-0.298l0.577-0.456l-0.575,0.133C16.405,921.152,16,922.527,16,924
			c0,4.417,3.582,8.001,7.999,8.001c0.341,0,0.674-0.029,1.005-0.069l-0.084-0.97c0,0,0.368-1.44,0.368-1.487
			C25.287,929.425,24.919,928.181,24.919,928.181L24.919,928.181z M24.919,928.181"/>
		<path d="M18.972,918.578l1.423-0.196l0.654-0.361l0.739,0.214l1.176-0.066l0.403-0.635l0.589,0.097l1.428-0.132l0.393-0.435
			l0.557-0.371l0.784,0.117l0.289-0.042c-1.035-0.488-2.187-0.769-3.408-0.769c-2.482,0-4.703,1.132-6.168,2.91h0.002
			L18.972,918.578z M21.917,916.859"/>
	</g>
	<g>
		<g>
			<g>
				<path fill="#0066CC" d="M24,948c-4.143,0-7.5,3.359-7.5,7.499C16.5,962.662,24,972,24,972s7.5-9.338,7.5-16.501
					C31.5,951.359,28.141,948,24,948L24,948z M24,959.641c-2.236,0-4.052-1.814-4.052-4.052s1.815-4.051,4.052-4.051
					s4.052,1.813,4.052,4.051C28.05,957.826,26.236,959.641,24,959.641L24,959.641z"/>
			</g>
		</g>
	</g>
	<g>
		<g>
			<g>
				<path fill="#0066FF" d="M60,948c-4.144,0-7.5,3.359-7.5,7.499C52.5,962.662,60,972,60,972s7.5-9.338,7.5-16.501
					C67.5,951.359,64.14,948,60,948L60,948z M60,959.641c-2.238,0-4.052-1.814-4.052-4.052s1.814-4.051,4.052-4.051
					c2.236,0,4.052,1.813,4.052,4.051C64.05,957.826,62.236,959.641,60,959.641L60,959.641z"/>
			</g>
		</g>
	</g>
	<g>
		<g>
			<g>
				<path fill="#999999" d="M96,948c-4.145,0-7.5,3.359-7.5,7.499C88.5,962.662,96,972,96,972s7.5-9.338,7.5-16.501
					C103.5,951.359,100.14,948,96,948L96,948z M96,959.641c-2.236,0-4.052-1.814-4.052-4.052s1.815-4.051,4.052-4.051
					s4.052,1.813,4.052,4.051C100.05,957.826,98.236,959.641,96,959.641L96,959.641z"/>
			</g>
		</g>
	</g>
	<path fill="#0066CC" d="M24,1020c-0.307,0-0.607,0.023-0.909,0.046c-2.693,0.202-5.132,1.291-7.037,2.979
		C13.573,1025.223,12,1028.424,12,1032c0,6.627,5.373,12,12,12s12-5.373,12-12S30.627,1020,24,1020z M14,1032
		c0-2.68,1.072-5.103,2.795-6.899v2.418l2.822,1.336l1.682,2.227l2.228,0.644l-0.94,2.921l2.673,2.228l-1.287,3.563l0.179,1.556
		c-0.05,0.004-0.101,0.008-0.151,0.008C18.486,1042,14,1037.514,14,1032z M25.471,1041.879l0.284-0.787l2.029-0.655l0.384-1.957
		l3.141-1.925l-1.694-3.047l-2.425-0.693l-1.139-1.634l-2.178,0.296l-1.263-0.717l-0.223-1.36l-1.435,0.148l-0.05-2.178l2.178,0.544
		l2.92-3.268l2.426-0.445l-1.084-1.608c3.872,1.38,6.656,5.068,6.656,9.407C34,1037.012,30.289,1041.164,25.471,1041.879z"/>
	<path fill="#0066FF" d="M60.053,1020c-0.307,0-0.607,0.023-0.909,0.046c-2.693,0.202-5.132,1.291-7.037,2.979
		c-2.482,2.198-4.055,5.399-4.055,8.976c0,6.627,5.373,12,12,12c6.627,0,12-5.373,12-12S66.68,1020,60.053,1020z M50.053,1032
		c0-2.68,1.072-5.103,2.795-6.899v2.418l2.822,1.336l1.682,2.227l2.228,0.644l-0.94,2.921l2.673,2.228l-1.287,3.563l0.179,1.556
		c-0.05,0.004-0.101,0.008-0.151,0.008C54.539,1042,50.053,1037.514,50.053,1032z M61.523,1041.879l0.284-0.787l2.029-0.655
		l0.384-1.957l3.142-1.925l-1.694-3.047l-2.425-0.693l-1.139-1.634l-2.178,0.296l-1.263-0.717l-0.223-1.36l-1.435,0.148l-0.05-2.178
		l2.178,0.544l2.92-3.268l2.426-0.445l-1.084-1.608c3.872,1.38,6.656,5.068,6.656,9.407
		C70.053,1037.012,66.342,1041.164,61.523,1041.879z"/>
	<path fill="#999999" d="M96,1020c-0.307,0-0.607,0.023-0.908,0.046c-2.693,0.202-5.133,1.291-7.037,2.979
		C85.573,1025.223,84,1028.424,84,1032c0,6.627,5.373,12,12,12s12-5.373,12-12S102.627,1020,96,1020z M86,1032
		c0-2.68,1.072-5.103,2.796-6.899v2.418l2.822,1.336l1.683,2.227l2.227,0.644l-0.939,2.921l2.672,2.228l-1.287,3.563l0.18,1.556
		C96.102,1041.996,96.051,1042,96,1042C90.486,1042,86,1037.514,86,1032z M97.471,1041.879l0.285-0.787l2.029-0.655l0.383-1.957
		l3.143-1.925l-1.695-3.047l-2.424-0.693l-1.139-1.634l-2.178,0.296l-1.264-0.717l-0.223-1.36l-1.435,0.148l-0.05-2.178l2.178,0.544
		l2.92-3.268l2.426-0.445l-1.084-1.608c3.873,1.38,6.656,5.068,6.656,9.407C106,1037.012,102.289,1041.164,97.471,1041.879z"/>
	<path fill="#0066CC" d="M33.488,996.852c-0.302,0-0.587,0.062-0.855,0.159l-7.433-7.829c0.128-0.302,0.2-0.634,0.2-0.982
		c0-1.388-1.125-2.513-2.512-2.513c-1.388,0-2.513,1.125-2.513,2.513c0,0.275,0.055,0.535,0.137,0.783l-4.721,4.221
		c-0.375-0.224-0.809-0.36-1.278-0.36c-1.388,0-2.513,1.125-2.513,2.513s1.125,2.513,2.513,2.513c0.03,0,0.058-0.008,0.087-0.009
		l2.533,4.443c-0.314,0.419-0.507,0.935-0.507,1.499c0,1.388,1.125,2.513,2.513,2.513c1.292,0,2.344-0.979,2.484-2.234l9.97-3.083
		c0.461,0.534,1.134,0.88,1.896,0.88c1.387,0,2.512-1.125,2.512-2.513S34.875,996.852,33.488,996.852z M22.888,986.814
		c0.014,0,0.025,0.008,0.04,0.008c0.014,0.001,0.026,0.008,0.041,0.008c0.65,0.044,1.169,0.571,1.169,1.232c0,0.001,0,0.001,0,0.001
		c0,0.691-0.56,1.251-1.25,1.251s-1.25-0.56-1.25-1.25c0-0.039,0.019-0.071,0.022-0.108
		C21.717,987.319,22.236,986.814,22.888,986.814z M14.513,996.605c-0.312,0-0.588-0.125-0.807-0.314
		c-0.205-0.176-0.337-0.415-0.394-0.69c-0.01-0.052-0.027-0.101-0.031-0.153c-0.002-0.032-0.019-0.06-0.019-0.092
		c0-0.69,0.56-1.25,1.25-1.25c0.078,0,0.146,0.03,0.219,0.044c0.582,0.107,1.031,0.594,1.031,1.206
		C15.763,996.046,15.203,996.605,14.513,996.605z M16.406,996.99c0.38-0.44,0.619-1.007,0.619-1.635c0-0.18-0.021-0.354-0.056-0.522
		l4.872-4.356c0.319,0.147,0.672,0.235,1.047,0.235c0.302,0,0.587-0.062,0.855-0.159l7.433,7.828
		c-0.093,0.22-0.145,0.459-0.172,0.705l-9.97,3.083c-0.46-0.534-1.134-0.88-1.895-0.88c-0.091,0-0.177,0.018-0.266,0.026
		L16.406,996.99z M19.138,1005.052c-0.141,0-0.271-0.037-0.398-0.08c-0.033-0.012-0.069-0.013-0.101-0.026
		c-0.441-0.193-0.751-0.631-0.751-1.144c0-0.046,0.021-0.084,0.026-0.129c0.067-0.627,0.579-1.121,1.224-1.121
		c0.69,0,1.25,0.56,1.25,1.25c0,0.284-0.112,0.534-0.272,0.744C19.888,1004.846,19.543,1005.052,19.138,1005.052z M33.487,1000.614
		c-0.141,0-0.271-0.037-0.398-0.08c-0.492-0.168-0.852-0.621-0.852-1.17c0-0.69,0.56-1.25,1.25-1.25
		c0.084,0,0.158,0.032,0.238,0.048c0.515,0.103,0.902,0.506,0.978,1.03c0.008,0.059,0.035,0.11,0.035,0.172
		c0,0.284-0.112,0.534-0.272,0.744C34.237,1000.408,33.893,1000.614,33.487,1000.614z"/>
	<path fill="#0066FF" d="M69.541,996.852c-0.302,0-0.588,0.062-0.855,0.159l-7.433-7.829c0.128-0.302,0.2-0.634,0.2-0.982
		c0-1.388-1.125-2.513-2.512-2.513c-1.388,0-2.513,1.125-2.513,2.513c0,0.275,0.055,0.535,0.137,0.783l-4.721,4.221
		c-0.375-0.224-0.809-0.36-1.278-0.36c-1.388,0-2.513,1.125-2.513,2.513s1.125,2.513,2.513,2.513c0.03,0,0.058-0.008,0.087-0.009
		l2.533,4.443c-0.314,0.419-0.507,0.935-0.507,1.499c0,1.388,1.125,2.513,2.513,2.513c1.292,0,2.344-0.979,2.484-2.234l9.97-3.083
		c0.461,0.534,1.134,0.88,1.896,0.88c1.387,0,2.512-1.125,2.512-2.513S70.928,996.852,69.541,996.852z M58.941,986.814
		c0.014,0,0.025,0.008,0.04,0.008c0.014,0.001,0.026,0.008,0.041,0.008c0.65,0.044,1.169,0.571,1.169,1.232c0,0.001,0,0.001,0,0.001
		c0,0.691-0.56,1.251-1.25,1.251s-1.25-0.56-1.25-1.25c0-0.039,0.019-0.071,0.022-0.108
		C57.771,987.319,58.289,986.814,58.941,986.814z M50.566,996.605c-0.312,0-0.588-0.125-0.807-0.314
		c-0.205-0.176-0.337-0.415-0.394-0.69c-0.01-0.052-0.027-0.101-0.031-0.153c-0.002-0.032-0.019-0.06-0.019-0.092
		c0-0.69,0.56-1.25,1.25-1.25c0.078,0,0.146,0.03,0.219,0.044c0.582,0.107,1.031,0.594,1.031,1.206
		C51.816,996.046,51.256,996.605,50.566,996.605z M52.459,996.99c0.38-0.44,0.619-1.007,0.619-1.635c0-0.18-0.021-0.354-0.056-0.522
		l4.872-4.356c0.319,0.147,0.672,0.235,1.047,0.235c0.302,0,0.587-0.062,0.855-0.159l7.433,7.828
		c-0.094,0.22-0.145,0.459-0.172,0.705l-9.971,3.083c-0.46-0.534-1.134-0.88-1.895-0.88c-0.091,0-0.177,0.018-0.266,0.026
		L52.459,996.99z M55.191,1005.052c-0.141,0-0.271-0.037-0.398-0.08c-0.033-0.012-0.069-0.013-0.101-0.026
		c-0.441-0.193-0.751-0.631-0.751-1.144c0-0.046,0.021-0.084,0.026-0.129c0.067-0.627,0.579-1.121,1.224-1.121
		c0.69,0,1.25,0.56,1.25,1.25c0,0.284-0.112,0.534-0.272,0.744C55.941,1004.846,55.597,1005.052,55.191,1005.052z M69.541,1000.614
		c-0.142,0-0.271-0.037-0.398-0.08c-0.492-0.168-0.852-0.621-0.852-1.17c0-0.69,0.559-1.25,1.25-1.25
		c0.084,0,0.158,0.032,0.237,0.048c0.515,0.103,0.901,0.506,0.978,1.03c0.008,0.059,0.035,0.11,0.035,0.172
		c0,0.284-0.112,0.534-0.272,0.744C70.291,1000.408,69.946,1000.614,69.541,1000.614z"/>
	<path fill="#999999" d="M105.487,996.852c-0.302,0-0.588,0.062-0.855,0.159l-7.433-7.829c0.128-0.302,0.2-0.634,0.2-0.982
		c0-1.388-1.125-2.513-2.513-2.513c-1.387,0-2.512,1.125-2.512,2.513c0,0.275,0.055,0.535,0.137,0.783l-4.722,4.221
		c-0.376-0.224-0.81-0.36-1.278-0.36c-1.387,0-2.512,1.125-2.512,2.513s1.125,2.513,2.512,2.513c0.03,0,0.059-0.008,0.088-0.009
		l2.532,4.443c-0.314,0.419-0.507,0.935-0.507,1.499c0,1.388,1.125,2.513,2.512,2.513c1.293,0,2.344-0.979,2.484-2.234l9.971-3.083
		c0.461,0.534,1.134,0.88,1.896,0.88c1.387,0,2.512-1.125,2.512-2.513S106.874,996.852,105.487,996.852z M94.887,986.814
		c0.015,0,0.025,0.008,0.04,0.008c0.015,0.001,0.026,0.008,0.04,0.008c0.65,0.044,1.17,0.571,1.17,1.232c0,0.001,0,0.001,0,0.001
		c0,0.691-0.559,1.251-1.25,1.251c-0.689,0-1.25-0.56-1.25-1.25c0-0.039,0.02-0.071,0.022-0.108
		C93.717,987.319,94.235,986.814,94.887,986.814z M86.512,996.605c-0.311,0-0.588-0.125-0.807-0.314
		c-0.205-0.176-0.336-0.415-0.394-0.69c-0.011-0.052-0.026-0.101-0.03-0.153c-0.003-0.032-0.02-0.06-0.02-0.092
		c0-0.69,0.561-1.25,1.25-1.25c0.078,0,0.146,0.03,0.22,0.044c0.581,0.107,1.03,0.594,1.03,1.206
		C87.762,996.046,87.203,996.605,86.512,996.605z M88.406,996.99c0.38-0.44,0.618-1.007,0.618-1.635c0-0.18-0.021-0.354-0.056-0.522
		l4.871-4.356c0.32,0.147,0.672,0.235,1.047,0.235c0.303,0,0.588-0.062,0.855-0.159l7.433,7.828
		c-0.094,0.22-0.145,0.459-0.172,0.705l-9.971,3.083c-0.46-0.534-1.134-0.88-1.896-0.88c-0.091,0-0.177,0.018-0.266,0.026
		L88.406,996.99z M91.137,1005.052c-0.141,0-0.271-0.037-0.397-0.08c-0.033-0.012-0.069-0.013-0.101-0.026
		c-0.441-0.193-0.752-0.631-0.752-1.144c0-0.046,0.021-0.084,0.026-0.129c0.067-0.627,0.579-1.121,1.224-1.121
		c0.691,0,1.25,0.56,1.25,1.25c0,0.284-0.111,0.534-0.271,0.744C91.887,1004.846,91.543,1005.052,91.137,1005.052z
		 M105.487,1000.614c-0.142,0-0.271-0.037-0.398-0.08c-0.492-0.168-0.852-0.621-0.852-1.17c0-0.69,0.559-1.25,1.25-1.25
		c0.084,0,0.158,0.032,0.237,0.048c0.515,0.103,0.901,0.506,0.978,1.03c0.008,0.059,0.035,0.11,0.035,0.172
		c0,0.284-0.112,0.534-0.272,0.744C106.237,1000.408,105.893,1000.614,105.487,1000.614z"/>
	<circle fill="#999999" cx="96" cy="1104.104" r="8"/>
	<text transform="matrix(1 0 0 1 92.248 1109.3633)" fill="#FFFFFF" font-family="'Roboto-Bold'" font-size="14">?</text>
	<circle fill="#0066FF" cx="60.053" cy="1104.104" r="8"/>
	<text transform="matrix(1 0 0 1 56.3003 1109.3633)" fill="#FFFFFF" font-family="'Roboto-Bold'" font-size="14">?</text>
	<circle fill="#0066CC" cx="24" cy="1104.104" r="8"/>
	<text transform="matrix(1 0 0 1 20.2476 1109.3633)" fill="#FFFFFF" font-family="'Roboto-Bold'" font-size="14">?</text>
	<g>
		
			<rect x="24.187" y="1140.525" transform="matrix(0.6856 0.728 -0.728 0.6856 838.994 339.2924)" fill="#999999" width="4.961" height="1"/>
		
			<rect x="26.168" y="1141.495" transform="matrix(0.7278 0.6858 -0.6858 0.7278 791.7875 293.1034)" fill="#999999" width="1" height="4.961"/>
		<rect x="19" y="1133" fill="#999999" width="1" height="9"/>
		<rect x="19" y="1142" fill="#999999" width="9" height="1"/>
	</g>
	<polygon fill="#0066CC" points="23.999,1181.06 28.12,1176.94 24.999,1176.94 24.999,1170.94 22.999,1170.94 22.999,1176.94 
		19.88,1176.94 	"/>
	<polygon fill="#0066FF" points="59.999,1181.06 64.12,1176.94 60.999,1176.94 60.999,1170.94 58.999,1170.94 58.999,1176.94 
		55.88,1176.94 	"/>
	<polygon fill="#999999" points="95.999,1181.06 100.12,1176.94 96.999,1176.94 96.999,1170.94 94.999,1170.94 94.999,1176.94 
		91.88,1176.94 	"/>
	<g>
		<polygon fill="#0066CC" points="27.817,1215.802 20.183,1215.802 20.183,1208.167 24,1208.167 24,1206.895 20.183,1206.895 
			18.915,1206.895 18.91,1206.895 18.91,1215.802 18.91,1217.074 20.183,1217.074 27.817,1217.074 29.09,1217.074 29.09,1215.802 
			29.09,1211.984 27.817,1211.984 		"/>
		<polygon fill="#0066CC" points="22.429,1212.669 23.328,1213.567 27.408,1209.49 26.589,1208.671 27.447,1209.523 
			28.665,1210.734 29.09,1206.895 25.254,1207.343 26.507,1208.591 		"/>
	</g>
	<g>
		<polygon fill="#0066FF" points="63.817,1215.802 56.183,1215.802 56.183,1208.167 60,1208.167 60,1206.895 56.183,1206.895 
			54.915,1206.895 54.91,1206.895 54.91,1215.802 54.91,1217.074 56.183,1217.074 63.817,1217.074 65.09,1217.074 65.09,1215.802 
			65.09,1211.984 63.817,1211.984 		"/>
		<polygon fill="#0066FF" points="58.428,1212.669 59.328,1213.568 63.407,1209.489 62.589,1208.671 63.448,1209.523 
			64.665,1210.733 65.09,1206.895 61.254,1207.344 62.508,1208.59 		"/>
	</g>
	<path fill="#0066CC" d="M30.713,1249.646v-2.879c0-2.87-1.697-5.335-4.242-6.331c-0.256-1.149-1.267-2.01-2.471-2.01
		s-2.216,0.86-2.471,2.01c-2.545,0.996-4.242,3.461-4.242,6.332v2.879l-1.513,1.551c-0.135,0.139-0.209,0.322-0.209,0.516v2.192
		c0,0.394,0.32,0.711,0.713,0.711h4.758c0.005,1.578,1.388,2.958,2.964,2.958s2.959-1.38,2.964-2.958h4.757
		c0.394,0,0.714-0.317,0.714-0.711v-2.192c0-0.193-0.075-0.377-0.209-0.516L30.713,1249.646z M24,1256.148
		c-0.844,0-1.531-0.795-1.537-1.532h3.074C25.531,1255.354,24.844,1256.148,24,1256.148z M30.09,1252.318H17.91v-1.043l1.497-1.535
		c0-1.47,0-2.738,0-3.006c0-2.26,1.495-4.114,3.631-4.567c0-0.231,0-0.396,0-0.439c0-0.535,0.427-1.003,0.962-1.003
		c0.534,0,0.962,0.468,0.962,1.003c0,0.044,0,0.208,0,0.439c2.137,0.452,3.631,2.308,3.631,4.567c0,0.334,0,1.536,0,3.006
		l1.497,1.535V1252.318L30.09,1252.318z"/>
	<path fill="#0066FF" d="M66.713,1249.646v-2.879c0-2.87-1.697-5.335-4.242-6.331c-0.256-1.149-1.267-2.01-2.471-2.01
		s-2.216,0.86-2.471,2.01c-2.545,0.996-4.242,3.461-4.242,6.332v2.879l-1.513,1.551c-0.135,0.139-0.209,0.322-0.209,0.516v2.192
		c0,0.394,0.32,0.711,0.713,0.711h4.758c0.005,1.578,1.388,2.958,2.964,2.958s2.959-1.38,2.964-2.958h4.757
		c0.394,0,0.714-0.317,0.714-0.711v-2.192c0-0.193-0.075-0.377-0.209-0.516L66.713,1249.646z M60,1256.148
		c-0.844,0-1.531-0.795-1.537-1.532h3.074C61.531,1255.354,60.844,1256.148,60,1256.148z M66.09,1252.318H53.91v-1.043l1.497-1.535
		c0-1.47,0-2.738,0-3.006c0-2.26,1.495-4.114,3.631-4.567c0-0.231,0-0.396,0-0.439c0-0.535,0.427-1.003,0.962-1.003
		c0.534,0,0.962,0.468,0.962,1.003c0,0.044,0,0.208,0,0.439c2.137,0.452,3.632,2.308,3.632,4.567c0,0.334,0,1.536,0,3.006
		l1.496,1.535V1252.318L66.09,1252.318z"/>
	<path fill="#999999" d="M102.713,1249.646v-2.879c0-2.87-1.697-5.335-4.242-6.331c-0.256-1.149-1.267-2.01-2.471-2.01
		s-2.216,0.86-2.471,2.01c-2.545,0.996-4.242,3.461-4.242,6.332v2.879l-1.513,1.551c-0.135,0.139-0.209,0.322-0.209,0.516v2.192
		c0,0.394,0.32,0.711,0.713,0.711h4.758c0.005,1.578,1.388,2.958,2.964,2.958s2.959-1.38,2.964-2.958h4.757
		c0.394,0,0.714-0.317,0.714-0.711v-2.192c0-0.193-0.075-0.377-0.209-0.516L102.713,1249.646z M96,1256.148
		c-0.844,0-1.531-0.795-1.537-1.532h3.074C97.531,1255.354,96.844,1256.148,96,1256.148z M102.09,1252.318H89.91v-1.043l1.496-1.535
		c0-1.47,0-2.738,0-3.006c0-2.26,1.495-4.114,3.632-4.567c0-0.231,0-0.396,0-0.439c0-0.535,0.427-1.003,0.962-1.003
		c0.534,0,0.962,0.468,0.962,1.003c0,0.044,0,0.208,0,0.439c2.137,0.452,3.632,2.308,3.632,4.567c0,0.334,0,1.536,0,3.006
		l1.496,1.535V1252.318L102.09,1252.318z"/>
	<g>
		<path fill="#0066CC" d="M23.097,1289.143v-4.267h-4.239v-1.783h4.239v-4.235h1.806v4.235h4.239v1.783h-4.239v4.267H23.097z"/>
	</g>
	<g>
		<path fill="#0066FF" d="M59.097,1289.143v-4.267h-4.239v-1.783h4.239v-4.235h1.806v4.235h4.24v1.783h-4.24v4.267H59.097z"/>
	</g>
	<g>
		<path fill="#999999" d="M95.098,1289.143v-4.267h-4.24v-1.783h4.24v-4.235h1.805v4.235h4.24v1.783h-4.24v4.267H95.098z"/>
	</g>
</g>
<g id="Labels" display="none">
	<rect x="12" y="516" display="inline" fill="none" width="24" height="24"/>
	<rect x="12" y="660" display="inline" fill="none" width="24" height="24"/>
	<rect x="48" y="660" display="inline" fill="none" width="24" height="24"/>
	<rect x="84" y="660" display="inline" fill="none" width="24" height="24"/>
	<rect x="12" y="732" display="inline" fill="none" width="24" height="24"/>
	<rect x="48" y="732" display="inline" fill="none" width="24" height="24"/>
	<rect x="84" y="732" display="inline" fill="none" width="24" height="24"/>
	<rect x="12" y="696" display="inline" fill="none" width="24" height="24"/>
	<rect x="48" y="696" display="inline" fill="none" width="24" height="24"/>
	<rect x="84" y="696" display="inline" fill="none" width="24" height="24"/>
	<rect x="84" y="696" display="inline" fill="none" width="24" height="24"/>
	<rect x="12" y="588" display="inline" fill="none" width="24" height="24"/>
	<rect x="12" y="624" display="inline" fill="none" width="24" height="24"/>
	<rect x="12" y="552" display="inline" fill="none" width="24" height="24"/>
	<rect x="48" y="768" display="inline" fill="none" width="24" height="24"/>
	<rect x="84" y="768" display="inline" fill="none" width="24" height="24"/>
	<rect x="12" y="804" display="inline" fill="none" width="24" height="24"/>
	<rect x="48" y="804" display="inline" fill="none" width="24" height="24"/>
	<rect x="84" y="804" display="inline" fill="none" width="24" height="24"/>
	<rect x="12" y="840" display="inline" fill="none" width="24" height="24"/>
	<rect x="48" y="840" display="inline" fill="none" width="24" height="24"/>
	<rect x="84" y="840" display="inline" fill="none" width="24" height="24"/>
	<rect x="12" y="876" display="inline" fill="none" width="24" height="24"/>
	<rect x="48" y="876" display="inline" fill="none" width="24" height="24"/>
	<rect x="84" y="876" display="inline" fill="none" width="24" height="24"/>
	<rect x="12" y="912" display="inline" fill="none" width="24" height="24"/>
	<rect x="48" y="912" display="inline" fill="none" width="24" height="24"/>
	<rect x="84" y="912" display="inline" fill="none" width="24" height="24"/>
	<rect x="12" y="948" display="inline" fill="none" width="24" height="24"/>
	<rect x="48" y="948" display="inline" fill="none" width="24" height="24"/>
	<rect x="84" y="948" display="inline" fill="none" width="24" height="24"/>
	<rect x="12" y="984" display="inline" fill="none" width="24" height="24"/>
	<rect x="48" y="984" display="inline" fill="none" width="24" height="24"/>
	<rect x="84" y="984" display="inline" fill="none" width="24" height="24"/>
	<rect x="12" y="1020" display="inline" fill="none" width="24" height="24"/>
	<rect x="48" y="1020" display="inline" fill="none" width="24" height="24"/>
	<rect x="84" y="1020" display="inline" fill="none" width="24" height="24"/>
	<rect x="12" y="1128" display="inline" fill="none" width="24" height="24"/>
	<rect x="48" y="1128" display="inline" fill="none" width="24" height="24"/>
	<rect x="84" y="1128" display="inline" fill="none" width="24" height="24"/>
	<rect x="12" y="12" display="inline" fill="none" width="24" height="24"/>
	<rect x="12" y="48" display="inline" fill="none" width="24" height="24"/>
	<rect x="12" y="84" display="inline" fill="none" width="24" height="24"/>
	<rect x="12" y="120" display="inline" fill="none" width="24" height="24"/>
	<rect x="12" y="156" display="inline" fill="none" width="24" height="24"/>
	<rect x="48" y="156" display="inline" fill="none" width="24" height="24"/>
	<rect x="12" y="192" display="inline" fill="none" width="24" height="24"/>
	<rect x="12" y="228" display="inline" fill="none" width="24" height="24"/>
	<rect x="12" y="264" display="inline" fill="none" width="24" height="24"/>
	<rect x="48" y="264" display="inline" fill="none" width="24" height="24"/>
	<rect x="84" y="264" display="inline" fill="none" width="24" height="24"/>
	<rect x="84" y="228" display="inline" fill="none" width="24" height="24"/>
	<rect x="84" y="192" display="inline" fill="none" width="24" height="24"/>
	<rect x="84" y="156" display="inline" fill="none" width="24" height="24"/>
	<rect x="84" y="120" display="inline" fill="none" width="24" height="24"/>
	<rect x="84" y="84" display="inline" fill="none" width="24" height="24"/>
	<rect x="84" y="48" display="inline" fill="none" width="24" height="24"/>
	<rect x="84" y="12" display="inline" fill="none" width="24" height="24"/>
	<rect x="12" y="408" display="inline" fill="none" width="24" height="24"/>
	<rect x="84" y="408" display="inline" fill="none" width="24" height="24"/>
	<rect x="48" y="408" display="inline" fill="none" width="24" height="24"/>
	<rect x="12" y="444" display="inline" fill="none" width="24" height="24"/>
	<rect x="84" y="444" display="inline" fill="none" width="24" height="24"/>
	<rect x="48" y="444" display="inline" fill="none" width="24" height="24"/>
	<rect x="12" y="480" display="inline" fill="none" width="24" height="24"/>
	<rect x="84" y="480" display="inline" fill="none" width="24" height="24"/>
	<rect x="48" y="480" display="inline" fill="none" width="24" height="24"/>
	<rect x="48" y="516" display="inline" fill="none" width="24" height="24"/>
	<rect x="84" y="516" display="inline" fill="none" width="24" height="24"/>
	<rect x="48" y="552" display="inline" fill="none" width="24" height="24"/>
	<rect x="84" y="552" display="inline" fill="none" width="24" height="24"/>
	<rect x="48" y="588" display="inline" fill="none" width="24" height="24"/>
	<rect x="84" y="588" display="inline" fill="none" width="24" height="24"/>
	<rect x="48" y="624" display="inline" fill="none" width="24" height="24"/>
	<rect x="84" y="624" display="inline" fill="none" width="24" height="24"/>
	<rect x="12" y="372" display="inline" fill="none" width="24" height="24"/>
	<rect x="84" y="372" display="inline" fill="none" width="24" height="24"/>
	<rect x="48" y="372" display="inline" fill="none" width="24" height="24"/>
	<rect x="12" y="336" display="inline" fill="none" width="24" height="24"/>
	<rect x="84" y="336" display="inline" fill="none" width="24" height="24"/>
	<rect x="48" y="336" display="inline" fill="none" width="24" height="24"/>
	<rect x="48" y="264" display="inline" fill="none" width="24" height="24"/>
	<rect x="12" y="300" display="inline" fill="none" width="24" height="24"/>
	<rect x="84" y="300" display="inline" fill="none" width="24" height="24"/>
	<rect x="48" y="300" display="inline" fill="none" width="24" height="24"/>
	<rect x="48" y="12" display="inline" fill="none" width="24" height="24"/>
	<rect x="48" y="48" display="inline" fill="none" width="24" height="24"/>
	<rect x="48" y="84" display="inline" fill="none" width="24" height="24"/>
	<rect x="48" y="120" display="inline" fill="none" width="24" height="24"/>
	<rect x="48" y="156" display="inline" fill="none" width="24" height="24"/>
	<rect x="48" y="192" display="inline" fill="none" width="24" height="24"/>
	<rect x="48" y="228" display="inline" fill="none" width="24" height="24"/>
	<rect x="48" y="660" display="inline" fill="none" width="24" height="24"/>
	<rect x="84" y="660" display="inline" fill="none" width="24" height="24"/>
	<rect x="48" y="516" display="inline" fill="none" width="24" height="24"/>
	<rect x="48" y="660" display="inline" fill="none" width="24" height="24"/>
	<rect x="48" y="588" display="inline" fill="none" width="24" height="24"/>
	<rect x="48" y="624" display="inline" fill="none" width="24" height="24"/>
	<rect x="48" y="552" display="inline" fill="none" width="24" height="24"/>
	<rect x="84" y="444" display="inline" fill="none" width="24" height="24"/>
	<rect x="48" y="444" display="inline" fill="none" width="24" height="24"/>
	<rect x="48" y="444" display="inline" fill="none" width="24" height="24"/>
	<rect x="48" y="480" display="inline" fill="none" width="24" height="24"/>
	<rect x="84" y="480" display="inline" fill="none" width="24" height="24"/>
	<rect x="48" y="480" display="inline" fill="none" width="24" height="24"/>
	<rect x="48" y="516" display="inline" fill="none" width="24" height="24"/>
	<rect x="84" y="516" display="inline" fill="none" width="24" height="24"/>
	<rect x="48" y="552" display="inline" fill="none" width="24" height="24"/>
	<rect x="84" y="552" display="inline" fill="none" width="24" height="24"/>
	<rect x="48" y="588" display="inline" fill="none" width="24" height="24"/>
	<rect x="84" y="588" display="inline" fill="none" width="24" height="24"/>
	<rect x="48" y="624" display="inline" fill="none" width="24" height="24"/>
	<rect x="84" y="660" display="inline" fill="none" width="24" height="24"/>
	<rect x="84" y="516" display="inline" fill="none" width="24" height="24"/>
	<rect x="84" y="660" display="inline" fill="none" width="24" height="24"/>
	<rect x="84" y="588" display="inline" fill="none" width="24" height="24"/>
	<rect x="84" y="624" display="inline" fill="none" width="24" height="24"/>
	<rect x="84" y="552" display="inline" fill="none" width="24" height="24"/>
	<rect x="84" y="516" display="inline" fill="none" width="24" height="24"/>
	<rect x="84" y="552" display="inline" fill="none" width="24" height="24"/>
	<rect x="84" y="588" display="inline" fill="none" width="24" height="24"/>
	<rect x="84" y="624" display="inline" fill="none" width="24" height="24"/>
	<rect x="84" y="624" display="inline" fill="none" width="24" height="24"/>
	<rect x="12" y="1164" display="inline" fill="none" width="24" height="24"/>
	<rect x="48" y="1164" display="inline" fill="none" width="24" height="24"/>
	<rect x="84" y="1164" display="inline" fill="none" width="24" height="24"/>
	<rect x="12" y="1199.984" display="inline" fill="none" width="24" height="24"/>
	<rect x="48" y="1199.984" display="inline" fill="none" width="24" height="24"/>
	<rect x="84" y="1199.984" display="inline" fill="none" width="24" height="24"/>
	<rect x="12" y="1236" display="inline" fill="none" width="24" height="24"/>
	<rect x="48" y="1236" display="inline" fill="none" width="24" height="24"/>
	<rect x="84" y="1236" display="inline" fill="none" width="24" height="24"/>
	<rect x="12" y="1272" display="inline" fill="none" width="24" height="24"/>
	<rect x="48" y="1272" display="inline" fill="none" width="24" height="24"/>
	<rect x="84" y="1272" display="inline" fill="none" width="24" height="24"/>
</g>
</svg>
