<?xml version="1.0" encoding="utf-8"?>
<!-- Generator: Adobe Illustrator 16.0.0, SVG Export Plug-In . SVG Version: 6.00 Build 0)  -->
<!DOCTYPE svg PUBLIC "-//W3C//DTD SVG 1.1//EN" "http://www.w3.org/Graphics/SVG/1.1/DTD/svg11.dtd">
<svg version="1.1" xmlns="http://www.w3.org/2000/svg" xmlns:xlink="http://www.w3.org/1999/xlink" x="0px" y="0px" width="132px"
	 height="1048px" viewBox="0 0 132 1048" enable-background="new 0 0 132 1048" xml:space="preserve">
<g id="Background" display="none">
	<rect display="inline" opacity="0.5" fill="#BF7F32" width="132" height="1048"/>
</g>
<g id="Icons">
	<g>
		<rect x="12" y="523.7" fill="#0066CC" width="6" height="16.3"/>
		<rect x="21" y="516" fill="#0066CC" width="6" height="24"/>
		<rect x="30" y="528" fill="#0066CC" width="6" height="12"/>
	</g>
	<g>
		<rect x="12" y="660" fill="#0066CC" width="16.3" height="6"/>
		<rect x="12" y="669" fill="#0066CC" width="24" height="6"/>
		<rect x="12" y="678" fill="#0066CC" width="12" height="6"/>
	</g>
	<path fill="#0066CC" d="M24,624c-6.6,0-12,5.4-12,12s5.4,12,12,12s12-5.4,12-12S30.6,624,24,624z M24,636v-9.5
		c5.8,0,9.5,3.7,9.5,9.5H24z"/>
	<g>
		<polygon fill="#0066CC" points="33.4,601.4 28.9,607.9 19.7,599.6 12,607.5 12,612 36,612 36,603.2 		"/>
		<polygon fill="#0066CC" points="19.6,596.8 28.6,604.9 32.9,598.6 36,600.8 36,594.5 32,590.6 28,595.5 20.4,588 12,595.8 
			12,604.6 		"/>
	</g>
	<g>
		<polygon fill="none" points="25.6,571.5 30.9,565.3 21.2,556.3 12,564.4 12,568.6 19.9,563.6 		"/>
		<polygon fill="#0066CC" points="30.9,565.3 32.2,563.7 21.2,553.6 12,561.7 12,564.4 21.2,556.3 		"/>
		<polygon fill="#0066CC" points="33.7,565.1 32.4,566.6 36,569.9 36,567.2 		"/>
		<polygon fill="#0066CC" points="25.4,574.7 32.4,566.6 30.9,565.3 25.6,571.5 19.9,563.6 12,568.6 12,571 19.4,566.3 		"/>
		<polygon fill="#0066CC" points="33.7,565.1 36,562.5 36,559.4 32.2,563.7 		"/>
		<polygon fill="#0066CC" points="30.9,565.3 32.4,566.6 33.7,565.1 32.2,563.7 		"/>
	</g>
	<g>
		<polygon fill="#FFFFFF" points="24,13.6 12,23.5 13.5,25.3 24,16.7 34.5,25.3 36,23.5 		"/>
		<path fill="#FFFFFF" d="M24,17.9l-8.7,7.2v4.2v1.6v1v1.9v0.6h0.6h3.4h0.5h1.7v-4.7v0v-1.6c0-0.6,0-1.2,0-1.9c0.6,0,1.1,0,1.7,0
			h3.5v8.2h2.2v0h3.9v-0.6v-1.9v-1V30v-4.9L24,17.9z"/>
	</g>
	<g>
		<rect x="13" y="92.2" fill="#FFFFFF" width="22" height="1.8"/>
		<rect x="13" y="98.1" fill="#FFFFFF" width="22" height="1.8"/>
		<rect x="20.1" y="86.3" fill="#FFFFFF" width="1.8" height="19.4"/>
		<rect x="13" y="86.3" fill="#FFFFFF" width="1.9" height="19.4"/>
		<rect x="33.1" y="86.3" fill="#FFFFFF" width="1.9" height="19.4"/>
		<rect x="13" y="104" fill="#FFFFFF" width="22" height="1.9"/>
		<rect x="13" y="86.1" fill="#FFFFFF" width="22" height="1.9"/>
	</g>
	<g>
		<path fill="#FFFFFF" d="M30.2,49H17.8l-4.1,11v11h20.6V60L30.2,49z M26.1,66.9h-4.1v-1.4h4.1V66.9z M31.6,64.1h-1.4v-1.4h1.4V64.1
			z M27.3,60c-0.3,1.2-1.4,2.1-2.7,2.1h-1.4c-1.3,0-2.3-0.9-2.7-2.1h-4.9l3.4-9.6h9.6l3.4,9.6H27.3z"/>
		<polygon fill="#FFFFFF" points="28.1,51.3 19.9,51.3 19.4,52.8 28.6,52.8 		"/>
		<polygon fill="#FFFFFF" points="18.7,55.4 29.3,55.4 28.9,54.1 19.1,54.1 		"/>
		<path fill="#FFFFFF" d="M18.3,56.7l-0.5,1.6h2.9h1.3V59c0,0.3,0.1,0.5,0.2,0.7c0.2,0.4,0.7,0.6,1.2,0.6h1.4c0.5,0,0.9-0.3,1.2-0.6
			c0.1-0.2,0.2-0.5,0.2-0.7v-0.6h1.3h2.9l0,0l0,0l-0.5-1.6H18.3z"/>
	</g>
	<path fill="#FFFFFF" d="M24,120.5c-6.4,0-11.5,5.1-11.5,11.5s5.1,11.5,11.5,11.5s11.5-5.1,11.5-11.5S30.4,120.5,24,120.5z M24,132
		v-9.1c5.6,0,9.1,3.5,9.1,9.1H24z"/>
	<g>
		<rect x="29.5" y="173.5" fill="#FFFFFF" width="5.5" height="5.5"/>
		<rect x="21.3" y="173.5" fill="#FFFFFF" width="5.5" height="5.5"/>
		<rect x="13" y="173.5" fill="#FFFFFF" width="5.5" height="5.5"/>
		<rect x="13" y="157" fill="#FFFFFF" width="5.5" height="5.5"/>
		<rect x="21.3" y="157" fill="#FFFFFF" width="5.5" height="5.5"/>
		<rect x="29.5" y="157" fill="#FFFFFF" width="5.5" height="5.5"/>
		<rect x="21.3" y="165.3" fill="#FFFFFF" width="5.5" height="5.5"/>
		<rect x="13" y="165.3" fill="#FFFFFF" width="5.5" height="5.5"/>
		<rect x="29.5" y="165.3" fill="#FFFFFF" width="5.5" height="5.5"/>
	</g>
	<g>
		<rect x="65.5" y="173.5" fill="#232831" width="5.5" height="5.5"/>
		<rect x="57.3" y="173.5" fill="#232831" width="5.5" height="5.5"/>
		<rect x="49" y="173.5" fill="#232831" width="5.5" height="5.5"/>
		<rect x="49" y="157" fill="#232831" width="5.5" height="5.5"/>
		<rect x="57.3" y="157" fill="#232831" width="5.5" height="5.5"/>
		<rect x="65.5" y="157" fill="#232831" width="5.5" height="5.5"/>
		<rect x="57.3" y="165.3" fill="#232831" width="5.5" height="5.5"/>
		<rect x="49" y="165.3" fill="#232831" width="5.5" height="5.5"/>
		<rect x="65.5" y="165.3" fill="#232831" width="5.5" height="5.5"/>
	</g>
	<g>
		<path fill="#FFFFFF" d="M33.6,210.4H14.4c-0.4,0-0.8,0.4-0.8,0.8c0,0.4,0.4,0.8,0.8,0.8H20l-1.6,4h2.4l1.6-4h3.2l1.6,4h2.4l-1.6-4
			h5.6c0.4,0,0.8-0.4,0.8-0.8C34.4,210.8,34,210.4,33.6,210.4z"/>
		<path fill="#FFFFFF" d="M32.4,194.3H15.6c-0.9,0-1.6,0.7-1.6,1.6v12c0,0.9,0.7,1.6,1.6,1.6h16.8c0.9,0,1.6-0.7,1.6-1.6v-12
			C34,195,33.3,194.3,32.4,194.3z M31.7,202.5l-1.6-1.6l-4.3,4.3l-1.1,1.2l-3.6-3.6l-4.4,4.4l-1.1-1.1l5.5-5.5l1.1,1.1l2.4,2.4
			l4.3-4.3l-1.8-1.8l5.1-0.6L31.7,202.5z"/>
		<polygon fill="#FFFFFF" points="24.8,192 23.2,192 21.6,192 21.6,193.6 26.4,193.6 26.4,192 		"/>
	</g>
	<path fill="#FFFFFF" d="M34,237.7h-1.9c-0.2-0.7-0.4-1.3-0.8-1.9l1.3-1.3c0.6-0.6,0.6-1.6,0-2.2l-1.1-1.1c-0.6-0.6-1.6-0.6-2.2,0
		l-1.4,1.4c-0.5-0.3-1.1-0.5-1.7-0.7V230c0-0.8-0.7-1.5-1.5-1.5h-1.5c-0.8,0-1.5,0.7-1.5,1.5v1.9c-0.6,0.2-1.2,0.4-1.8,0.7l-1.4-1.4
		c-0.6-0.6-1.6-0.6-2.2,0l-1.1,1.1c-0.6,0.6-0.6,1.6,0,2.2l1.4,1.4c-0.3,0.6-0.6,1.2-0.7,1.8H14c-0.8,0-1.5,0.7-1.5,1.5v1.5
		c0,0.8,0.7,1.5,1.5,1.5h1.9c0.2,0.6,0.4,1.2,0.7,1.7l-1.4,1.4c-0.6,0.6-0.6,1.6,0,2.2l1.1,1.1c0.6,0.6,1.6,0.6,2.2,0l1.3-1.3
		c0.6,0.3,1.2,0.6,1.9,0.8v1.9c0,0.8,0.7,1.5,1.5,1.5h1.5c0.8,0,1.5-0.7,1.5-1.5v-1.9c0.6-0.2,1.2-0.4,1.8-0.7l1.3,1.3
		c0.6,0.6,1.6,0.6,2.2,0l1.1-1.1c0.6-0.6,0.6-1.6,0-2.2l-1.3-1.3c0.3-0.6,0.6-1.2,0.7-1.8H34c0.8,0,1.5-0.7,1.5-1.5v-1.5
		C35.5,238.4,34.8,237.7,34,237.7z M24,244.6c-2.5,0-4.6-2.1-4.6-4.6c0-2.5,2.1-4.6,4.6-4.6c2.5,0,4.6,2.1,4.6,4.6
		C28.6,242.5,26.5,244.6,24,244.6z"/>
	<g>
		<polygon fill="#232831" points="60,13.6 48,23.5 49.5,25.3 60,16.7 70.5,25.3 72,23.5 		"/>
		<path fill="#232831" d="M60,17.9l-8.7,7.2v4.2v1.6v1v1.9v0.6h0.6h3.4h0.5h1.7v-4.7v0v-1.6c0-0.6,0-1.2,0-1.9c0.6,0,1.1,0,1.7,0
			h3.5v8.2h2.2v0h3.9v-0.6v-1.9v-1V30v-4.9L60,17.9z"/>
	</g>
	<g>
		<rect x="49" y="92.2" fill="#232831" width="22" height="1.8"/>
		<rect x="49" y="98.1" fill="#232831" width="22" height="1.8"/>
		<rect x="56.1" y="86.3" fill="#232831" width="1.8" height="19.4"/>
		<rect x="49" y="86.3" fill="#232831" width="1.9" height="19.4"/>
		<rect x="69.1" y="86.3" fill="#232831" width="1.9" height="19.4"/>
		<rect x="49" y="104" fill="#232831" width="22" height="1.9"/>
		<rect x="49" y="86.1" fill="#232831" width="22" height="1.9"/>
	</g>
	<g>
		<path fill="#232831" d="M66.2,49H53.8l-4.1,11v11h20.6V60L66.2,49z M62.1,66.9h-4.1v-1.4h4.1V66.9z M67.6,64.1h-1.4v-1.4h1.4V64.1
			z M63.3,60c-0.3,1.2-1.4,2.1-2.7,2.1h-1.4c-1.3,0-2.3-0.9-2.7-2.1h-4.9l3.4-9.6h9.6l3.4,9.6H63.3z"/>
		<polygon fill="#232831" points="64.1,51.3 55.9,51.3 55.4,52.8 64.6,52.8 		"/>
		<polygon fill="#232831" points="54.7,55.4 65.3,55.4 64.9,54.1 55.1,54.1 		"/>
		<path fill="#232831" d="M54.3,56.7l-0.5,1.6h2.9h1.3V59c0,0.3,0.1,0.5,0.2,0.7c0.2,0.4,0.7,0.6,1.2,0.6h1.4c0.5,0,0.9-0.3,1.2-0.6
			c0.1-0.2,0.2-0.5,0.2-0.7v-0.6h1.3h2.9l0,0l0,0l-0.5-1.6H54.3z"/>
	</g>
	<path fill="#232831" d="M60,120.5c-6.4,0-11.5,5.1-11.5,11.5s5.1,11.5,11.5,11.5s11.5-5.1,11.5-11.5S66.4,120.5,60,120.5z M60,132
		v-9.1c5.6,0,9.1,3.5,9.1,9.1H60z"/>
	<g>
		<path fill="#232831" d="M69.6,210.4H50.4c-0.4,0-0.8,0.4-0.8,0.8c0,0.4,0.4,0.8,0.8,0.8H56l-1.6,4h2.4l1.6-4h3.2l1.6,4h2.4l-1.6-4
			h5.6c0.4,0,0.8-0.4,0.8-0.8C70.4,210.8,70,210.4,69.6,210.4z"/>
		<path fill="#232831" d="M68.4,194.3H51.6c-0.9,0-1.6,0.7-1.6,1.6v12c0,0.9,0.7,1.6,1.6,1.6h16.8c0.9,0,1.6-0.7,1.6-1.6v-12
			C70,195,69.3,194.3,68.4,194.3z M67.7,202.5l-1.6-1.6l-4.3,4.3l-1.1,1.2l-3.6-3.6l-4.4,4.4l-1.1-1.1l5.5-5.5l1.1,1.1l2.4,2.4
			l4.3-4.3l-1.8-1.8l5.1-0.6L67.7,202.5z"/>
		<polygon fill="#232831" points="60.8,192 59.2,192 57.6,192 57.6,193.6 62.4,193.6 62.4,192 		"/>
	</g>
	<path fill="#232831" d="M70,237.7h-1.9c-0.2-0.7-0.4-1.3-0.8-1.9l1.3-1.3c0.6-0.6,0.6-1.6,0-2.2l-1.1-1.1c-0.6-0.6-1.6-0.6-2.2,0
		l-1.4,1.4c-0.5-0.3-1.1-0.5-1.7-0.7V230c0-0.8-0.7-1.5-1.5-1.5h-1.5c-0.8,0-1.5,0.7-1.5,1.5v1.9c-0.6,0.2-1.2,0.4-1.8,0.7l-1.4-1.4
		c-0.6-0.6-1.6-0.6-2.2,0l-1.1,1.1c-0.6,0.6-0.6,1.6,0,2.2l1.4,1.4c-0.3,0.6-0.6,1.2-0.7,1.8H50c-0.8,0-1.5,0.7-1.5,1.5v1.5
		c0,0.8,0.7,1.5,1.5,1.5h1.9c0.2,0.6,0.4,1.2,0.7,1.7l-1.4,1.4c-0.6,0.6-0.6,1.6,0,2.2l1.1,1.1c0.6,0.6,1.6,0.6,2.2,0l1.3-1.3
		c0.6,0.3,1.2,0.6,1.9,0.8v1.9c0,0.8,0.7,1.5,1.5,1.5h1.5c0.8,0,1.5-0.7,1.5-1.5v-1.9c0.6-0.2,1.2-0.4,1.8-0.7l1.3,1.3
		c0.6,0.6,1.6,0.6,2.2,0l1.1-1.1c0.6-0.6,0.6-1.6,0-2.2l-1.3-1.3c0.3-0.6,0.6-1.2,0.7-1.8H70c0.8,0,1.5-0.7,1.5-1.5v-1.5
		C71.5,238.4,70.8,237.7,70,237.7z M60,244.6c-2.5,0-4.6-2.1-4.6-4.6c0-2.5,2.1-4.6,4.6-4.6c2.5,0,4.6,2.1,4.6,4.6
		C64.6,242.5,62.5,244.6,60,244.6z"/>
	<g>
		<polygon fill="#0066CC" points="20.1,285.3 14,286 14.7,279.9 		"/>
		<path fill="#0066CC" d="M31.8,273.6l1.8-1.8c0.4-0.4,0.4-1.1,0-1.6l-3.9-3.9c-0.4-0.4-1.1-0.4-1.6,0l-1.8,1.8L31.8,273.6z"/>
		<polygon fill="#0066CC" points="30.3,273.6 21.3,282.6 20.1,281.4 29.1,272.4 27.6,270.9 18.6,279.9 17.4,278.7 26.4,269.7 
			25.6,268.9 15.5,279.1 20.9,284.5 31.1,274.4 		"/>
	</g>
	<g>
		<polygon fill="#FFFFFF" points="20.1,321.3 14,322 14.7,315.9 		"/>
		<path fill="#FFFFFF" d="M31.8,309.6l1.8-1.8c0.4-0.4,0.4-1.1,0-1.6l-3.9-3.9c-0.4-0.4-1.1-0.4-1.6,0l-1.8,1.8L31.8,309.6z"/>
		<polygon fill="#FFFFFF" points="30.3,309.6 21.3,318.6 20.1,317.4 29.1,308.4 27.6,306.9 18.6,315.9 17.4,314.7 26.4,305.7 
			25.6,304.9 15.5,315.1 20.9,320.5 31.1,310.4 		"/>
	</g>
	<g>
		<polygon fill="#999999" points="104.1,285.3 98,286 98.7,279.9 		"/>
		<path fill="#999999" d="M115.8,273.6l1.8-1.8c0.4-0.4,0.4-1.1,0-1.6l-3.9-3.9c-0.4-0.4-1.1-0.4-1.6,0l-1.8,1.8L115.8,273.6z"/>
		<polygon fill="#999999" points="114.3,273.6 105.3,282.6 104.1,281.4 113.1,272.4 111.6,270.9 102.6,279.9 101.4,278.7 
			110.4,269.7 109.6,268.9 99.5,279.1 104.9,284.5 115.1,274.4 		"/>
	</g>
	<path fill="#B32300" d="M68.4,414.1h-3.9v-1.3v-0.6c0-2.6-1.3-2.6-2.6-2.6c-1.3,0-1.3,0-3.9,0s-2.6,1.3-2.6,2.6c0,0.4,0,0.6,0,0.6
		v1.3h-3.9c-0.6,0-1.1,0.5-1.1,1.1v1.1c0,0.6,0.5,1.1,1.1,1.1h0.5v13.2h15.8v-13.2h0.5c0.6,0,1.1-0.5,1.1-1.1v-1.1
		C69.5,414.5,69,414.1,68.4,414.1z M58.1,412.2h3.9v1.9h-3.9V412.2z M56.3,428.3h-2.1v-11.1h2.1V428.3z M61.1,428.3h-2.1v-11.1h2.1
		V428.3z M65.8,428.3h-2.1v-11.1h2.1V428.3z"/>
	<path fill="#979797" d="M32.4,414.1h-3.9v-1.3v-0.6c0-2.6-1.3-2.6-2.6-2.6c-1.3,0-1.3,0-3.9,0s-2.6,1.3-2.6,2.6c0,0.4,0,0.6,0,0.6
		v1.3h-3.9c-0.6,0-1.1,0.5-1.1,1.1v1.1c0,0.6,0.5,1.1,1.1,1.1h0.5v13.2h15.8v-13.2h0.5c0.6,0,1.1-0.5,1.1-1.1v-1.1
		C33.5,414.5,33,414.1,32.4,414.1z M22.1,412.2h3.9v1.9h-3.9V412.2z M20.3,428.3h-2.1v-11.1h2.1V428.3z M25.1,428.3h-2.1v-11.1h2.1
		V428.3z M29.8,428.3h-2.1v-11.1h2.1V428.3z"/>
	<g>
		<path fill="#FFFFFF" d="M22.2,394.5v-8.7h-8.7v-3.6h8.7v-8.6h3.7v8.6h8.7v3.6h-8.7v8.7H22.2z"/>
	</g>
	<g>
		<path fill="#0066CC" d="M22.2,358.5v-8.7h-8.7v-3.6h8.7v-8.6h3.7v8.6h8.7v3.6h-8.7v8.7H22.2z"/>
	</g>
	<g>
		<path fill="#999999" d="M106.2,358.5v-8.7h-8.7v-3.6h8.7v-8.6h3.7v8.6h8.7v3.6h-8.7v8.7H106.2z"/>
	</g>
	<g>
		<polygon fill="#3A66C7" points="23.7,450.5 21.3,450.5 21.3,453.3 18.5,453.3 18.5,455.7 21.3,455.7 21.3,458.5 23.7,458.5 
			23.7,455.7 26.5,455.7 26.5,453.3 23.7,453.3 		"/>
		<path fill="#3A66C7" d="M30.1,459.6c1-1.5,1.6-3.3,1.6-5.2c0-5.1-4.2-9.3-9.3-9.3c-5.1,0-9.3,4.2-9.3,9.3c0,5.1,4.2,9.3,9.3,9.3
			c2,0,3.8-0.6,5.4-1.7l4.8,4.8l2.4-2.4L30.1,459.6z M22.4,461.4c-3.8,0-6.9-3.1-6.9-6.9c0-3.8,3.1-6.9,6.9-6.9c3.8,0,7,3.1,7,6.9
			C29.3,458.3,26.2,461.4,22.4,461.4z"/>
	</g>
	<g>
		<polygon fill="#999999" points="107.7,450.5 105.3,450.5 105.3,453.3 102.5,453.3 102.5,455.7 105.3,455.7 105.3,458.5 
			107.7,458.5 107.7,455.7 110.5,455.7 110.5,453.3 107.7,453.3 		"/>
		<path fill="#999999" d="M114.1,459.6c1-1.5,1.6-3.3,1.6-5.2c0-5.1-4.2-9.3-9.3-9.3c-5.1,0-9.3,4.2-9.3,9.3c0,5.1,4.2,9.3,9.3,9.3
			c2,0,3.8-0.6,5.4-1.7l4.8,4.8l2.4-2.4L114.1,459.6z M106.4,461.4c-3.8,0-6.9-3.1-6.9-6.9c0-3.8,3.1-6.9,6.9-6.9c3.8,0,7,3.1,7,6.9
			C113.3,458.3,110.2,461.4,106.4,461.4z"/>
	</g>
	<g>
		<rect x="18.4" y="489" fill="#3A66C7" width="8" height="2.9"/>
		<path fill="#3A66C7" d="M35,500.5l-4.9-4.9c1-1.5,1.6-3.3,1.6-5.2c0-5.1-4.2-9.3-9.3-9.3c-5.1,0-9.3,4.2-9.3,9.3
			c0,5.1,4.2,9.3,9.3,9.3c2,0,3.8-0.6,5.4-1.7l4.8,4.8L35,500.5z M15.4,490.4c0-3.8,3.1-6.9,6.9-6.9c3.8,0,7,3.1,7,6.9
			c0,3.8-3.1,6.9-7,6.9C18.5,497.4,15.4,494.3,15.4,490.4z"/>
	</g>
	<g>
		<rect x="102.4" y="489" fill="#999999" width="8" height="2.9"/>
		<path fill="#999999" d="M119,500.5l-4.9-4.9c1-1.5,1.6-3.3,1.6-5.2c0-5.1-4.2-9.3-9.3-9.3c-5.1,0-9.3,4.2-9.3,9.3
			c0,5.1,4.2,9.3,9.3,9.3c2,0,3.8-0.6,5.4-1.7l4.8,4.8L119,500.5z M99.4,490.4c0-3.8,3.1-6.9,6.9-6.9c3.8,0,7,3.1,7,6.9
			c0,3.8-3.1,6.9-7,6.9C102.5,497.4,99.4,494.3,99.4,490.4z"/>
	</g>
</g>
<g id="Labels" display="none">
	<rect x="12" y="516" display="inline" fill="none" width="24" height="24"/>
	<rect x="12" y="660" display="inline" fill="none" width="24" height="24"/>
	<rect x="12" y="588" display="inline" fill="none" width="24" height="24"/>
	<rect x="12" y="624" display="inline" fill="none" width="24" height="24"/>
	<rect x="12" y="552" display="inline" fill="none" width="24" height="24"/>
	<rect x="12" y="12" display="inline" fill="none" width="24" height="24"/>
	<rect x="12" y="48" display="inline" fill="none" width="24" height="24"/>
	<rect x="12" y="84" display="inline" fill="none" width="24" height="24"/>
	<rect x="12" y="120" display="inline" fill="none" width="24" height="24"/>
	<rect x="12" y="156" display="inline" fill="none" width="24" height="24"/>
	<rect x="48" y="156" display="inline" fill="none" width="24" height="24"/>
	<rect x="12" y="192" display="inline" fill="none" width="24" height="24"/>
	<rect x="12" y="228" display="inline" fill="none" width="24" height="24"/>
	<rect x="12" y="264" display="inline" fill="none" width="24" height="24"/>
	<rect x="96" y="264" display="inline" fill="none" width="24" height="24"/>
	<rect x="12" y="408" display="inline" fill="none" width="24" height="24"/>
	<rect x="96" y="408" display="inline" fill="none" width="24" height="24"/>
	<rect x="48" y="408" display="inline" fill="none" width="24" height="24"/>
	<rect x="12" y="444" display="inline" fill="none" width="24" height="24"/>
	<rect x="96" y="444" display="inline" fill="none" width="24" height="24"/>
	<rect x="48" y="444" display="inline" fill="none" width="24" height="24"/>
	<rect x="12" y="480" display="inline" fill="none" width="24" height="24"/>
	<rect x="96" y="480" display="inline" fill="none" width="24" height="24"/>
	<rect x="48" y="480" display="inline" fill="none" width="24" height="24"/>
	<rect x="12" y="372" display="inline" fill="none" width="24" height="24"/>
	<rect x="96" y="372" display="inline" fill="none" width="24" height="24"/>
	<rect x="48" y="372" display="inline" fill="none" width="24" height="24"/>
	<rect x="12" y="336" display="inline" fill="none" width="24" height="24"/>
	<rect x="96" y="336" display="inline" fill="none" width="24" height="24"/>
	<rect x="48" y="336" display="inline" fill="none" width="24" height="24"/>
	<rect x="48" y="264" display="inline" fill="none" width="24" height="24"/>
	<rect x="12" y="300" display="inline" fill="none" width="24" height="24"/>
	<rect x="96" y="300" display="inline" fill="none" width="24" height="24"/>
	<rect x="48" y="300" display="inline" fill="none" width="24" height="24"/>
	<rect x="48" y="12" display="inline" fill="none" width="24" height="24"/>
	<rect x="48" y="48" display="inline" fill="none" width="24" height="24"/>
	<rect x="48" y="84" display="inline" fill="none" width="24" height="24"/>
	<rect x="48" y="120" display="inline" fill="none" width="24" height="24"/>
	<rect x="48" y="156" display="inline" fill="none" width="24" height="24"/>
	<rect x="48" y="192" display="inline" fill="none" width="24" height="24"/>
	<rect x="48" y="228" display="inline" fill="none" width="24" height="24"/>
</g>
</svg>
