<?xml version="1.0" encoding="utf-8"?>
<!-- Generator: Adobe Illustrator 16.0.0, SVG Export Plug-In . SVG Version: 6.00 Build 0)  -->
<!DOCTYPE svg PUBLIC "-//W3C//DTD SVG 1.1//EN" "http://www.w3.org/Graphics/SVG/1.1/DTD/svg11.dtd">
<svg version="1.1" xmlns="http://www.w3.org/2000/svg" xmlns:xlink="http://www.w3.org/1999/xlink" x="0px" y="0px" width="120px"
	 height="1048px" viewBox="0 0 120 1048" enable-background="new 0 0 120 1048" xml:space="preserve">
<g id="Background" display="none">
	<rect display="inline" opacity="0.5" fill="#BF7F32" width="120" height="1048"/>
</g>
<g id="Icons">
	<g>
		<rect x="12" y="523.7" fill="#0066CC" width="6" height="16.3"/>
		<rect x="21" y="516" fill="#0066CC" width="6" height="24"/>
		<rect x="30" y="528" fill="#0066CC" width="6" height="12"/>
	</g>
	<g>
		<rect x="12" y="660" fill="#0066CC" width="16.3" height="6"/>
		<rect x="12" y="669" fill="#0066CC" width="24" height="6"/>
		<rect x="12" y="678" fill="#0066CC" width="12" height="6"/>
	</g>
	<path fill="#0066CC" d="M24,624c-6.6,0-12,5.4-12,12s5.4,12,12,12s12-5.4,12-12S30.6,624,24,624z M24,636v-9.5
		c5.8,0,9.5,3.7,9.5,9.5H24z"/>
	<g>
		<polygon fill="#0066CC" points="33.4,601.4 28.9,607.9 19.7,599.6 12,607.5 12,612 36,612 36,603.2 		"/>
		<polygon fill="#0066CC" points="19.6,596.8 28.6,604.9 32.9,598.6 36,600.8 36,594.5 32,590.6 28,595.5 20.4,588 12,595.8 
			12,604.6 		"/>
	</g>
	<g>
		<polygon fill="none" points="25.6,571.5 30.9,565.3 21.2,556.3 12,564.4 12,568.6 19.9,563.6 		"/>
		<polygon fill="#0066CC" points="30.9,565.3 32.2,563.7 21.2,553.6 12,561.7 12,564.4 21.2,556.3 		"/>
		<polygon fill="#0066CC" points="33.7,565.1 32.4,566.6 36,569.9 36,567.2 		"/>
		<polygon fill="#0066CC" points="25.4,574.7 32.4,566.6 30.9,565.3 25.6,571.5 19.9,563.6 12,568.6 12,571 19.4,566.3 		"/>
		<polygon fill="#0066CC" points="33.7,565.1 36,562.5 36,559.4 32.2,563.7 		"/>
		<polygon fill="#0066CC" points="30.9,565.3 32.4,566.6 33.7,565.1 32.2,563.7 		"/>
	</g>
	<g>
		<polygon fill="#FFFFFF" points="24,13.6 12,23.5 13.5,25.3 24,16.7 34.5,25.3 36,23.5 		"/>
		<path fill="#FFFFFF" d="M24,17.9l-8.7,7.2v4.2v1.6v1v1.9v0.6h0.6h3.4h0.5h1.7v-4.7v0v-1.6c0-0.6,0-1.2,0-1.9c0.6,0,1.1,0,1.7,0
			h3.5v8.2h2.2v0h3.9v-0.6v-1.9v-1V30v-4.9L24,17.9z"/>
	</g>
	<path fill="#FFFFFF" d="M35,86.3v-0.2H13v0.2V88v16v1.8v0.2h22v-0.2h0v-5.8v-1.8V94v-1.8L35,86.3L35,86.3z M20.1,88v4.2h-5.2V88
		H20.1z M14.9,94h5.2v4.1h-5.2V94z M14.9,99.9h5.2v4.1h-5.2V99.9z M33.1,104H21.9v-4.1h11.1V104z M33.1,98.1H21.9V94h11.1V98.1z
		 M21.9,92.2V88h11.1v4.2H21.9z"/>
	<g>
		<path fill="#FFFFFF" d="M30.2,49H17.8l-4.1,11v11h20.6V60L30.2,49z M26.1,66.9h-4.1v-1.4h4.1V66.9z M31.6,64.1h-1.4v-1.4h1.4V64.1
			z M27.3,60c-0.3,1.2-1.4,2.1-2.7,2.1h-1.4c-1.3,0-2.3-0.9-2.7-2.1h-4.9l3.4-9.6h9.6l3.4,9.6H27.3z"/>
		<polygon fill="#FFFFFF" points="28.1,51.3 19.9,51.3 19.4,52.8 28.6,52.8 		"/>
		<polygon fill="#FFFFFF" points="18.7,55.4 29.3,55.4 28.9,54.1 19.1,54.1 		"/>
		<path fill="#FFFFFF" d="M18.3,56.7l-0.5,1.6h2.9h1.3V59c0,0.3,0.1,0.5,0.2,0.7c0.2,0.4,0.7,0.6,1.2,0.6h1.4c0.5,0,0.9-0.3,1.2-0.6
			c0.1-0.2,0.2-0.5,0.2-0.7v-0.6h1.3h2.9l0,0l0,0l-0.5-1.6H18.3z"/>
	</g>
	<path fill="#FFFFFF" d="M24,120.5c-6.4,0-11.5,5.1-11.5,11.5s5.1,11.5,11.5,11.5s11.5-5.1,11.5-11.5S30.4,120.5,24,120.5z M24,132
		v-9.1c5.6,0,9.1,3.5,9.1,9.1H24z"/>
	<g>
		<rect x="29.5" y="173.5" fill="#FFFFFF" width="5.5" height="5.5"/>
		<rect x="21.3" y="173.5" fill="#FFFFFF" width="5.5" height="5.5"/>
		<rect x="13" y="173.5" fill="#FFFFFF" width="5.5" height="5.5"/>
		<rect x="13" y="157" fill="#FFFFFF" width="5.5" height="5.5"/>
		<rect x="21.3" y="157" fill="#FFFFFF" width="5.5" height="5.5"/>
		<rect x="29.5" y="157" fill="#FFFFFF" width="5.5" height="5.5"/>
		<rect x="21.3" y="165.3" fill="#FFFFFF" width="5.5" height="5.5"/>
		<rect x="13" y="165.3" fill="#FFFFFF" width="5.5" height="5.5"/>
		<rect x="29.5" y="165.3" fill="#FFFFFF" width="5.5" height="5.5"/>
	</g>
	<g>
		<rect x="65.5" y="173.5" fill="#232831" width="5.5" height="5.5"/>
		<rect x="57.3" y="173.5" fill="#232831" width="5.5" height="5.5"/>
		<rect x="49" y="173.5" fill="#232831" width="5.5" height="5.5"/>
		<rect x="49" y="157" fill="#232831" width="5.5" height="5.5"/>
		<rect x="57.3" y="157" fill="#232831" width="5.5" height="5.5"/>
		<rect x="65.5" y="157" fill="#232831" width="5.5" height="5.5"/>
		<rect x="57.3" y="165.3" fill="#232831" width="5.5" height="5.5"/>
		<rect x="49" y="165.3" fill="#232831" width="5.5" height="5.5"/>
		<rect x="65.5" y="165.3" fill="#232831" width="5.5" height="5.5"/>
	</g>
	<g>
		<path fill="#FFFFFF" d="M33.6,210.4H14.4c-0.4,0-0.8,0.4-0.8,0.8c0,0.4,0.4,0.8,0.8,0.8H20l-1.6,4h2.4l1.6-4h3.2l1.6,4h2.4l-1.6-4
			h5.6c0.4,0,0.8-0.4,0.8-0.8C34.4,210.8,34,210.4,33.6,210.4z"/>
		<path fill="#FFFFFF" d="M32.4,194.3H15.6c-0.9,0-1.6,0.7-1.6,1.6v12c0,0.9,0.7,1.6,1.6,1.6h16.8c0.9,0,1.6-0.7,1.6-1.6v-12
			C34,195,33.3,194.3,32.4,194.3z M31.7,202.5l-1.6-1.6l-4.3,4.3l-1.1,1.2l-3.6-3.6l-4.4,4.4l-1.1-1.1l5.5-5.5l1.1,1.1l2.4,2.4
			l4.3-4.3l-1.8-1.8l5.1-0.6L31.7,202.5z"/>
		<polygon fill="#FFFFFF" points="24.8,192 23.2,192 21.6,192 21.6,193.6 26.4,193.6 26.4,192 		"/>
	</g>
	<path fill="#FFFFFF" d="M34,237.7h-1.9c-0.2-0.7-0.4-1.3-0.8-1.9l1.3-1.3c0.6-0.6,0.6-1.6,0-2.2l-1.1-1.1c-0.6-0.6-1.6-0.6-2.2,0
		l-1.4,1.4c-0.5-0.3-1.1-0.5-1.7-0.7V230c0-0.8-0.7-1.5-1.5-1.5h-1.5c-0.8,0-1.5,0.7-1.5,1.5v1.9c-0.6,0.2-1.2,0.4-1.8,0.7l-1.4-1.4
		c-0.6-0.6-1.6-0.6-2.2,0l-1.1,1.1c-0.6,0.6-0.6,1.6,0,2.2l1.4,1.4c-0.3,0.6-0.6,1.2-0.7,1.8H14c-0.8,0-1.5,0.7-1.5,1.5v1.5
		c0,0.8,0.7,1.5,1.5,1.5h1.9c0.2,0.6,0.4,1.2,0.7,1.7l-1.4,1.4c-0.6,0.6-0.6,1.6,0,2.2l1.1,1.1c0.6,0.6,1.6,0.6,2.2,0l1.3-1.3
		c0.6,0.3,1.2,0.6,1.9,0.8v1.9c0,0.8,0.7,1.5,1.5,1.5h1.5c0.8,0,1.5-0.7,1.5-1.5v-1.9c0.6-0.2,1.2-0.4,1.8-0.7l1.3,1.3
		c0.6,0.6,1.6,0.6,2.2,0l1.1-1.1c0.6-0.6,0.6-1.6,0-2.2l-1.3-1.3c0.3-0.6,0.6-1.2,0.7-1.8H34c0.8,0,1.5-0.7,1.5-1.5v-1.5
		C35.5,238.4,34.8,237.7,34,237.7z M24,244.6c-2.5,0-4.6-2.1-4.6-4.6c0-2.5,2.1-4.6,4.6-4.6c2.5,0,4.6,2.1,4.6,4.6
		C28.6,242.5,26.5,244.6,24,244.6z"/>
	<g>
		<polygon fill="#232831" points="60,13.6 48,23.5 49.5,25.3 60,16.7 70.5,25.3 72,23.5 		"/>
		<path fill="#232831" d="M60,17.9l-8.7,7.2v4.2v1.6v1v1.9v0.6h0.6h3.4h0.5h1.7v-4.7v0v-1.6c0-0.6,0-1.2,0-1.9c0.6,0,1.1,0,1.7,0
			h3.5v8.2h2.2v0h3.9v-0.6v-1.9v-1V30v-4.9L60,17.9z"/>
	</g>
	<path fill="#232831" d="M71,86.3v-0.2H49v0.2V88v16v1.8v0.2h22v-0.2h0v-5.8v-1.8V94v-1.8L71,86.3L71,86.3z M56.1,88v4.2h-5.2V88
		H56.1z M50.9,94h5.2v4.1h-5.2V94z M50.9,99.9h5.2v4.1h-5.2V99.9z M69.1,104H57.9v-4.1h11.1V104z M69.1,98.1H57.9V94h11.1V98.1z
		 M57.9,92.2V88h11.1v4.2H57.9z"/>
	<g>
		<path fill="#232831" d="M66.2,49H53.8l-4.1,11v11h20.6V60L66.2,49z M62.1,66.9h-4.1v-1.4h4.1V66.9z M67.6,64.1h-1.4v-1.4h1.4V64.1
			z M63.3,60c-0.3,1.2-1.4,2.1-2.7,2.1h-1.4c-1.3,0-2.3-0.9-2.7-2.1h-4.9l3.4-9.6h9.6l3.4,9.6H63.3z"/>
		<polygon fill="#232831" points="64.1,51.3 55.9,51.3 55.4,52.8 64.6,52.8 		"/>
		<polygon fill="#232831" points="54.7,55.4 65.3,55.4 64.9,54.1 55.1,54.1 		"/>
		<path fill="#232831" d="M54.3,56.7l-0.5,1.6h2.9h1.3V59c0,0.3,0.1,0.5,0.2,0.7c0.2,0.4,0.7,0.6,1.2,0.6h1.4c0.5,0,0.9-0.3,1.2-0.6
			c0.1-0.2,0.2-0.5,0.2-0.7v-0.6h1.3h2.9l0,0l0,0l-0.5-1.6H54.3z"/>
	</g>
	<path fill="#232831" d="M60,120.5c-6.4,0-11.5,5.1-11.5,11.5s5.1,11.5,11.5,11.5s11.5-5.1,11.5-11.5S66.4,120.5,60,120.5z M60,132
		v-9.1c5.6,0,9.1,3.5,9.1,9.1H60z"/>
	<g>
		<path fill="#232831" d="M69.6,210.4H50.4c-0.4,0-0.8,0.4-0.8,0.8c0,0.4,0.4,0.8,0.8,0.8H56l-1.6,4h2.4l1.6-4h3.2l1.6,4h2.4l-1.6-4
			h5.6c0.4,0,0.8-0.4,0.8-0.8C70.4,210.8,70,210.4,69.6,210.4z"/>
		<path fill="#232831" d="M68.4,194.3H51.6c-0.9,0-1.6,0.7-1.6,1.6v12c0,0.9,0.7,1.6,1.6,1.6h16.8c0.9,0,1.6-0.7,1.6-1.6v-12
			C70,195,69.3,194.3,68.4,194.3z M67.7,202.5l-1.6-1.6l-4.3,4.3l-1.1,1.2l-3.6-3.6l-4.4,4.4l-1.1-1.1l5.5-5.5l1.1,1.1l2.4,2.4
			l4.3-4.3l-1.8-1.8l5.1-0.6L67.7,202.5z"/>
		<polygon fill="#232831" points="60.8,192 59.2,192 57.6,192 57.6,193.6 62.4,193.6 62.4,192 		"/>
	</g>
	<path fill="#232831" d="M70,237.7h-1.9c-0.2-0.7-0.4-1.3-0.8-1.9l1.3-1.3c0.6-0.6,0.6-1.6,0-2.2l-1.1-1.1c-0.6-0.6-1.6-0.6-2.2,0
		l-1.4,1.4c-0.5-0.3-1.1-0.5-1.7-0.7V230c0-0.8-0.7-1.5-1.5-1.5h-1.5c-0.8,0-1.5,0.7-1.5,1.5v1.9c-0.6,0.2-1.2,0.4-1.8,0.7l-1.4-1.4
		c-0.6-0.6-1.6-0.6-2.2,0l-1.1,1.1c-0.6,0.6-0.6,1.6,0,2.2l1.4,1.4c-0.3,0.6-0.6,1.2-0.7,1.8H50c-0.8,0-1.5,0.7-1.5,1.5v1.5
		c0,0.8,0.7,1.5,1.5,1.5h1.9c0.2,0.6,0.4,1.2,0.7,1.7l-1.4,1.4c-0.6,0.6-0.6,1.6,0,2.2l1.1,1.1c0.6,0.6,1.6,0.6,2.2,0l1.3-1.3
		c0.6,0.3,1.2,0.6,1.9,0.8v1.9c0,0.8,0.7,1.5,1.5,1.5h1.5c0.8,0,1.5-0.7,1.5-1.5v-1.9c0.6-0.2,1.2-0.4,1.8-0.7l1.3,1.3
		c0.6,0.6,1.6,0.6,2.2,0l1.1-1.1c0.6-0.6,0.6-1.6,0-2.2l-1.3-1.3c0.3-0.6,0.6-1.2,0.7-1.8H70c0.8,0,1.5-0.7,1.5-1.5v-1.5
		C71.5,238.4,70.8,237.7,70,237.7z M60,244.6c-2.5,0-4.6-2.1-4.6-4.6c0-2.5,2.1-4.6,4.6-4.6c2.5,0,4.6,2.1,4.6,4.6
		C64.6,242.5,62.5,244.6,60,244.6z"/>
	<g>
		<polygon fill="#0066CC" points="20.1,285.3 14,286 14.7,279.9 		"/>
		<path fill="#0066CC" d="M31.8,273.6l1.8-1.8c0.4-0.4,0.4-1.1,0-1.6l-3.9-3.9c-0.4-0.4-1.1-0.4-1.6,0l-1.8,1.8L31.8,273.6z"/>
		<polygon fill="#0066CC" points="30.3,273.6 21.3,282.6 20.1,281.4 29.1,272.4 27.6,270.9 18.6,279.9 17.4,278.7 26.4,269.7 
			25.6,268.9 15.5,279.1 20.9,284.5 31.1,274.4 		"/>
	</g>
	<g>
		<polygon fill="#0066FF" points="56.1,285.3 50,286 50.7,279.9 		"/>
		<path fill="#0066FF" d="M67.8,273.6l1.8-1.8c0.4-0.4,0.4-1.1,0-1.6l-3.9-3.9c-0.4-0.4-1.1-0.4-1.6,0l-1.8,1.8L67.8,273.6z"/>
		<polygon fill="#0066FF" points="66.3,273.6 57.3,282.6 56.1,281.4 65.1,272.4 63.6,270.9 54.6,279.9 53.4,278.7 62.4,269.7 
			61.6,268.9 51.5,279.1 56.9,284.5 67.1,274.4 		"/>
	</g>
	<g>
		<polygon fill="#FFFFFF" points="20.1,321.3 14,322 14.7,315.9 		"/>
		<path fill="#FFFFFF" d="M31.8,309.6l1.8-1.8c0.4-0.4,0.4-1.1,0-1.6l-3.9-3.9c-0.4-0.4-1.1-0.4-1.6,0l-1.8,1.8L31.8,309.6z"/>
		<polygon fill="#FFFFFF" points="30.3,309.6 21.3,318.6 20.1,317.4 29.1,308.4 27.6,306.9 18.6,315.9 17.4,314.7 26.4,305.7 
			25.6,304.9 15.5,315.1 20.9,320.5 31.1,310.4 		"/>
	</g>
	<g>
		<polygon fill="#999999" points="92.1,285.3 86,286 86.7,279.9 		"/>
		<path fill="#999999" d="M103.8,273.6l1.8-1.8c0.4-0.4,0.4-1.1,0-1.6l-3.9-3.9c-0.4-0.4-1.1-0.4-1.6,0l-1.8,1.8L103.8,273.6z"/>
		<polygon fill="#999999" points="102.3,273.6 93.3,282.6 92.1,281.4 101.1,272.4 99.6,270.9 90.6,279.9 89.4,278.7 98.4,269.7 
			97.6,268.9 87.5,279.1 92.9,284.5 103.1,274.4 		"/>
	</g>
	<path fill="#B32300" d="M68.4,414.1h-3.9v-1.3v-0.6c0-2.6-1.3-2.6-2.6-2.6c-1.3,0-1.3,0-3.9,0s-2.6,1.3-2.6,2.6c0,0.4,0,0.6,0,0.6
		v1.3h-3.9c-0.6,0-1.1,0.5-1.1,1.1v1.1c0,0.6,0.5,1.1,1.1,1.1h0.5v13.2h15.8v-13.2h0.5c0.6,0,1.1-0.5,1.1-1.1v-1.1
		C69.5,414.5,69,414.1,68.4,414.1z M58.1,412.2h3.9v1.9h-3.9V412.2z M56.3,428.3h-2.1v-11.1h2.1V428.3z M61.1,428.3h-2.1v-11.1h2.1
		V428.3z M65.8,428.3h-2.1v-11.1h2.1V428.3z"/>
	<path fill="#979797" d="M32.4,414.1h-3.9v-1.3v-0.6c0-2.6-1.3-2.6-2.6-2.6c-1.3,0-1.3,0-3.9,0s-2.6,1.3-2.6,2.6c0,0.4,0,0.6,0,0.6
		v1.3h-3.9c-0.6,0-1.1,0.5-1.1,1.1v1.1c0,0.6,0.5,1.1,1.1,1.1h0.5v13.2h15.8v-13.2h0.5c0.6,0,1.1-0.5,1.1-1.1v-1.1
		C33.5,414.5,33,414.1,32.4,414.1z M22.1,412.2h3.9v1.9h-3.9V412.2z M20.3,428.3h-2.1v-11.1h2.1V428.3z M25.1,428.3h-2.1v-11.1h2.1
		V428.3z M29.8,428.3h-2.1v-11.1h2.1V428.3z"/>
	<g>
		<path fill="#FFFFFF" d="M22.2,394.5v-8.7h-8.7v-3.6h8.7v-8.6h3.7v8.6h8.7v3.6h-8.7v8.7H22.2z"/>
	</g>
	<g>
		<path fill="#0066CC" d="M22.2,358.5v-8.7h-8.7v-3.6h8.7v-8.6h3.7v8.6h8.7v3.6h-8.7v8.7H22.2z"/>
	</g>
	<g>
		<path fill="#999999" d="M94.2,358.5v-8.7h-8.7v-3.6h8.7v-8.6h3.7v8.6h8.7v3.6h-8.7v8.7H94.2z"/>
	</g>
	<g>
		<polygon fill="#3A66C7" points="23.7,450.5 21.3,450.5 21.3,453.3 18.5,453.3 18.5,455.7 21.3,455.7 21.3,458.5 23.7,458.5 
			23.7,455.7 26.5,455.7 26.5,453.3 23.7,453.3 		"/>
		<path fill="#3A66C7" d="M30.1,459.6c1-1.5,1.6-3.3,1.6-5.2c0-5.1-4.2-9.3-9.3-9.3c-5.1,0-9.3,4.2-9.3,9.3c0,5.1,4.2,9.3,9.3,9.3
			c2,0,3.8-0.6,5.4-1.7l4.8,4.8l2.4-2.4L30.1,459.6z M22.4,461.4c-3.8,0-6.9-3.1-6.9-6.9c0-3.8,3.1-6.9,6.9-6.9c3.8,0,7,3.1,7,6.9
			C29.3,458.3,26.2,461.4,22.4,461.4z"/>
	</g>
	<g>
		<polygon fill="#999999" points="95.7,450.5 93.3,450.5 93.3,453.3 90.5,453.3 90.5,455.7 93.3,455.7 93.3,458.5 95.7,458.5 
			95.7,455.7 98.5,455.7 98.5,453.3 95.7,453.3 		"/>
		<path fill="#999999" d="M102.1,459.6c1-1.5,1.6-3.3,1.6-5.2c0-5.1-4.2-9.3-9.3-9.3c-5.1,0-9.3,4.2-9.3,9.3c0,5.1,4.2,9.3,9.3,9.3
			c2,0,3.8-0.6,5.4-1.7l4.8,4.8l2.4-2.4L102.1,459.6z M94.4,461.4c-3.8,0-6.9-3.1-6.9-6.9c0-3.8,3.1-6.9,6.9-6.9c3.8,0,7,3.1,7,6.9
			C101.3,458.3,98.2,461.4,94.4,461.4z"/>
	</g>
	<g>
		<rect x="18.4" y="489" fill="#3A66C7" width="8" height="2.9"/>
		<path fill="#3A66C7" d="M35,500.5l-4.9-4.9c1-1.5,1.6-3.3,1.6-5.2c0-5.1-4.2-9.3-9.3-9.3c-5.1,0-9.3,4.2-9.3,9.3
			c0,5.1,4.2,9.3,9.3,9.3c2,0,3.8-0.6,5.4-1.7l4.8,4.8L35,500.5z M15.4,490.4c0-3.8,3.1-6.9,6.9-6.9c3.8,0,7,3.1,7,6.9
			c0,3.8-3.1,6.9-7,6.9C18.5,497.4,15.4,494.3,15.4,490.4z"/>
	</g>
	<g>
		<rect x="90.4" y="489" fill="#999999" width="8" height="2.9"/>
		<path fill="#999999" d="M107,500.5l-4.9-4.9c1-1.5,1.6-3.3,1.6-5.2c0-5.1-4.2-9.3-9.3-9.3c-5.1,0-9.3,4.2-9.3,9.3
			c0,5.1,4.2,9.3,9.3,9.3c2,0,3.8-0.6,5.4-1.7l4.8,4.8L107,500.5z M87.4,490.4c0-3.8,3.1-6.9,6.9-6.9c3.8,0,7,3.1,7,6.9
			c0,3.8-3.1,6.9-7,6.9C90.5,497.4,87.4,494.3,87.4,490.4z"/>
	</g>
	<g>
		<polygon fill="#0066CC" points="33,717 15,717 15,699 24,699 24,696 15,696 12,696 12,696 12,717 12,720 15,720 33,720 36,720 
			36,717 36,708 33,708 		"/>
		<polygon fill="#0066CC" points="20.3,709.6 22.4,711.7 32,702.1 30.1,700.2 32.1,702.2 35,705.1 36,696 27,697.1 29.9,700 		"/>
	</g>
	<g>
		<polygon fill="#0066FF" points="69,717 51,717 51,699 60,699 60,696 51,696 48,696 48,696 48,717 48,720 51,720 69,720 72,720 
			72,717 72,708 69,708 		"/>
		<polygon fill="#0066FF" points="56.3,709.6 58.4,711.7 68,702.1 66.1,700.2 68.1,702.2 71,705.1 72,696 63,697.1 65.9,700 		"/>
	</g>
	<g>
		<circle fill="#0066CC" cx="15" cy="744" r="2.8"/>
		<circle fill="#0066CC" cx="24" cy="744" r="2.8"/>
		<circle fill="#0066CC" cx="33" cy="744" r="2.8"/>
	</g>
	<g>
		<circle fill="#0066FF" cx="51" cy="744" r="2.8"/>
		<circle fill="#0066FF" cx="60" cy="744" r="2.8"/>
		<circle fill="#0066FF" cx="69" cy="744" r="2.8"/>
	</g>
	<polygon fill="#FFFFFF" points="21,813.3 24,818.7 27,813.3 	"/>
	<polygon points="21,777.3 24,782.7 27,777.3 	"/>
	<polygon fill="#FFFFFF" points="27,890.7 24,885.3 21,890.7 	"/>
	<polygon points="27,854.7 24,849.3 21,854.7 	"/>
	<g>
		<rect x="48" y="523.7" fill="#0066FF" width="6" height="16.3"/>
		<rect x="57" y="516" fill="#0066FF" width="6" height="24"/>
		<rect x="66" y="528" fill="#0066FF" width="6" height="12"/>
	</g>
	<g>
		<rect x="48" y="660" fill="#0066FF" width="16.3" height="6"/>
		<rect x="48" y="669" fill="#0066FF" width="24" height="6"/>
		<rect x="48" y="678" fill="#0066FF" width="12" height="6"/>
	</g>
	<path fill="#0066FF" d="M60,624c-6.6,0-12,5.4-12,12s5.4,12,12,12s12-5.4,12-12S66.6,624,60,624z M60,636v-9.5
		c5.8,0,9.5,3.7,9.5,9.5H60z"/>
	<g>
		<polygon fill="#0066FF" points="69.4,601.4 64.9,607.9 55.7,599.6 48,607.5 48,612 72,612 72,603.2 		"/>
		<polygon fill="#0066FF" points="55.6,596.8 64.6,604.9 68.9,598.6 72,600.8 72,594.5 68,590.6 64,595.5 56.4,588 48,595.8 
			48,604.6 		"/>
	</g>
	<g>
		<polygon fill="none" points="61.6,571.5 66.9,565.3 57.2,556.3 48,564.4 48,568.6 55.9,563.6 		"/>
		<polygon fill="#0066FF" points="66.9,565.3 68.2,563.7 57.2,553.6 48,561.7 48,564.4 57.2,556.3 		"/>
		<polygon fill="#0066FF" points="69.7,565.1 68.4,566.6 72,569.9 72,567.2 		"/>
		<polygon fill="#0066FF" points="61.4,574.7 68.4,566.6 66.9,565.3 61.6,571.5 55.9,563.6 48,568.6 48,571 55.4,566.3 		"/>
		<polygon fill="#0066FF" points="69.7,565.1 72,562.5 72,559.4 68.2,563.7 		"/>
		<polygon fill="#0066FF" points="66.9,565.3 68.4,566.6 69.7,565.1 68.2,563.7 		"/>
	</g>
	<g>
		<rect x="84" y="523.7" fill="#999999" width="6" height="16.3"/>
		<rect x="93" y="516" fill="#999999" width="6" height="24"/>
		<rect x="102" y="528" fill="#999999" width="6" height="12"/>
	</g>
	<g>
		<rect x="84" y="660" fill="#999999" width="16.3" height="6"/>
		<rect x="84" y="669" fill="#999999" width="24" height="6"/>
		<rect x="84" y="678" fill="#999999" width="12" height="6"/>
	</g>
	<path fill="#999999" d="M96,624c-6.6,0-12,5.4-12,12s5.4,12,12,12s12-5.4,12-12S102.6,624,96,624z M96,636v-9.5
		c5.8,0,9.5,3.7,9.5,9.5H96z"/>
	<g>
		<polygon fill="#999999" points="105.4,601.4 100.9,607.9 91.7,599.6 84,607.5 84,612 108,612 108,603.2 		"/>
		<polygon fill="#999999" points="91.6,596.8 100.6,604.9 104.9,598.6 108,600.8 108,594.5 104,590.6 100,595.5 92.4,588 84,595.8 
			84,604.6 		"/>
	</g>
	<g>
		<polygon fill="none" points="97.6,571.5 102.9,565.3 93.2,556.3 84,564.4 84,568.6 91.9,563.6 		"/>
		<polygon fill="#999999" points="102.9,565.3 104.2,563.7 93.2,553.6 84,561.7 84,564.4 93.2,556.3 		"/>
		<polygon fill="#999999" points="105.7,565.1 104.4,566.6 108,569.9 108,567.2 		"/>
		<polygon fill="#999999" points="97.4,574.7 104.4,566.6 102.9,565.3 97.6,571.5 91.9,563.6 84,568.6 84,571 91.4,566.3 		"/>
		<polygon fill="#999999" points="105.7,565.1 108,562.5 108,559.4 104.2,563.7 		"/>
		<polygon fill="#999999" points="102.9,565.3 104.4,566.6 105.7,565.1 104.2,563.7 		"/>
	</g>
	<g>
		<polygon fill="#999999" points="95.7,450.5 93.3,450.5 93.3,453.3 90.5,453.3 90.5,455.7 93.3,455.7 93.3,458.5 95.7,458.5 
			95.7,455.7 98.5,455.7 98.5,453.3 95.7,453.3 		"/>
		<path fill="#999999" d="M102.1,459.6c1-1.5,1.6-3.3,1.6-5.2c0-5.1-4.2-9.3-9.3-9.3c-5.1,0-9.3,4.2-9.3,9.3c0,5.1,4.2,9.3,9.3,9.3
			c2,0,3.8-0.6,5.4-1.7l4.8,4.8l2.4-2.4L102.1,459.6z M94.4,461.4c-3.8,0-6.9-3.1-6.9-6.9c0-3.8,3.1-6.9,6.9-6.9c3.8,0,7,3.1,7,6.9
			C101.3,458.3,98.2,461.4,94.4,461.4z"/>
	</g>
	<g>
		<polygon fill="#0066FF" points="59.7,450.5 57.3,450.5 57.3,453.3 54.5,453.3 54.5,455.7 57.3,455.7 57.3,458.5 59.7,458.5 
			59.7,455.7 62.5,455.7 62.5,453.3 59.7,453.3 		"/>
		<path fill="#0066FF" d="M66.1,459.6c1-1.5,1.6-3.3,1.6-5.2c0-5.1-4.2-9.3-9.3-9.3c-5.1,0-9.3,4.2-9.3,9.3c0,5.1,4.2,9.3,9.3,9.3
			c2,0,3.8-0.6,5.4-1.7l4.8,4.8l2.4-2.4L66.1,459.6z M58.4,461.4c-3.8,0-6.9-3.1-6.9-6.9c0-3.8,3.1-6.9,6.9-6.9c3.8,0,7,3.1,7,6.9
			C65.3,458.3,62.2,461.4,58.4,461.4z"/>
	</g>
	<g>
		<rect x="54.4" y="489" fill="#0066FF" width="8" height="2.9"/>
		<path fill="#0066FF" d="M71,500.5l-4.9-4.9c1-1.5,1.6-3.3,1.6-5.2c0-5.1-4.2-9.3-9.3-9.3c-5.1,0-9.3,4.2-9.3,9.3
			c0,5.1,4.2,9.3,9.3,9.3c2,0,3.8-0.6,5.4-1.7l4.8,4.8L71,500.5z M51.4,490.4c0-3.8,3.1-6.9,6.9-6.9c3.8,0,7,3.1,7,6.9
			c0,3.8-3.1,6.9-7,6.9C54.5,497.4,51.4,494.3,51.4,490.4z"/>
	</g>
	<g>
		<rect x="90.4" y="489" fill="#999999" width="8" height="2.9"/>
		<path fill="#999999" d="M107,500.5l-4.9-4.9c1-1.5,1.6-3.3,1.6-5.2c0-5.1-4.2-9.3-9.3-9.3c-5.1,0-9.3,4.2-9.3,9.3
			c0,5.1,4.2,9.3,9.3,9.3c2,0,3.8-0.6,5.4-1.7l4.8,4.8L107,500.5z M87.4,490.4c0-3.8,3.1-6.9,6.9-6.9c3.8,0,7,3.1,7,6.9
			c0,3.8-3.1,6.9-7,6.9C90.5,497.4,87.4,494.3,87.4,490.4z"/>
	</g>
</g>
<g id="Labels" display="none">
	<rect x="12" y="516" display="inline" fill="none" width="24" height="24"/>
	<rect x="12" y="660" display="inline" fill="none" width="24" height="24"/>
	<rect x="48" y="660" display="inline" fill="none" width="24" height="24"/>
	<rect x="84" y="660" display="inline" fill="none" width="24" height="24"/>
	<rect x="12" y="732" display="inline" fill="none" width="24" height="24"/>
	<rect x="48" y="732" display="inline" fill="none" width="24" height="24"/>
	<rect x="84" y="732" display="inline" fill="none" width="24" height="24"/>
	<rect x="12" y="696" display="inline" fill="none" width="24" height="24"/>
	<rect x="84" y="696" display="inline" fill="none" width="24" height="24"/>
	<rect x="84" y="696" display="inline" fill="none" width="24" height="24"/>
	<rect x="12" y="588" display="inline" fill="none" width="24" height="24"/>
	<rect x="12" y="624" display="inline" fill="none" width="24" height="24"/>
	<rect x="12" y="552" display="inline" fill="none" width="24" height="24"/>
	<rect x="12" y="768" display="inline" fill="none" width="24" height="24"/>
	<rect x="48" y="768" display="inline" fill="none" width="24" height="24"/>
	<rect x="84" y="768" display="inline" fill="none" width="24" height="24"/>
	<rect x="12" y="804" display="inline" fill="none" width="24" height="24"/>
	<rect x="48" y="804" display="inline" fill="none" width="24" height="24"/>
	<rect x="84" y="804" display="inline" fill="none" width="24" height="24"/>
	<rect x="12" y="840" display="inline" fill="none" width="24" height="24"/>
	<rect x="48" y="840" display="inline" fill="none" width="24" height="24"/>
	<rect x="84" y="840" display="inline" fill="none" width="24" height="24"/>
	<rect x="12" y="876" display="inline" fill="none" width="24" height="24"/>
	<rect x="48" y="876" display="inline" fill="none" width="24" height="24"/>
	<rect x="84" y="876" display="inline" fill="none" width="24" height="24"/>
	<rect x="12" y="12" display="inline" fill="none" width="24" height="24"/>
	<rect x="12" y="48" display="inline" fill="none" width="24" height="24"/>
	<rect x="12" y="84" display="inline" fill="none" width="24" height="24"/>
	<rect x="12" y="120" display="inline" fill="none" width="24" height="24"/>
	<rect x="12" y="156" display="inline" fill="none" width="24" height="24"/>
	<rect x="48" y="156" display="inline" fill="none" width="24" height="24"/>
	<rect x="12" y="192" display="inline" fill="none" width="24" height="24"/>
	<rect x="12" y="228" display="inline" fill="none" width="24" height="24"/>
	<rect x="12" y="264" display="inline" fill="none" width="24" height="24"/>
	<rect x="48" y="264" display="inline" fill="none" width="24" height="24"/>
	<rect x="84" y="264" display="inline" fill="none" width="24" height="24"/>
	<rect x="84" y="228" display="inline" fill="none" width="24" height="24"/>
	<rect x="84" y="192" display="inline" fill="none" width="24" height="24"/>
	<rect x="84" y="156" display="inline" fill="none" width="24" height="24"/>
	<rect x="84" y="120" display="inline" fill="none" width="24" height="24"/>
	<rect x="84" y="84" display="inline" fill="none" width="24" height="24"/>
	<rect x="84" y="48" display="inline" fill="none" width="24" height="24"/>
	<rect x="84" y="12" display="inline" fill="none" width="24" height="24"/>
	<rect x="12" y="408" display="inline" fill="none" width="24" height="24"/>
	<rect x="84" y="408" display="inline" fill="none" width="24" height="24"/>
	<rect x="48" y="408" display="inline" fill="none" width="24" height="24"/>
	<rect x="12" y="444" display="inline" fill="none" width="24" height="24"/>
	<rect x="84" y="444" display="inline" fill="none" width="24" height="24"/>
	<rect x="48" y="444" display="inline" fill="none" width="24" height="24"/>
	<rect x="12" y="480" display="inline" fill="none" width="24" height="24"/>
	<rect x="84" y="480" display="inline" fill="none" width="24" height="24"/>
	<rect x="48" y="480" display="inline" fill="none" width="24" height="24"/>
	<rect x="48" y="516" display="inline" fill="none" width="24" height="24"/>
	<rect x="84" y="516" display="inline" fill="none" width="24" height="24"/>
	<rect x="48" y="552" display="inline" fill="none" width="24" height="24"/>
	<rect x="84" y="552" display="inline" fill="none" width="24" height="24"/>
	<rect x="48" y="588" display="inline" fill="none" width="24" height="24"/>
	<rect x="84" y="588" display="inline" fill="none" width="24" height="24"/>
	<rect x="48" y="624" display="inline" fill="none" width="24" height="24"/>
	<rect x="84" y="624" display="inline" fill="none" width="24" height="24"/>
	<rect x="12" y="372" display="inline" fill="none" width="24" height="24"/>
	<rect x="84" y="372" display="inline" fill="none" width="24" height="24"/>
	<rect x="48" y="372" display="inline" fill="none" width="24" height="24"/>
	<rect x="12" y="336" display="inline" fill="none" width="24" height="24"/>
	<rect x="84" y="336" display="inline" fill="none" width="24" height="24"/>
	<rect x="48" y="336" display="inline" fill="none" width="24" height="24"/>
	<rect x="48" y="264" display="inline" fill="none" width="24" height="24"/>
	<rect x="12" y="300" display="inline" fill="none" width="24" height="24"/>
	<rect x="84" y="300" display="inline" fill="none" width="24" height="24"/>
	<rect x="48" y="300" display="inline" fill="none" width="24" height="24"/>
	<rect x="48" y="12" display="inline" fill="none" width="24" height="24"/>
	<rect x="48" y="48" display="inline" fill="none" width="24" height="24"/>
	<rect x="48" y="84" display="inline" fill="none" width="24" height="24"/>
	<rect x="48" y="120" display="inline" fill="none" width="24" height="24"/>
	<rect x="48" y="156" display="inline" fill="none" width="24" height="24"/>
	<rect x="48" y="192" display="inline" fill="none" width="24" height="24"/>
	<rect x="48" y="228" display="inline" fill="none" width="24" height="24"/>
	<rect x="48" y="660" display="inline" fill="none" width="24" height="24"/>
	<rect x="84" y="660" display="inline" fill="none" width="24" height="24"/>
	<rect x="48" y="516" display="inline" fill="none" width="24" height="24"/>
	<rect x="48" y="660" display="inline" fill="none" width="24" height="24"/>
	<rect x="48" y="588" display="inline" fill="none" width="24" height="24"/>
	<rect x="48" y="624" display="inline" fill="none" width="24" height="24"/>
	<rect x="48" y="552" display="inline" fill="none" width="24" height="24"/>
	<rect x="84" y="444" display="inline" fill="none" width="24" height="24"/>
	<rect x="48" y="444" display="inline" fill="none" width="24" height="24"/>
	<rect x="48" y="444" display="inline" fill="none" width="24" height="24"/>
	<rect x="48" y="480" display="inline" fill="none" width="24" height="24"/>
	<rect x="84" y="480" display="inline" fill="none" width="24" height="24"/>
	<rect x="48" y="480" display="inline" fill="none" width="24" height="24"/>
	<rect x="48" y="516" display="inline" fill="none" width="24" height="24"/>
	<rect x="84" y="516" display="inline" fill="none" width="24" height="24"/>
	<rect x="48" y="552" display="inline" fill="none" width="24" height="24"/>
	<rect x="84" y="552" display="inline" fill="none" width="24" height="24"/>
	<rect x="48" y="588" display="inline" fill="none" width="24" height="24"/>
	<rect x="84" y="588" display="inline" fill="none" width="24" height="24"/>
	<rect x="48" y="624" display="inline" fill="none" width="24" height="24"/>
	<rect x="84" y="660" display="inline" fill="none" width="24" height="24"/>
	<rect x="84" y="516" display="inline" fill="none" width="24" height="24"/>
	<rect x="84" y="660" display="inline" fill="none" width="24" height="24"/>
	<rect x="84" y="588" display="inline" fill="none" width="24" height="24"/>
	<rect x="84" y="624" display="inline" fill="none" width="24" height="24"/>
	<rect x="84" y="552" display="inline" fill="none" width="24" height="24"/>
	<rect x="84" y="516" display="inline" fill="none" width="24" height="24"/>
	<rect x="84" y="552" display="inline" fill="none" width="24" height="24"/>
	<rect x="84" y="588" display="inline" fill="none" width="24" height="24"/>
	<rect x="84" y="624" display="inline" fill="none" width="24" height="24"/>
	<rect x="84" y="624" display="inline" fill="none" width="24" height="24"/>
</g>
</svg>
