<?xml version="1.0" encoding="utf-8"?>
<!-- Generator: Adobe Illustrator 16.0.0, SVG Export Plug-In . SVG Version: 6.00 Build 0)  -->
<!DOCTYPE svg PUBLIC "-//W3C//DTD SVG 1.1//EN" "http://www.w3.org/Graphics/SVG/1.1/DTD/svg11.dtd">
<svg version="1.1" id="Layer_1" xmlns="http://www.w3.org/2000/svg" xmlns:xlink="http://www.w3.org/1999/xlink" x="0px" y="0px"
	 width="200px" height="46px" viewBox="0 0 200 46" enable-background="new 0 0 200 46" xml:space="preserve">
<g id="Layer_2_1_">
	<g>
		<path fill="#8A8A78" d="M56.225,13.616c0-0.184,0.123-0.307,0.305-0.307h3.287c2.403,0,3.712,1.096,4.322,2.953
			c0.362,1.125,0.457,2.465,0.457,7.395c0,4.925-0.094,6.267-0.457,7.394c-0.61,1.855-1.918,2.951-4.322,2.951H56.53
			c-0.183,0-0.305-0.121-0.305-0.305V13.616z M57.292,33.182h2.403c1.946,0,3.043-0.793,3.559-2.375
			c0.335-1.033,0.46-2.404,0.46-7.15c0-4.75-0.125-6.117-0.46-7.152c-0.516-1.582-1.613-2.373-3.559-2.373h-2.403
			c-0.122,0-0.185,0.061-0.185,0.182v18.685C57.107,33.119,57.169,33.182,57.292,33.182"/>
		<path fill="#8A8A78" d="M75.633,13.616c0.062-0.184,0.153-0.307,0.335-0.307h0.336c0.184,0,0.305,0.123,0.334,0.307l4.229,20.082
			c0.029,0.184-0.121,0.305-0.304,0.305h-0.305c-0.184,0-0.273-0.121-0.305-0.305l-1.126-5.324h-5.447l-1.125,5.324
			c-0.031,0.184-0.121,0.305-0.303,0.305h-0.305c-0.184,0-0.336-0.121-0.305-0.305L75.633,13.616z M78.646,27.551l-2.495-11.867
			h-0.06l-2.527,11.867H78.646z"/>
		<path fill="#8A8A78" d="M89.627,34.002c-0.184,0-0.305-0.121-0.305-0.305V14.315c0-0.123-0.063-0.184-0.184-0.184h-3.863
			c-0.186,0-0.307-0.123-0.307-0.305v-0.211c0-0.184,0.121-0.307,0.307-0.307h8.977c0.182,0,0.305,0.123,0.305,0.307v0.211
			c0,0.182-0.123,0.305-0.305,0.305h-3.866c-0.12,0-0.181,0.061-0.181,0.182v19.384c0,0.182-0.121,0.305-0.306,0.305H89.627
			L89.627,34.002z"/>
		<path fill="#8A8A78" d="M103.262,13.616c0.064-0.184,0.153-0.307,0.336-0.307h0.335c0.181,0,0.305,0.123,0.336,0.307l4.228,20.082
			c0.03,0.184-0.121,0.305-0.305,0.305h-0.302c-0.185,0-0.274-0.121-0.306-0.305l-1.126-5.324h-5.446l-1.125,5.324
			c-0.031,0.184-0.121,0.305-0.305,0.305h-0.305c-0.184,0-0.334-0.121-0.305-0.305L103.262,13.616z M106.275,27.551l-2.494-11.867
			h-0.062l-2.527,11.867H106.275z"/>
		<path fill="#8A8A78" d="M114.953,13.616c0-0.184,0.123-0.307,0.305-0.307h0.275c0.18,0,0.301,0.123,0.301,0.307v19.382
			c0,0.121,0.061,0.184,0.184,0.184h5.691c0.182,0,0.306,0.121,0.306,0.303v0.213c0,0.182-0.124,0.305-0.306,0.305h-6.451
			c-0.182,0-0.305-0.123-0.305-0.305V13.616L114.953,13.616z"/>
	</g>
	<g>
		<path fill="#CBA44C" d="M22.612,10.075l-7.604,12.59C15.006,22.772,15,22.879,15,22.989c0,0.211,0.008,0.418,0.016,0.625
			l8.449-13.975C23.175,9.776,22.891,9.92,22.612,10.075z"/>
		<path fill="#E5E0AA" d="M17.024,30.445l17.34-21.478c-0.167-0.056-0.335-0.106-0.505-0.155L16.769,30
			C16.851,30.15,16.938,30.297,17.024,30.445z"/>
		<path fill="#9EAA99" d="M20.956,33.459c-0.112-0.104-0.203-0.227-0.275-0.359l-0.853,0.807c0.111,0.1,0.227,0.197,0.341,0.295
			L20.956,33.459z"/>
		<path fill="#9EAA99" d="M24.739,29.889c-0.115-0.104-0.208-0.227-0.282-0.357l-1.771,1.674c0.146,0.062,0.28,0.146,0.396,0.246
			L24.739,29.889z"/>
		<path fill="#9EAA99" d="M26.868,27.879L41.51,14.063c-0.096-0.127-0.193-0.25-0.292-0.373L26.471,27.627
			C26.617,27.691,26.752,27.775,26.868,27.879z"/>
		<path fill="#9EAA99" d="M22.04,31.068c-0.84,0-1.528,0.629-1.528,1.404c0,0.227,0.063,0.438,0.168,0.627l2.006-1.896
			C22.489,31.119,22.272,31.068,22.04,31.068z"/>
		<path fill="#9EAA99" d="M22.04,33.877c0.844,0,1.528-0.627,1.528-1.404c0-0.402-0.188-0.764-0.485-1.021l-2.127,2.008
			C21.233,33.717,21.616,33.877,22.04,33.877z"/>
		<path fill="#9EAA99" d="M23.083,31.451c-0.117-0.1-0.25-0.184-0.396-0.246L20.681,33.1c0.072,0.133,0.163,0.256,0.275,0.359
			L23.083,31.451z"/>
		<path fill="#9EAA99" d="M25.811,30.289c0.84,0,1.523-0.625,1.523-1.402c0-0.396-0.179-0.752-0.466-1.008l-2.129,2.01
			C25.016,30.137,25.394,30.289,25.811,30.289z"/>
		<path fill="#9EAA99" d="M25.811,27.482c-0.845,0-1.533,0.627-1.533,1.402c0,0.236,0.069,0.453,0.179,0.646l2.014-1.904
			C26.271,27.537,26.048,27.482,25.811,27.482z"/>
		<path fill="#9EAA99" d="M24.739,29.889l2.129-2.01c-0.116-0.104-0.25-0.188-0.397-0.252l-2.014,1.902
			C24.531,29.662,24.624,29.785,24.739,29.889z"/>
		<path fill="#CBA44C" d="M37.208,12.321c-0.143-0.082-0.268-0.184-0.375-0.301L18.206,32.166c0.097,0.123,0.195,0.242,0.295,0.361
			L37.208,12.321z"/>
		<path fill="#CBA44C" d="M38.003,12.532c0.587,0,1.091-0.307,1.347-0.754c-0.305-0.262-0.622-0.512-0.948-0.748l-1.195,1.291
			C37.44,12.452,37.711,12.532,38.003,12.532z"/>
		<path fill="#CBA44C" d="M36.476,11.127c0,0.34,0.138,0.648,0.357,0.891l1.174-1.27c-0.339-0.229-0.689-0.441-1.048-0.643
			C36.663,10.364,36.476,10.723,36.476,11.127z"/>
		<path fill="#CBA44C" d="M37.208,12.321l1.195-1.291c-0.131-0.096-0.262-0.189-0.396-0.281l-1.174,1.27
			C36.94,12.137,37.065,12.239,37.208,12.321z"/>
		<path fill="#999FA9" d="M22.062,35.582l21.532-17.738c-0.056-0.152-0.117-0.301-0.177-0.449l-21.74,17.941
			C21.804,35.418,21.931,35.502,22.062,35.582z"/>
		<path fill="#CD7A8A" d="M42.551,27.961c-0.096-0.113-0.175-0.236-0.231-0.371l-15.777,9.801c0.199,0.045,0.4,0.084,0.601,0.121
			L42.551,27.961z"/>
		<path fill="#CD7A8A" d="M42.217,27.094c0,0.176,0.039,0.342,0.104,0.496l1.777-1.104c0.057-0.236,0.109-0.475,0.154-0.713
			c-0.159-0.053-0.328-0.086-0.507-0.086C42.9,25.688,42.217,26.312,42.217,27.094z"/>
		<path fill="#CD7A8A" d="M43.461,28.471c0.178-0.445,0.335-0.902,0.471-1.367l-1.38,0.855
			C42.775,28.219,43.093,28.406,43.461,28.471z"/>
		<path fill="#CD7A8A" d="M42.32,27.59c0.056,0.135,0.135,0.258,0.231,0.371l1.38-0.855c0.059-0.205,0.115-0.41,0.166-0.619
			L42.32,27.59z"/>
		<path fill="#9EAA99" d="M31.701,37.615l9.089-4.826c0.245-0.275,0.48-0.561,0.705-0.855l-10.867,5.785
			C30.989,37.697,31.347,37.662,31.701,37.615z"/>
		<path fill="#DDCD9B" d="M23.147,17.202l6.285-8.962c-0.209,0.004-0.417,0.013-0.624,0.025l-6.094,8.699
			C22.875,17.02,23.019,17.102,23.147,17.202z"/>
		<path fill="#DDCD9B" d="M21.511,19.536c-0.154-0.068-0.295-0.154-0.416-0.264l-5.502,7.855c0.057,0.197,0.119,0.393,0.184,0.586
			L21.511,19.536z"/>
		<path fill="#DDCD9B" d="M22.161,16.864c-0.844,0-1.528,0.627-1.528,1.404c0,0.395,0.178,0.75,0.462,1.004l1.619-2.311
			C22.542,16.901,22.357,16.864,22.161,16.864z"/>
		<path fill="#DDCD9B" d="M22.161,19.672c0.844,0,1.528-0.627,1.528-1.402c0-0.432-0.213-0.809-0.542-1.066l-1.636,2.332
			C21.709,19.622,21.928,19.672,22.161,19.672z"/>
		<path fill="#DDCD9B" d="M23.147,17.202c-0.129-0.1-0.273-0.182-0.433-0.24l-1.619,2.311c0.121,0.109,0.262,0.195,0.416,0.264
			L23.147,17.202z"/>
		<path fill="#CBA44C" d="M32.633,30.725c-0.11-0.1-0.2-0.215-0.274-0.342l-8.524,6.123c0.153,0.066,0.308,0.131,0.465,0.193
			L32.633,30.725z"/>
		<path fill="#CBA44C" d="M35.015,29.018l9.483-6.798c-0.009-0.176-0.025-0.352-0.04-0.525l-9.734,6.99
			C34.839,28.781,34.936,28.893,35.015,29.018z"/>
		<path fill="#CBA44C" d="M33.697,28.314c-0.844,0-1.528,0.625-1.528,1.402c0,0.242,0.073,0.467,0.19,0.666l2.365-1.699
			C34.452,28.457,34.095,28.314,33.697,28.314z"/>
		<path fill="#CBA44C" d="M33.697,31.123c0.844,0,1.528-0.627,1.528-1.404c0-0.258-0.08-0.494-0.21-0.701l-2.382,1.707
			C32.908,30.969,33.283,31.123,33.697,31.123z"/>
		<path fill="#CBA44C" d="M32.633,30.725l2.382-1.709c-0.079-0.125-0.176-0.234-0.291-0.332l-2.365,1.699
			C32.433,30.51,32.522,30.625,32.633,30.725z"/>
	</g>
</g>
</svg>
