<?xml version="1.0" encoding="utf-8"?>
<!-- Generator: Adobe Illustrator 16.0.0, SVG Export Plug-In . SVG Version: 6.00 Build 0)  -->
<!DOCTYPE svg PUBLIC "-//W3C//DTD SVG 1.1//EN" "http://www.w3.org/Graphics/SVG/1.1/DTD/svg11.dtd">
<svg version="1.1" id="Layer_1" xmlns="http://www.w3.org/2000/svg" xmlns:xlink="http://www.w3.org/1999/xlink" x="0px" y="0px"
	 width="54px" height="46px" viewBox="0 0 54 46" enable-background="new 0 0 54 46" xml:space="preserve">
<g id="Layer_2_1_">
	<g>
		<path fill="#CBA44C" d="M19.863,10.096l-7.604,12.59c-0.002,0.107-0.008,0.214-0.008,0.324c0,0.211,0.008,0.418,0.016,0.625
			L20.716,9.66C20.426,9.796,20.142,9.94,19.863,10.096z"/>
		<path fill="#E5E0AA" d="M14.275,30.466l17.34-21.479c-0.168-0.056-0.336-0.106-0.506-0.155L14.02,30.021
			C14.102,30.171,14.189,30.317,14.275,30.466z"/>
		<path fill="#9EAA99" d="M18.207,33.479c-0.112-0.104-0.203-0.227-0.275-0.359l-0.853,0.808c0.111,0.1,0.227,0.196,0.341,0.295
			L18.207,33.479z"/>
		<path fill="#9EAA99" d="M21.99,29.909c-0.115-0.104-0.208-0.227-0.282-0.356l-1.771,1.674c0.146,0.062,0.28,0.146,0.396,0.246
			L21.99,29.909z"/>
		<path fill="#9EAA99" d="M24.119,27.899l14.642-13.816c-0.096-0.127-0.192-0.25-0.292-0.373L23.722,27.647
			C23.868,27.712,24.003,27.796,24.119,27.899z"/>
		<path fill="#9EAA99" d="M19.291,31.089c-0.84,0-1.528,0.629-1.528,1.404c0,0.227,0.063,0.438,0.168,0.627l2.006-1.896
			C19.74,31.14,19.523,31.089,19.291,31.089z"/>
		<path fill="#9EAA99" d="M19.291,33.897c0.844,0,1.528-0.627,1.528-1.404c0-0.402-0.188-0.764-0.485-1.021l-2.127,2.008
			C18.484,33.737,18.867,33.897,19.291,33.897z"/>
		<path fill="#9EAA99" d="M20.334,31.472c-0.117-0.1-0.25-0.184-0.396-0.246l-2.006,1.895c0.072,0.133,0.163,0.256,0.275,0.359
			L20.334,31.472z"/>
		<path fill="#9EAA99" d="M23.062,30.31c0.84,0,1.523-0.625,1.523-1.402c0-0.396-0.179-0.752-0.466-1.008l-2.129,2.01
			C22.267,30.157,22.645,30.31,23.062,30.31z"/>
		<path fill="#9EAA99" d="M23.062,27.503c-0.845,0-1.533,0.627-1.533,1.401c0,0.236,0.069,0.453,0.179,0.646l2.014-1.903
			C23.522,27.558,23.299,27.503,23.062,27.503z"/>
		<path fill="#9EAA99" d="M21.99,29.909l2.129-2.01c-0.116-0.104-0.25-0.188-0.397-0.252l-2.014,1.902
			C21.782,29.683,21.875,29.806,21.99,29.909z"/>
		<path fill="#CBA44C" d="M34.459,12.341c-0.143-0.082-0.268-0.184-0.375-0.301L15.457,32.187c0.097,0.123,0.195,0.242,0.295,0.361
			L34.459,12.341z"/>
		<path fill="#CBA44C" d="M35.254,12.553c0.587,0,1.091-0.307,1.348-0.754c-0.306-0.262-0.623-0.512-0.949-0.748l-1.194,1.291
			C34.691,12.473,34.962,12.553,35.254,12.553z"/>
		<path fill="#CBA44C" d="M33.727,11.147c0,0.34,0.139,0.648,0.357,0.891l1.174-1.27c-0.339-0.229-0.689-0.441-1.048-0.643
			C33.914,10.385,33.727,10.744,33.727,11.147z"/>
		<path fill="#CBA44C" d="M34.459,12.341l1.195-1.291c-0.131-0.096-0.262-0.189-0.396-0.281l-1.174,1.27
			C34.191,12.158,34.316,12.26,34.459,12.341z"/>
		<path fill="#999FA9" d="M19.313,35.603l21.532-17.738c-0.056-0.152-0.116-0.301-0.177-0.449l-21.74,17.941
			C19.055,35.438,19.182,35.522,19.313,35.603z"/>
		<path fill="#CD7A8A" d="M39.802,27.981c-0.096-0.113-0.175-0.236-0.231-0.371l-15.776,9.801c0.199,0.045,0.4,0.084,0.601,0.121
			L39.802,27.981z"/>
		<path fill="#CD7A8A" d="M39.468,27.114c0,0.176,0.039,0.342,0.104,0.496l1.777-1.104c0.057-0.236,0.108-0.476,0.153-0.713
			c-0.159-0.053-0.328-0.086-0.507-0.086C40.15,25.708,39.468,26.333,39.468,27.114z"/>
		<path fill="#CD7A8A" d="M40.712,28.491c0.179-0.445,0.335-0.902,0.472-1.367l-1.381,0.855
			C40.025,28.239,40.344,28.427,40.712,28.491z"/>
		<path fill="#CD7A8A" d="M39.57,27.61c0.057,0.135,0.136,0.258,0.231,0.371l1.38-0.855c0.06-0.205,0.115-0.41,0.166-0.619
			L39.57,27.61z"/>
		<path fill="#9EAA99" d="M28.952,37.636l9.089-4.826c0.245-0.275,0.48-0.561,0.705-0.855l-10.867,5.785
			C28.24,37.718,28.598,37.683,28.952,37.636z"/>
		<path fill="#DDCD9B" d="M20.398,17.223l6.285-8.962c-0.209,0.004-0.417,0.013-0.624,0.025l-6.094,8.699
			C20.126,17.041,20.27,17.123,20.398,17.223z"/>
		<path fill="#DDCD9B" d="M18.762,19.557c-0.154-0.068-0.295-0.154-0.416-0.264l-5.502,7.855c0.057,0.197,0.119,0.393,0.184,0.586
			L18.762,19.557z"/>
		<path fill="#DDCD9B" d="M19.412,16.885c-0.844,0-1.528,0.627-1.528,1.404c0,0.395,0.178,0.75,0.462,1.004l1.619-2.311
			C19.793,16.921,19.608,16.885,19.412,16.885z"/>
		<path fill="#DDCD9B" d="M19.412,19.692c0.844,0,1.528-0.627,1.528-1.402c0-0.432-0.213-0.809-0.542-1.066l-1.636,2.332
			C18.96,19.643,19.179,19.692,19.412,19.692z"/>
		<path fill="#DDCD9B" d="M20.398,17.223c-0.129-0.1-0.273-0.182-0.433-0.24l-1.619,2.311c0.121,0.109,0.262,0.195,0.416,0.264
			L20.398,17.223z"/>
		<path fill="#CBA44C" d="M29.884,30.745c-0.11-0.1-0.2-0.215-0.274-0.342l-8.523,6.123c0.153,0.066,0.308,0.131,0.465,0.193
			L29.884,30.745z"/>
		<path fill="#CBA44C" d="M32.266,29.038l9.483-6.797c-0.009-0.176-0.024-0.352-0.04-0.525l-9.734,6.991
			C32.09,28.802,32.188,28.913,32.266,29.038z"/>
		<path fill="#CBA44C" d="M30.947,28.335c-0.844,0-1.527,0.625-1.527,1.401c0,0.242,0.073,0.468,0.189,0.666l2.365-1.698
			C31.703,28.478,31.346,28.335,30.947,28.335z"/>
		<path fill="#CBA44C" d="M30.947,31.144c0.845,0,1.529-0.627,1.529-1.404c0-0.258-0.08-0.494-0.211-0.701l-2.382,1.707
			C30.159,30.989,30.534,31.144,30.947,31.144z"/>
		<path fill="#CBA44C" d="M29.884,30.745l2.382-1.709c-0.078-0.125-0.176-0.233-0.291-0.332l-2.365,1.699
			C29.684,30.53,29.773,30.646,29.884,30.745z"/>
	</g>
</g>
</svg>
