<?xml version="1.0" encoding="utf-8"?>
<!-- Generator: Adobe Illustrator 16.0.0, SVG Export Plug-In . SVG Version: 6.00 Build 0)  -->
<!DOCTYPE svg PUBLIC "-//W3C//DTD SVG 1.1//EN" "http://www.w3.org/Graphics/SVG/1.1/DTD/svg11.dtd">
<svg version="1.1" xmlns="http://www.w3.org/2000/svg" xmlns:xlink="http://www.w3.org/1999/xlink" x="0px" y="0px" width="200px"
	 height="184px" viewBox="0 -45.918 200 184" enable-background="new 0 -45.918 200 184" xml:space="preserve">
<g id="BG_white" display="none">
	<rect x="0.334" display="inline" fill="#FFFFFF" width="199.666" height="46"/>
	<rect x="0.334" y="-46" display="inline" fill="#FFFFFF" width="199.666" height="46"/>
	<rect x="0.017" y="46.082" display="inline" fill="#FFFFFF" width="54" height="46"/>
	<rect x="0.017" y="92.082" display="inline" fill="#FFFFFF" width="54" height="46"/>
</g>
<g id="BG" display="none">
	<rect x="0.017" y="0.082" display="inline" fill="#232831" width="200" height="46"/>
	<rect x="0.017" y="-45.918" display="inline" fill="#232831" width="200" height="46"/>
	<rect x="0.017" y="46.082" display="inline" fill="#232831" width="54" height="46"/>
	<rect x="0.017" y="92.082" display="inline" fill="#232831" width="54" height="46"/>
</g>
<g id="Logos">
	<g id="Layer_2_1_">
		<g>
			<path fill="#FFFFFF" d="M22.612,10.075l-7.604,12.59C15.006,22.772,15,22.879,15,22.989c0,0.211,0.008,0.418,0.016,0.625
				l8.449-13.975C23.175,9.776,22.891,9.92,22.612,10.075z"/>
			<path fill="#FFFFFF" d="M17.024,30.445l17.34-21.479c-0.167-0.056-0.335-0.106-0.505-0.155L16.769,30
				C16.851,30.15,16.938,30.297,17.024,30.445z"/>
			<path fill="#FFFFFF" d="M20.956,33.459c-0.112-0.104-0.203-0.227-0.275-0.359l-0.853,0.808c0.111,0.1,0.227,0.196,0.341,0.295
				L20.956,33.459z"/>
			<path fill="#FFFFFF" d="M24.739,29.889c-0.115-0.104-0.208-0.227-0.282-0.356l-1.771,1.674c0.146,0.062,0.28,0.146,0.396,0.246
				L24.739,29.889z"/>
			<path fill="#FFFFFF" d="M26.868,27.879L41.51,14.063c-0.096-0.127-0.193-0.25-0.292-0.373L26.471,27.627
				C26.617,27.691,26.752,27.775,26.868,27.879z"/>
			<path fill="#FFFFFF" d="M22.04,31.068c-0.84,0-1.528,0.629-1.528,1.404c0,0.227,0.063,0.438,0.168,0.627l2.006-1.896
				C22.489,31.119,22.272,31.068,22.04,31.068z"/>
			<path fill="#FFFFFF" d="M22.04,33.877c0.844,0,1.528-0.627,1.528-1.404c0-0.402-0.188-0.764-0.485-1.021l-2.127,2.008
				C21.233,33.717,21.616,33.877,22.04,33.877z"/>
			<path fill="#FFFFFF" d="M23.083,31.451c-0.117-0.1-0.25-0.184-0.396-0.246L20.681,33.1c0.072,0.133,0.163,0.256,0.275,0.359
				L23.083,31.451z"/>
			<path fill="#FFFFFF" d="M25.811,30.289c0.84,0,1.523-0.625,1.523-1.402c0-0.396-0.179-0.752-0.466-1.008l-2.129,2.01
				C25.016,30.137,25.394,30.289,25.811,30.289z"/>
			<path fill="#FFFFFF" d="M25.811,27.482c-0.845,0-1.533,0.627-1.533,1.401c0,0.236,0.069,0.453,0.179,0.646l2.014-1.903
				C26.271,27.537,26.048,27.482,25.811,27.482z"/>
			<path fill="#FFFFFF" d="M24.739,29.889l2.129-2.01c-0.116-0.104-0.25-0.188-0.397-0.252l-2.014,1.902
				C24.531,29.662,24.624,29.785,24.739,29.889z"/>
			<path fill="#FFFFFF" d="M37.208,12.321c-0.143-0.082-0.268-0.184-0.375-0.301L18.206,32.166c0.097,0.123,0.195,0.242,0.295,0.361
				L37.208,12.321z"/>
			<path fill="#FFFFFF" d="M38.003,12.532c0.587,0,1.091-0.307,1.347-0.754c-0.305-0.262-0.622-0.512-0.948-0.748l-1.195,1.291
				C37.44,12.452,37.711,12.532,38.003,12.532z"/>
			<path fill="#FFFFFF" d="M36.476,11.127c0,0.34,0.138,0.648,0.357,0.891l1.174-1.27c-0.339-0.229-0.689-0.441-1.048-0.643
				C36.663,10.364,36.476,10.723,36.476,11.127z"/>
			<path fill="#FFFFFF" d="M37.208,12.321l1.195-1.291c-0.131-0.096-0.262-0.189-0.396-0.281l-1.174,1.27
				C36.94,12.137,37.065,12.239,37.208,12.321z"/>
			<path fill="#FFFFFF" d="M22.062,35.582l21.532-17.738c-0.056-0.152-0.117-0.301-0.177-0.449l-21.74,17.941
				C21.804,35.418,21.931,35.502,22.062,35.582z"/>
			<path fill="#FFFFFF" d="M42.551,27.961c-0.096-0.113-0.175-0.236-0.231-0.371l-15.777,9.801c0.199,0.045,0.4,0.084,0.601,0.121
				L42.551,27.961z"/>
			<path fill="#FFFFFF" d="M42.217,27.094c0,0.176,0.039,0.342,0.104,0.496l1.777-1.104c0.057-0.236,0.109-0.476,0.154-0.713
				c-0.159-0.053-0.328-0.086-0.507-0.086C42.9,25.688,42.217,26.312,42.217,27.094z"/>
			<path fill="#FFFFFF" d="M43.461,28.471c0.178-0.445,0.335-0.902,0.471-1.367l-1.38,0.855
				C42.775,28.219,43.093,28.406,43.461,28.471z"/>
			<path fill="#FFFFFF" d="M42.32,27.59c0.056,0.135,0.135,0.258,0.231,0.371l1.38-0.855c0.059-0.205,0.115-0.41,0.166-0.619
				L42.32,27.59z"/>
			<path fill="#FFFFFF" d="M31.701,37.615l9.089-4.826c0.245-0.275,0.48-0.561,0.705-0.855l-10.867,5.785
				C30.989,37.697,31.347,37.662,31.701,37.615z"/>
			<path fill="#FFFFFF" d="M23.147,17.202l6.285-8.962c-0.209,0.004-0.417,0.013-0.624,0.025l-6.094,8.699
				C22.875,17.02,23.019,17.102,23.147,17.202z"/>
			<path fill="#FFFFFF" d="M21.511,19.536c-0.154-0.068-0.295-0.154-0.416-0.264l-5.502,7.855c0.057,0.197,0.119,0.393,0.184,0.586
				L21.511,19.536z"/>
			<path fill="#FFFFFF" d="M22.161,16.864c-0.844,0-1.528,0.627-1.528,1.404c0,0.395,0.178,0.75,0.462,1.004l1.619-2.311
				C22.542,16.901,22.357,16.864,22.161,16.864z"/>
			<path fill="#FFFFFF" d="M22.161,19.672c0.844,0,1.528-0.627,1.528-1.402c0-0.432-0.213-0.809-0.542-1.066l-1.636,2.332
				C21.709,19.622,21.928,19.672,22.161,19.672z"/>
			<path fill="#FFFFFF" d="M23.147,17.202c-0.129-0.1-0.273-0.182-0.433-0.24l-1.619,2.311c0.121,0.109,0.262,0.195,0.416,0.264
				L23.147,17.202z"/>
			<path fill="#FFFFFF" d="M32.633,30.725c-0.11-0.1-0.2-0.215-0.274-0.342l-8.524,6.123c0.153,0.066,0.308,0.131,0.465,0.193
				L32.633,30.725z"/>
			<path fill="#FFFFFF" d="M35.015,29.018l9.483-6.797c-0.009-0.176-0.025-0.352-0.04-0.525l-9.734,6.991
				C34.839,28.781,34.936,28.893,35.015,29.018z"/>
			<path fill="#FFFFFF" d="M33.697,28.314c-0.844,0-1.528,0.625-1.528,1.401c0,0.242,0.073,0.468,0.19,0.666l2.365-1.698
				C34.452,28.457,34.095,28.314,33.697,28.314z"/>
			<path fill="#FFFFFF" d="M33.697,31.123c0.844,0,1.528-0.627,1.528-1.404c0-0.258-0.08-0.494-0.21-0.701l-2.382,1.707
				C32.908,30.969,33.283,31.123,33.697,31.123z"/>
			<path fill="#FFFFFF" d="M32.633,30.725l2.382-1.709c-0.079-0.125-0.176-0.233-0.291-0.332l-2.365,1.699
				C32.433,30.51,32.522,30.625,32.633,30.725z"/>
		</g>
		<g id="Layer_2_5_">
			<g enable-background="new    ">
				<path fill="#FFFFFF" d="M56.111,34.002v-20.59h5.756c1.688,0,3.201,0.384,4.539,1.152c1.339,0.769,2.383,1.869,3.133,3.302
					c0.75,1.434,1.124,3.064,1.124,4.894v1.895c0,1.839-0.373,3.47-1.117,4.893c-0.745,1.424-1.794,2.522-3.146,3.296
					c-1.353,0.772-2.906,1.159-4.66,1.159H56.111z M57.85,14.883v17.648h3.903c2.168,0,3.908-0.72,5.218-2.158
					c1.31-1.439,1.966-3.385,1.966-5.838v-1.812c0-2.367-0.646-4.264-1.938-5.688c-1.292-1.425-2.994-2.143-5.105-2.151H57.85z"/>
				<path fill="#FFFFFF" d="M85.604,28.218h-9.349l-2.121,5.784h-1.824l7.792-20.59h1.654l7.793,20.59h-1.811L85.604,28.218z
					 M76.793,26.747h8.258l-4.129-11.214L76.793,26.747z"/>
				<path fill="#FFFFFF" d="M104.144,14.883h-7.057v19.119h-1.739V14.883h-7.043v-1.471h15.839V14.883z"/>
				<path fill="#FFFFFF" d="M116.887,28.218h-9.348l-2.122,5.784h-1.824l7.792-20.59h1.655l7.792,20.59h-1.811L116.887,28.218z
					 M108.076,26.747h8.259l-4.13-11.214L108.076,26.747z"/>
				<path fill="#FFFFFF" d="M126.19,32.531h10.168v1.471h-11.921v-20.59h1.753V32.531z"/>
			</g>
		</g>
	</g>
	<g id="Layer_2_3_">
		<g>
			<path fill="#C98E47" d="M22.612-35.925l-7.604,12.59C15.006-23.228,15-23.121,15-23.011c0,0.211,0.008,0.418,0.016,0.625
				l8.449-13.975C23.175-36.224,22.891-36.08,22.612-35.925z"/>
			<path fill="#BDA880" d="M17.024-15.555l17.34-21.479c-0.167-0.056-0.335-0.106-0.505-0.155L16.769-16
				C16.851-15.85,16.938-15.703,17.024-15.555z"/>
			<g>
				<path fill="#718C7E" d="M22.687-14.795L22.687-14.795L20.681-12.9l-0.853,0.808c0.111,0.1,0.227,0.196,0.341,0.295l0.787-0.743
					l2.126-2.007l0,0l1.657-1.563c-0.115-0.104-0.208-0.227-0.282-0.356L22.687-14.795z"/>
				<path fill="#718C7E" d="M41.51-31.937c-0.096-0.127-0.193-0.25-0.292-0.373L26.471-18.373l-2.014,1.902
					c0.074,0.133,0.167,0.256,0.282,0.359c0.277,0.248,0.655,0.4,1.072,0.4c0.84,0,1.523-0.625,1.523-1.402
					c0-0.396-0.179-0.752-0.466-1.008L41.51-31.937z"/>
				<path fill="#718C7E" d="M22.686-14.797c-0.197-0.084-0.414-0.135-0.646-0.135c-0.84,0-1.528,0.629-1.528,1.404
					c0,0.227,0.063,0.438,0.168,0.627L22.686-14.797z"/>
				<path fill="#718C7E" d="M20.956-12.54c0.277,0.257,0.66,0.417,1.084,0.417c0.844,0,1.528-0.627,1.528-1.404
					c0-0.402-0.188-0.764-0.485-1.021L20.956-12.54z"/>
				<path fill="#718C7E" d="M25.811-18.518c-0.845,0-1.533,0.627-1.533,1.401c0,0.236,0.069,0.453,0.179,0.646l2.014-1.903
					C26.271-18.463,26.048-18.518,25.811-18.518z"/>
			</g>
			<g>
				<path fill="#C98E47" d="M38.402-34.97L38.402-34.97c-0.13-0.096-0.261-0.189-0.396-0.281l-1.174,1.27
					c0.107,0.118,0.231,0.22,0.375,0.301l0,0c-0.143-0.082-0.268-0.183-0.375-0.3L18.206-13.834
					c0.097,0.123,0.195,0.242,0.295,0.361l18.707-20.206c0.232,0.131,0.503,0.211,0.795,0.211c0.587,0,1.091-0.307,1.347-0.754
					C39.045-34.484,38.729-34.733,38.402-34.97z"/>
				<path fill="#C98E47" d="M38.007-35.252c-0.339-0.229-0.689-0.441-1.048-0.643c-0.296,0.259-0.483,0.618-0.483,1.022
					c0,0.34,0.138,0.648,0.357,0.891L38.007-35.252z"/>
			</g>
			<path fill="#6F7B85" d="M22.062-10.418l21.532-17.738c-0.056-0.152-0.117-0.301-0.177-0.449l-21.74,17.941
				C21.804-10.582,21.931-10.498,22.062-10.418z"/>
			<path fill="#E86280" d="M44.098-19.514c0.057-0.236,0.109-0.476,0.154-0.713c-0.159-0.053-0.328-0.086-0.507-0.086
				c-0.845,0-1.528,0.625-1.528,1.406c0,0.176,0.039,0.341,0.104,0.496l-0.001,0L26.543-8.609c0.199,0.045,0.4,0.084,0.601,0.121
				l15.407-9.551l0.002-0.001c0.223,0.259,0.541,0.446,0.908,0.511c0.178-0.445,0.335-0.902,0.471-1.367l0,0
				C43.99-19.101,44.046-19.305,44.098-19.514L44.098-19.514z"/>
			<path fill="#718C7E" d="M31.701-8.385l9.089-4.826c0.245-0.275,0.48-0.561,0.705-0.855L30.628-8.281
				C30.989-8.303,31.347-8.338,31.701-8.385z"/>
			<g>
				<path fill="#C3BE8D" d="M22.161-29.136c-0.844,0-1.528,0.627-1.528,1.404c0,0.395,0.178,0.75,0.462,1.004l1.619-2.311
					C22.542-29.099,22.357-29.136,22.161-29.136z"/>
				<path fill="#C3BE8D" d="M23.147-28.796l-1.091,1.555l1.091-1.557l6.285-8.962c-0.209,0.004-0.417,0.013-0.624,0.025
					l-6.093,8.697c0,0,0,0-0.001,0l-1.618,2.311c0,0,0,0,0,0l-5.502,7.855c0.057,0.197,0.119,0.393,0.184,0.586l5.733-8.176l0,0
					l0-0.001c0.198,0.086,0.417,0.136,0.65,0.136c0.844,0,1.528-0.627,1.528-1.402C23.689-28.162,23.476-28.539,23.147-28.796z"/>
			</g>
			<g>
				<path fill="#C98E47" d="M35.015-16.982l9.483-6.797c-0.009-0.176-0.025-0.352-0.04-0.525l-9.733,6.99c0,0,0,0-0.001-0.001
					l-2.365,1.699l-8.524,6.123c0.153,0.066,0.308,0.131,0.465,0.193l8.333-5.975L35.015-16.982
					C35.015-16.983,35.015-16.983,35.015-16.982z"/>
				<path fill="#C98E47" d="M32.169-16.284c0,0.242,0.073,0.468,0.19,0.666l2.365-1.698c-0.272-0.227-0.629-0.369-1.027-0.369
					C32.853-17.686,32.169-17.061,32.169-16.284z"/>
				<path fill="#C98E47" d="M32.633-15.275c0.275,0.244,0.65,0.398,1.064,0.398c0.844,0,1.528-0.627,1.528-1.404
					c0-0.258-0.08-0.494-0.21-0.701L32.633-15.275z"/>
			</g>
		</g>
		<g id="Layer_2_2_">
			<g enable-background="new    ">
				<path fill="#898976" d="M56.111-12.062v-20.59h5.756c1.688,0,3.201,0.384,4.539,1.152c1.339,0.769,2.383,1.869,3.133,3.302
					c0.75,1.434,1.124,3.064,1.124,4.894v1.895c0,1.839-0.373,3.47-1.117,4.893c-0.745,1.424-1.794,2.522-3.146,3.296
					c-1.353,0.772-2.906,1.159-4.66,1.159H56.111z M57.85-31.182v17.648h3.903c2.168,0,3.908-0.72,5.218-2.158
					c1.31-1.439,1.966-3.385,1.966-5.838v-1.812c0-2.367-0.646-4.264-1.938-5.688c-1.292-1.425-2.994-2.143-5.105-2.151H57.85z"/>
				<path fill="#898976" d="M85.604-17.847h-9.349l-2.121,5.784h-1.824l7.792-20.59h1.654l7.793,20.59h-1.811L85.604-17.847z
					 M76.793-19.317h8.258l-4.129-11.214L76.793-19.317z"/>
				<path fill="#898976" d="M104.144-31.182h-7.057v19.119h-1.739v-19.119h-7.043v-1.471h15.839V-31.182z"/>
				<path fill="#898976" d="M116.887-17.847h-9.348l-2.122,5.784h-1.824l7.792-20.59h1.655l7.792,20.59h-1.811L116.887-17.847z
					 M108.076-19.317h8.259l-4.13-11.214L108.076-19.317z"/>
				<path fill="#898976" d="M126.19-13.533h10.168v1.471h-11.921v-20.59h1.753V-13.533z"/>
			</g>
		</g>
	</g>
	<g>
		<path fill="#C98E47" d="M19.88,56.178l-7.604,12.59c-0.002,0.106-0.008,0.214-0.008,0.324c0,0.211,0.008,0.418,0.016,0.625
			l8.449-13.976C20.443,55.878,20.159,56.022,19.88,56.178z"/>
		<path fill="#BDA880" d="M14.292,76.548l17.34-21.479c-0.167-0.056-0.335-0.105-0.505-0.154l-17.09,21.188
			C14.119,76.253,14.206,76.399,14.292,76.548z"/>
		<g>
			<path fill="#718C7E" d="M19.955,77.308L19.955,77.308l-2.006,1.895l-0.853,0.808c0.111,0.1,0.227,0.196,0.341,0.295l0.787-0.743
				l2.126-2.007l0,0l1.657-1.563c-0.115-0.104-0.208-0.227-0.282-0.356L19.955,77.308z"/>
			<path fill="#718C7E" d="M38.778,60.165c-0.096-0.127-0.193-0.25-0.292-0.373L23.739,73.729l-2.014,1.902
				c0.074,0.133,0.167,0.256,0.282,0.359c0.277,0.248,0.655,0.4,1.072,0.4c0.84,0,1.523-0.625,1.523-1.402
				c0-0.396-0.179-0.752-0.466-1.008L38.778,60.165z"/>
			<path fill="#718C7E" d="M19.954,77.306c-0.197-0.084-0.414-0.135-0.646-0.135c-0.84,0-1.528,0.629-1.528,1.404
				c0,0.227,0.063,0.438,0.168,0.627L19.954,77.306z"/>
			<path fill="#718C7E" d="M18.224,79.562c0.277,0.257,0.66,0.417,1.084,0.417c0.844,0,1.528-0.627,1.528-1.404
				c0-0.402-0.188-0.764-0.485-1.021L18.224,79.562z"/>
			<path fill="#718C7E" d="M23.079,73.585c-0.845,0-1.533,0.627-1.533,1.401c0,0.236,0.069,0.453,0.179,0.646l2.014-1.903
				C23.539,73.64,23.316,73.585,23.079,73.585z"/>
		</g>
		<g>
			<path fill="#C98E47" d="M35.67,57.133L35.67,57.133c-0.13-0.097-0.261-0.189-0.396-0.281l-1.174,1.271
				c0.107,0.117,0.231,0.219,0.375,0.301l0,0c-0.143-0.082-0.268-0.184-0.375-0.301L15.474,78.269
				c0.097,0.123,0.195,0.242,0.295,0.361l18.707-20.206c0.232,0.131,0.503,0.211,0.795,0.211c0.587,0,1.091-0.308,1.347-0.755
				C36.313,57.618,35.997,57.369,35.67,57.133z"/>
			<path fill="#C98E47" d="M35.275,56.851c-0.339-0.229-0.689-0.441-1.048-0.643c-0.296,0.259-0.483,0.617-0.483,1.021
				c0,0.34,0.138,0.648,0.357,0.891L35.275,56.851z"/>
		</g>
		<path fill="#6F7B85" d="M19.33,81.685l21.532-17.738c-0.056-0.152-0.117-0.301-0.177-0.449l-21.74,17.941
			C19.072,81.521,19.199,81.604,19.33,81.685z"/>
		<path fill="#E86280" d="M41.366,72.589c0.057-0.236,0.109-0.476,0.154-0.713c-0.159-0.053-0.328-0.086-0.507-0.086
			c-0.845,0-1.528,0.625-1.528,1.406c0,0.176,0.039,0.342,0.104,0.496h-0.001l-15.777,9.801c0.199,0.045,0.4,0.084,0.601,0.121
			l15.407-9.551l0.002-0.001c0.223,0.259,0.541,0.446,0.908,0.511c0.178-0.445,0.335-0.902,0.471-1.367h0
			C41.258,73.002,41.314,72.798,41.366,72.589L41.366,72.589z"/>
		<path fill="#718C7E" d="M28.969,83.718l9.089-4.826c0.245-0.275,0.48-0.561,0.705-0.855l-10.867,5.785
			C28.257,83.8,28.615,83.765,28.969,83.718z"/>
		<g>
			<path fill="#C3BE8D" d="M19.429,62.967c-0.844,0-1.528,0.627-1.528,1.403c0,0.396,0.178,0.75,0.462,1.004l1.619-2.311
				C19.81,63.003,19.625,62.967,19.429,62.967z"/>
			<path fill="#C3BE8D" d="M20.415,63.307l-1.091,1.555l1.091-1.557l6.285-8.962c-0.209,0.004-0.417,0.013-0.624,0.025l-6.093,8.697
				c0,0,0-0.001-0.001-0.001l-1.618,2.311c0-0.001,0-0.001,0-0.001l-5.502,7.855c0.057,0.197,0.119,0.393,0.184,0.586l5.733-8.176h0
				l0-0.001c0.198,0.086,0.417,0.136,0.65,0.136c0.844,0,1.528-0.627,1.528-1.402C20.957,63.94,20.744,63.563,20.415,63.307z"/>
		</g>
		<g>
			<path fill="#C98E47" d="M32.283,75.12l9.483-6.797c-0.009-0.177-0.025-0.353-0.04-0.525l-9.733,6.989c0,0,0-0.001-0.001-0.001
				l-2.365,1.699l-8.524,6.123c0.153,0.066,0.308,0.131,0.465,0.193l8.333-5.975L32.283,75.12
				C32.283,75.119,32.283,75.12,32.283,75.12z"/>
			<path fill="#C98E47" d="M29.437,75.818c0,0.242,0.073,0.468,0.19,0.666l2.365-1.698c-0.272-0.227-0.629-0.369-1.027-0.369
				C30.121,74.417,29.437,75.042,29.437,75.818z"/>
			<path fill="#C98E47" d="M29.901,76.827c0.275,0.244,0.65,0.398,1.064,0.398c0.844,0,1.528-0.627,1.528-1.404
				c0-0.258-0.08-0.494-0.21-0.701L29.901,76.827z"/>
		</g>
	</g>
	<g id="Layer_2_4_">
		<g>
			<path fill="#FFFFFF" d="M19.88,102.178l-7.604,12.59c-0.002,0.107-0.008,0.215-0.008,0.324c0,0.211,0.008,0.418,0.016,0.625
				l8.449-13.975C20.443,101.878,20.159,102.021,19.88,102.178z"/>
			<path fill="#FFFFFF" d="M14.292,122.548l17.34-21.479c-0.168-0.055-0.336-0.105-0.506-0.154l-17.089,21.189
				C14.119,122.253,14.206,122.398,14.292,122.548z"/>
			<path fill="#FFFFFF" d="M18.224,125.561c-0.112-0.104-0.203-0.227-0.275-0.358l-0.853,0.808c0.111,0.1,0.227,0.196,0.341,0.295
				L18.224,125.561z"/>
			<path fill="#FFFFFF" d="M22.007,121.991c-0.115-0.104-0.208-0.228-0.282-0.356l-1.771,1.674c0.146,0.062,0.28,0.146,0.396,0.246
				L22.007,121.991z"/>
			<path fill="#FFFFFF" d="M24.136,119.98l14.642-13.815c-0.096-0.127-0.192-0.25-0.292-0.373l-14.747,13.937
				C23.885,119.794,24.02,119.878,24.136,119.98z"/>
			<path fill="#FFFFFF" d="M19.308,123.171c-0.84,0-1.528,0.629-1.528,1.404c0,0.228,0.063,0.438,0.168,0.627l2.006-1.896
				C19.757,123.223,19.54,123.171,19.308,123.171z"/>
			<path fill="#FFFFFF" d="M19.308,125.979c0.844,0,1.528-0.627,1.528-1.403c0-0.402-0.188-0.765-0.485-1.021l-2.127,2.008
				C18.501,125.818,18.884,125.979,19.308,125.979z"/>
			<path fill="#FFFFFF" d="M20.351,123.555c-0.117-0.101-0.25-0.185-0.396-0.246l-2.006,1.895c0.072,0.133,0.163,0.256,0.275,0.359
				L20.351,123.555z"/>
			<path fill="#FFFFFF" d="M23.079,122.393c0.84,0,1.523-0.625,1.523-1.402c0-0.396-0.179-0.752-0.466-1.008l-2.129,2.01
				C22.284,122.239,22.662,122.393,23.079,122.393z"/>
			<path fill="#FFFFFF" d="M23.079,119.585c-0.845,0-1.533,0.627-1.533,1.401c0,0.236,0.069,0.453,0.179,0.646l2.014-1.903
				C23.539,119.641,23.316,119.585,23.079,119.585z"/>
			<path fill="#FFFFFF" d="M22.007,121.991l2.129-2.011c-0.116-0.104-0.25-0.188-0.397-0.252l-2.014,1.902
				C21.799,121.766,21.892,121.889,22.007,121.991z"/>
			<path fill="#FFFFFF" d="M34.476,104.423c-0.143-0.082-0.268-0.184-0.375-0.301L15.474,124.27c0.097,0.123,0.195,0.242,0.295,0.36
				L34.476,104.423z"/>
			<path fill="#FFFFFF" d="M35.271,104.635c0.587,0,1.092-0.307,1.348-0.754c-0.306-0.262-0.623-0.512-0.949-0.748l-1.193,1.291
				C34.708,104.555,34.979,104.635,35.271,104.635z"/>
			<path fill="#FFFFFF" d="M33.744,103.229c0,0.34,0.14,0.648,0.357,0.892l1.174-1.271c-0.339-0.229-0.689-0.44-1.048-0.643
				C33.931,102.467,33.744,102.826,33.744,103.229z"/>
			<path fill="#FFFFFF" d="M34.476,104.423l1.195-1.291c-0.131-0.096-0.262-0.188-0.396-0.28l-1.174,1.27
				C34.208,104.24,34.333,104.342,34.476,104.423z"/>
			<path fill="#FFFFFF" d="M19.33,127.686l21.533-17.738c-0.057-0.152-0.117-0.301-0.178-0.449l-21.74,17.941
				C19.072,127.52,19.199,127.604,19.33,127.686z"/>
			<path fill="#FFFFFF" d="M39.819,120.062c-0.096-0.112-0.175-0.235-0.231-0.371l-15.775,9.802c0.199,0.045,0.4,0.084,0.601,0.121
				L39.819,120.062z"/>
			<path fill="#FFFFFF" d="M39.485,119.196c0,0.176,0.039,0.342,0.104,0.495l1.777-1.104c0.057-0.236,0.107-0.477,0.152-0.713
				c-0.159-0.053-0.328-0.086-0.507-0.086C40.167,117.79,39.485,118.415,39.485,119.196z"/>
			<path fill="#FFFFFF" d="M40.729,120.573c0.179-0.445,0.335-0.902,0.472-1.367l-1.381,0.854
				C40.042,120.321,40.361,120.509,40.729,120.573z"/>
			<path fill="#FFFFFF" d="M39.587,119.691c0.057,0.136,0.136,0.259,0.23,0.371l1.381-0.854c0.06-0.205,0.114-0.41,0.166-0.619
				L39.587,119.691z"/>
			<path fill="#FFFFFF" d="M28.969,129.718l9.089-4.825c0.245-0.275,0.48-0.562,0.705-0.855l-10.867,5.785
				C28.257,129.8,28.615,129.766,28.969,129.718z"/>
			<path fill="#FFFFFF" d="M20.415,109.305l6.285-8.962c-0.209,0.005-0.417,0.013-0.624,0.025l-6.094,8.698
				C20.143,109.123,20.287,109.205,20.415,109.305z"/>
			<path fill="#FFFFFF" d="M18.779,111.639c-0.154-0.067-0.295-0.154-0.416-0.264l-5.502,7.855c0.057,0.197,0.119,0.393,0.184,0.586
				L18.779,111.639z"/>
			<path fill="#FFFFFF" d="M19.429,108.967c-0.844,0-1.528,0.627-1.528,1.404c0,0.395,0.178,0.75,0.462,1.004l1.619-2.311
				C19.81,109.003,19.625,108.967,19.429,108.967z"/>
			<path fill="#FFFFFF" d="M19.429,111.773c0.844,0,1.528-0.627,1.528-1.401c0-0.433-0.213-0.81-0.542-1.065l-1.636,2.332
				C18.977,111.725,19.196,111.773,19.429,111.773z"/>
			<path fill="#FFFFFF" d="M20.415,109.305c-0.129-0.1-0.273-0.182-0.433-0.24l-1.619,2.312c0.121,0.108,0.262,0.195,0.416,0.265
				L20.415,109.305z"/>
			<path fill="#FFFFFF" d="M29.901,122.827c-0.11-0.101-0.2-0.216-0.274-0.343l-8.522,6.123c0.153,0.066,0.308,0.132,0.465,0.193
				L29.901,122.827z"/>
			<path fill="#FFFFFF" d="M32.283,121.12l9.483-6.797c-0.009-0.177-0.024-0.353-0.04-0.525l-9.734,6.991
				C32.107,120.884,32.205,120.995,32.283,121.12z"/>
			<path fill="#FFFFFF" d="M30.964,120.417c-0.844,0-1.527,0.625-1.527,1.401c0,0.242,0.073,0.468,0.189,0.666l2.365-1.698
				C31.72,120.561,31.363,120.417,30.964,120.417z"/>
			<path fill="#FFFFFF" d="M30.964,123.227c0.845,0,1.529-0.627,1.529-1.404c0-0.258-0.08-0.494-0.211-0.701l-2.383,1.707
				C30.176,123.071,30.551,123.227,30.964,123.227z"/>
			<path fill="#FFFFFF" d="M29.901,122.827l2.382-1.709c-0.078-0.125-0.176-0.233-0.291-0.332l-2.365,1.698
				C29.701,122.611,29.791,122.729,29.901,122.827z"/>
		</g>
	</g>
</g>
</svg>
