<?xml version="1.0" encoding="utf-8"?>
<!-- Generator: Adobe Illustrator 16.0.0, SVG Export Plug-In . SVG Version: 6.00 Build 0)  -->
<!DOCTYPE svg PUBLIC "-//W3C//DTD SVG 1.1//EN" "http://www.w3.org/Graphics/SVG/1.1/DTD/svg11.dtd">
<svg version="1.1" id="Layer_1" xmlns="http://www.w3.org/2000/svg" xmlns:xlink="http://www.w3.org/1999/xlink" x="0px" y="0px"
	 width="320px" height="180px" viewBox="0 0 320 180" enable-background="new 0 0 320 180" xml:space="preserve">
<g id="Layer_2_3_">
	<g>
		<path fill="#C98E47" d="M39.281,60.645l-17.298,28.64c-0.004,0.244-0.018,0.486-0.018,0.739c0,0.479,0.018,0.949,0.037,1.421
			l19.219-31.792C40.561,59.964,39.916,60.291,39.281,60.645z"/>
		<path fill="#BDA880" d="M26.569,106.983l39.446-48.859c-0.381-0.127-0.763-0.241-1.149-0.353l-38.876,48.199
			C26.175,106.312,26.374,106.646,26.569,106.983z"/>
		<g>
			<path fill="#718C7E" d="M39.451,108.712L39.451,108.712l-4.562,4.311l-1.941,1.837c0.252,0.226,0.517,0.446,0.776,0.671
				l1.791-1.691l4.836-4.564l0,0l3.771-3.558c-0.263-0.235-0.474-0.515-0.643-0.81L39.451,108.712z"/>
			<path fill="#718C7E" d="M82.27,69.717c-0.218-0.289-0.438-0.568-0.665-0.849L48.06,100.572l-4.582,4.327
				c0.169,0.303,0.38,0.582,0.643,0.817c0.629,0.565,1.489,0.91,2.438,0.91c1.91,0,3.464-1.42,3.464-3.188
				c0-0.899-0.408-1.711-1.06-2.293L82.27,69.717z"/>
			<path fill="#718C7E" d="M39.449,108.707c-0.447-0.19-0.942-0.306-1.47-0.306c-1.911,0-3.476,1.43-3.476,3.193
				c0,0.517,0.144,0.997,0.382,1.428L39.449,108.707z"/>
			<path fill="#718C7E" d="M35.514,113.842c0.629,0.584,1.501,0.948,2.465,0.948c1.92,0,3.475-1.427,3.475-3.195
				c0-0.916-0.427-1.736-1.103-2.32L35.514,113.842z"/>
			<path fill="#718C7E" d="M46.559,100.243c-1.923,0-3.488,1.427-3.488,3.189c0,0.536,0.158,1.029,0.407,1.467l4.582-4.329
				C47.604,100.367,47.096,100.243,46.559,100.243z"/>
		</g>
		<g>
			<path fill="#C98E47" d="M75.201,62.817l0.001-0.001c-0.298-0.218-0.596-0.43-0.901-0.639l-2.67,2.89
				c0.243,0.269,0.526,0.499,0.852,0.685l0,0c-0.324-0.186-0.608-0.416-0.852-0.684l-42.374,45.83
				c0.222,0.278,0.443,0.55,0.671,0.82l42.555-45.965c0.528,0.298,1.144,0.48,1.808,0.48c1.335,0,2.482-0.699,3.065-1.717
				C76.663,63.923,75.943,63.355,75.201,62.817z"/>
			<path fill="#C98E47" d="M74.301,62.176c-0.771-0.521-1.567-1.003-2.384-1.464c-0.673,0.59-1.099,1.407-1.099,2.325
				c0,0.773,0.314,1.475,0.812,2.027L74.301,62.176z"/>
		</g>
		<path fill="#6F7B85" d="M38.03,118.669l48.98-40.353c-0.126-0.345-0.265-0.684-0.402-1.021l-49.455,40.813
			C37.443,118.295,37.732,118.486,38.03,118.669z"/>
		<path fill="#E86280" d="M88.158,97.977c0.129-0.536,0.248-1.08,0.35-1.621c-0.362-0.12-0.746-0.194-1.153-0.194
			c-1.922,0-3.476,1.42-3.476,3.198c0,0.4,0.088,0.778,0.236,1.129h-0.002l-35.89,22.295c0.453,0.102,0.91,0.191,1.368,0.274
			l35.047-21.726l0.004-0.001c0.508,0.588,1.229,1.013,2.065,1.16c0.406-1.013,0.762-2.052,1.073-3.109h-0.002
			c0.134-0.465,0.26-0.929,0.377-1.401L88.158,97.977z"/>
		<path fill="#718C7E" d="M59.957,123.294l20.676-10.979c0.558-0.627,1.091-1.275,1.604-1.947l-24.721,13.161
			C58.338,123.48,59.151,123.401,59.957,123.294z"/>
		<g>
			<path fill="#C3BE8D" d="M38.255,76.089c-1.921,0-3.477,1.426-3.477,3.193c0,0.898,0.406,1.706,1.052,2.284l3.682-5.258
				C39.122,76.172,38.7,76.089,38.255,76.089z"/>
			<path fill="#C3BE8D" d="M40.498,76.861l-2.482,3.537l2.482-3.541l14.297-20.387c-0.475,0.009-0.949,0.028-1.419,0.057
				L39.515,76.312c0,0-0.002-0.002-0.002-0.002l-3.681,5.257c0-0.001-0.001-0.001-0.001-0.001L23.313,99.435
				c0.13,0.449,0.271,0.894,0.419,1.333l13.042-18.6l0.001,0.001l0.001-0.002c0.45,0.195,0.948,0.309,1.478,0.309
				c1.919,0,3.475-1.426,3.475-3.189C41.73,78.304,41.247,77.446,40.498,76.861z"/>
		</g>
		<g>
			<path fill="#C98E47" d="M67.496,103.735l21.572-15.462c-0.021-0.401-0.057-0.802-0.091-1.195l-22.14,15.9
				c0,0-0.002-0.003-0.002-0.003l-5.38,3.865L42.062,120.77c0.349,0.152,0.701,0.299,1.058,0.441l18.956-13.592l5.417-3.886
				C67.495,103.733,67.495,103.735,67.496,103.735z"/>
			<path fill="#C98E47" d="M61.021,105.324c0,0.551,0.167,1.063,0.432,1.516l5.38-3.864c-0.619-0.514-1.43-0.84-2.337-0.84
				C62.577,102.136,61.021,103.559,61.021,105.324z"/>
			<path fill="#C98E47" d="M62.077,107.619c0.626,0.555,1.479,0.906,2.42,0.906c1.92,0,3.477-1.426,3.477-3.194
				c0-0.587-0.182-1.124-0.478-1.596L62.077,107.619z"/>
		</g>
	</g>
	<g id="Layer_2_2_">
		<g enable-background="new    ">
			<path fill="#898976" d="M115.485,114.928v-46.84h13.093c3.838,0,7.281,0.874,10.327,2.622c3.044,1.748,5.42,4.252,7.125,7.513
				c1.706,3.26,2.558,6.969,2.558,11.131v4.31c0,4.183-0.847,7.893-2.542,11.131c-1.694,3.239-4.079,5.737-7.157,7.497
				c-3.078,1.758-6.611,2.637-10.601,2.637H115.485z M119.442,71.434v40.148h8.879c4.933,0,8.889-1.636,11.871-4.91
				c2.98-3.273,4.471-7.699,4.471-13.28v-4.121c0-5.388-1.468-9.702-4.408-12.942c-2.939-3.241-6.809-4.873-11.613-4.895H119.442z"
				/>
			<path fill="#898976" d="M182.576,101.771h-21.264l-4.825,13.157h-4.151l17.725-46.84h3.765l17.725,46.84h-4.118L182.576,101.771z
				 M162.533,98.426h18.788l-9.394-25.513L162.533,98.426z"/>
			<path fill="#898976" d="M224.752,71.434h-16.053v43.494h-3.956V71.434h-16.021v-3.346h36.029V71.434z"/>
			<path fill="#898976" d="M253.738,101.771h-21.264l-4.825,13.157h-4.151l17.727-46.84h3.764l17.725,46.84h-4.117L253.738,101.771z
				 M233.695,98.426h18.788l-9.394-25.513L233.695,98.426z"/>
			<path fill="#898976" d="M274.905,111.582h23.13v3.346h-27.12v-46.84h3.99V111.582z"/>
		</g>
	</g>
</g>
</svg>
