<?xml version="1.0" encoding="utf-8"?>
<!-- Generator: Adobe Illustrator 16.0.0, SVG Export Plug-In . SVG Version: 6.00 Build 0)  -->
<!DOCTYPE svg PUBLIC "-//W3C//DTD SVG 1.1//EN" "http://www.w3.org/Graphics/SVG/1.1/DTD/svg11.dtd">
<svg version="1.1" id="Layer_1" xmlns="http://www.w3.org/2000/svg" xmlns:xlink="http://www.w3.org/1999/xlink" x="0px" y="0px"
	 width="237.971px" height="169.979px" viewBox="0 0 237.971 169.979" enable-background="new 0 0 237.971 169.979"
	 xml:space="preserve">
<rect x="0" y="0" fill="#EDEDED" width="237.971" height="169.979"/>
<g>
	<path fill="#71C0FF" d="M125.602,111.718h-3.197V91.474c0,0,0.125-0.483-0.608-0.483h-5.871c-0.528,0-0.51,0.407-0.51,0.407v20.117
		h-2.962c-1.143,0-0.283,0.851-0.283,0.851s5.521,6.414,6.193,7.095c0.485,0.483,0.948-0.063,0.948-0.063l6.361-6.856
		C125.674,112.535,126.541,111.718,125.602,111.718z"/>
	<path fill="#71C0FF" d="M155.918,75.321c-2.923-7.75-10.416-13.275-19.188-13.275c-2.016,0-3.971,0.293-5.813,0.848
		c-5.001-8.079-13.925-13.446-24.109-13.446c-15.465,0-28.036,12.372-28.357,27.74c-5.659,3.276-9.46,9.385-9.46,16.37
		c0,10.433,8.477,18.908,18.906,18.908h16.862v-6.308H87.882c-6.938,0-12.583-5.633-12.583-12.604c0-5.955,4.135-10.97,9.72-12.276
		c-0.185-1.125-0.273-2.295-0.273-3.479c0-12.188,9.879-22.044,22.063-22.044c9.953,0,18.369,6.597,21.108,15.658
		c2.431-1.921,5.477-3.062,8.813-3.062c7.311,0,13.313,5.506,14.095,12.604h0.093c6.954,0,12.602,5.645,12.602,12.6
		s-5.63,12.604-12.602,12.604h-16.858v6.308h16.858c10.434,0,18.908-8.492,18.908-18.908
		C169.825,84.844,163.932,77.507,155.918,75.321z"/>
</g>
<g>
	
		<linearGradient id="SVGID_1_" gradientUnits="userSpaceOnUse" x1="314.0784" y1="278.3879" x2="363.4119" y2="315.3879" gradientTransform="matrix(1 0 0 1 -552 -441.0215)">
		<stop  offset="0" style="stop-color:#4677C1"/>
		<stop  offset="1" style="stop-color:#528CE3"/>
	</linearGradient>
	<path fill="url(#SVGID_1_)" d="M125.18,112.156h-3.197V91.913c0,0,0.125-0.485-0.609-0.485h-5.87c-0.53,0-0.511,0.408-0.511,0.408
		v20.118h-2.963c-1.141,0-0.281,0.847-0.281,0.847s5.521,6.416,6.192,7.096c0.485,0.485,0.948-0.063,0.948-0.063l6.363-6.858
		C125.253,112.974,126.118,112.156,125.18,112.156z"/>
	
		<linearGradient id="SVGID_2_" gradientUnits="userSpaceOnUse" x1="319.9524" y1="270.5598" x2="369.2854" y2="307.5594" gradientTransform="matrix(1 0 0 1 -552 -441.0215)">
		<stop  offset="0" style="stop-color:#4677C1"/>
		<stop  offset="1" style="stop-color:#528CE3"/>
	</linearGradient>
	<path fill="url(#SVGID_2_)" d="M155.495,75.759c-2.926-7.751-10.416-13.277-19.188-13.277c-2.018,0-3.971,0.292-5.814,0.85
		c-5.002-8.08-13.923-13.447-24.106-13.447c-15.466,0-28.037,12.372-28.36,27.74c-5.658,3.275-9.46,9.385-9.46,16.37
		c0,10.432,8.479,18.906,18.909,18.906h16.861v-6.309H87.46c-6.938,0-12.584-5.631-12.584-12.601c0-5.953,4.135-10.971,9.721-12.277
		c-0.186-1.123-0.275-2.293-0.275-3.479c0-12.186,9.879-22.043,22.065-22.043c9.953,0,18.368,6.599,21.106,15.658
		c2.432-1.922,5.479-3.061,8.814-3.061c7.311,0,13.311,5.506,14.094,12.601h0.094c6.953,0,12.602,5.646,12.602,12.603
		c0,6.953-5.631,12.601-12.602,12.601h-16.859v6.309h16.859c10.434,0,18.906-8.489,18.906-18.906
		C169.403,85.283,163.51,77.946,155.495,75.759z"/>
</g>
</svg>
