<?xml version="1.0" encoding="utf-8"?>
<!-- Generator: Adobe Illustrator 16.0.0, SVG Export Plug-In . SVG Version: 6.00 Build 0)  -->
<!DOCTYPE svg PUBLIC "-//W3C//DTD SVG 1.1//EN" "http://www.w3.org/Graphics/SVG/1.1/DTD/svg11.dtd">
<svg version="1.1" id="Layer_1" xmlns="http://www.w3.org/2000/svg" xmlns:xlink="http://www.w3.org/1999/xlink" x="0px" y="0px"
	 width="321.333px" height="226.667px" viewBox="-1110.514 -685.177 321.333 226.667"
	 enable-background="new -1110.514 -685.177 321.333 226.667" xml:space="preserve">
<path d="M-931.328-518.068l-1.823-9.758h-32.682l-1.864,10.064c-1.19,3.224-4.811,6.558-4.811,7.384v1.029
	c0,0.861,0.857,1.544,1.917,1.544h42.197c1.059,0,1.918-0.698,1.918-1.544v-1.029C-926.478-511.224-930.271-514.753-931.328-518.068
	z"/>
<path d="M-875.126-637.316h-148.734c-2.014,0-3.662,1.654-3.662,3.667v97.291c0,2.014,1.647,3.667,3.662,3.667h148.736
	c2.013,0,3.66-1.653,3.66-3.667v-97.297C-871.466-635.669-873.114-637.316-875.126-637.316z M-877.704-540.507h-143.578v-89.006
	h143.579L-877.704-540.507L-877.704-540.507z"/>
<path d="M-936.481-582.35v8.513h-26.029v-8.513h-5v11.014c0,1.382,1.117,2.499,2.5,2.499h31.026c1.382,0,2.504-1.117,2.504-2.499
	v-11.014H-936.481z"/>
<path d="M-949.952-603.281l-7.151,8.644c0,0-1.095,1.034,0.084,1.034h4.03v12.599c0,0-0.159,0.612,0.77,0.612h5.678
	c0.667,0,0.645-0.515,0.645-0.515v-12.442h3.728c1.438,0,0.364-1.068,0.364-1.068s-6.095-8.094-6.945-8.942
	C-949.367-603.972-949.952-603.281-949.952-603.281L-949.952-603.281z"/>
</svg>
