<?xml version="1.0" encoding="utf-8"?>
<!-- Generator: Adobe Illustrator 16.0.0, SVG Export Plug-In . SVG Version: 6.00 Build 0)  -->
<!DOCTYPE svg PUBLIC "-//W3C//DTD SVG 1.1//EN" "http://www.w3.org/Graphics/SVG/1.1/DTD/svg11.dtd">
<svg version="1.1" id="Layer_1" xmlns="http://www.w3.org/2000/svg" xmlns:xlink="http://www.w3.org/1999/xlink" x="0px" y="0px"
	 width="321.333px" height="226.667px" viewBox="-1110.514 -685.177 321.333 226.667"
	 enable-background="new -1110.514 -685.177 321.333 226.667" xml:space="preserve">
<path d="M-941.632-535.826h-4.24v-26.839c0,0,0.166-0.645-0.806-0.645h-7.783c-0.703,0-0.677,0.542-0.677,0.542v26.675h-3.93
	c-1.512,0-0.372,1.123-0.372,1.123s7.32,8.507,8.209,9.408c0.643,0.644,1.257-0.083,1.257-0.083l8.437-9.093
	C-941.535-534.742-940.387-535.826-941.632-535.826z"/>
<path d="M-901.436-584.086c-3.881-10.276-13.811-17.604-25.442-17.604c-2.675,0-5.265,0.387-7.708,1.128
	c-6.632-10.714-18.462-17.83-31.963-17.83c-20.506,0-37.174,16.404-37.603,36.78c-7.5,4.341-12.542,12.444-12.542,21.705
	c0,13.832,11.243,25.066,25.072,25.066h22.357v-8.364h-22.378c-9.2,0-16.685-7.465-16.685-16.707
	c0-7.893,5.482-14.547,12.889-16.278c-0.246-1.49-0.365-3.041-0.365-4.614c0-16.157,13.101-29.227,29.256-29.227
	c13.197,0,24.354,8.75,27.986,20.76c3.224-2.547,7.263-4.057,11.685-4.057c9.694,0,17.649,7.3,18.687,16.707h0.126
	c9.218,0,16.708,7.486,16.708,16.71c0,9.218-7.466,16.708-16.708,16.708h-22.354v8.364h22.354c13.833,0,25.065-11.254,25.065-25.066
	C-882.997-571.457-890.81-581.186-901.436-584.086z"/>
</svg>
