<?xml version="1.0" encoding="utf-8"?>
<!-- Generator: Adobe Illustrator 16.0.0, SVG Export Plug-In . SVG Version: 6.00 Build 0)  -->
<!DOCTYPE svg PUBLIC "-//W3C//DTD SVG 1.1//EN" "http://www.w3.org/Graphics/SVG/1.1/DTD/svg11.dtd">
<svg version="1.1" id="Layer_1" xmlns="http://www.w3.org/2000/svg" xmlns:xlink="http://www.w3.org/1999/xlink" x="0px" y="0px"
	 width="321.333px" height="226.667px" viewBox="-1110.514 -685.177 321.333 226.667"
	 enable-background="new -1110.514 -685.177 321.333 226.667" xml:space="preserve">
<path d="M-830.144-604.873h-239.403c-2.131,0-3.874,1.745-3.874,3.875v58.309c0,2.132,1.743,3.874,3.874,3.874h239.4
	c2.131,0,3.873-1.742,3.873-3.874v-58.309C-826.272-603.128-828.013-604.873-830.144-604.873z M-831.961-544.792h-235.769v-54.098
	h235.769V-544.792L-831.961-544.792z"/>
<path d="M-1035.934-563.006c0,0.114-0.03,0.214-0.1,0.302c-0.073,0.085-0.186,0.155-0.341,0.213
	c-0.159,0.055-0.379,0.096-0.658,0.129c-0.28,0.029-0.624,0.042-1.04,0.042c-0.421,0-0.768-0.016-1.048-0.042
	c-0.276-0.028-0.497-0.074-0.656-0.129c-0.161-0.058-0.273-0.132-0.342-0.213c-0.069-0.084-0.102-0.188-0.102-0.302v-8.7
	c0-0.741-0.055-1.322-0.163-1.745c-0.108-0.423-0.263-0.784-0.47-1.089c-0.207-0.301-0.476-0.533-0.795-0.701
	c-0.324-0.163-0.704-0.246-1.141-0.246c-0.543,0-1.096,0.196-1.655,0.592c-0.558,0.4-1.145,0.983-1.744,1.742v10.138
	c0,0.114-0.035,0.214-0.103,0.302c-0.067,0.086-0.187,0.154-0.35,0.213c-0.166,0.054-0.384,0.096-0.658,0.129
	c-0.274,0.029-0.622,0.042-1.043,0.042c-0.419,0-0.763-0.016-1.038-0.042c-0.273-0.028-0.495-0.075-0.659-0.129
	c-0.166-0.059-0.281-0.132-0.35-0.213c-0.071-0.084-0.103-0.188-0.103-0.302v-22.472c0-0.113,0.031-0.211,0.103-0.308
	c0.068-0.089,0.184-0.167,0.35-0.23c0.165-0.062,0.386-0.112,0.659-0.145c0.273-0.031,0.621-0.051,1.038-0.051
	c0.422,0,0.77,0.02,1.043,0.051c0.273,0.033,0.492,0.085,0.658,0.145c0.163,0.063,0.283,0.139,0.35,0.23
	c0.068,0.092,0.103,0.196,0.103,0.308v8.432c0.74-0.731,1.492-1.275,2.265-1.638c0.771-0.359,1.569-0.534,2.402-0.534
	c1.037,0,1.911,0.17,2.622,0.512c0.709,0.345,1.289,0.812,1.723,1.403c0.438,0.592,0.759,1.285,0.949,2.076
	c0.197,0.793,0.292,1.753,0.292,2.882L-1035.934-563.006L-1035.934-563.006z"/>
<path d="M-1012.174-564.51c0,0.504-0.032,0.883-0.094,1.15c-0.063,0.259-0.145,0.451-0.252,0.564
	c-0.106,0.114-0.262,0.207-0.464,0.291c-0.196,0.08-0.426,0.155-0.694,0.224c-0.262,0.067-0.549,0.118-0.864,0.154
	c-0.312,0.028-0.627,0.046-0.93,0.046c-0.867,0-1.613-0.108-2.239-0.32c-0.627-0.217-1.146-0.551-1.555-1.002
	c-0.411-0.45-0.708-1.017-0.906-1.704c-0.195-0.684-0.291-1.489-0.291-2.428v-7.811h-6.547v7.161c0,0.828,0.136,1.454,0.394,1.872
	c0.262,0.417,0.729,0.624,1.401,0.624c0.233,0,0.434-0.02,0.616-0.058c0.188-0.04,0.347-0.084,0.486-0.138
	c0.142-0.054,0.263-0.097,0.359-0.141c0.097-0.041,0.19-0.061,0.264-0.061c0.07,0,0.138,0.02,0.197,0.061
	c0.063,0.038,0.112,0.119,0.141,0.239c0.033,0.123,0.064,0.282,0.095,0.487c0.027,0.204,0.041,0.468,0.041,0.786
	c0,0.317-0.013,0.573-0.029,0.76c-0.016,0.188-0.041,0.345-0.068,0.472c-0.029,0.124-0.063,0.23-0.103,0.313
	c-0.04,0.084-0.105,0.166-0.196,0.241c-0.092,0.075-0.238,0.151-0.426,0.233c-0.197,0.079-0.422,0.147-0.684,0.212
	c-0.262,0.062-0.55,0.11-0.868,0.142c-0.308,0.03-0.63,0.05-0.947,0.05c-0.856,0-1.598-0.108-2.219-0.32
	c-0.627-0.217-1.149-0.551-1.555-1.002c-0.412-0.45-0.709-1.017-0.906-1.703c-0.193-0.684-0.291-1.489-0.291-2.428v-7.813h-1.828
	c-0.216,0-0.379-0.134-0.492-0.4c-0.117-0.269-0.176-0.714-0.176-1.344c0-0.329,0.02-0.606,0.045-0.836
	c0.029-0.23,0.071-0.408,0.131-0.538c0.058-0.129,0.13-0.225,0.209-0.282c0.086-0.057,0.191-0.084,0.305-0.084h1.812v-3.4
	c0-0.116,0.028-0.216,0.095-0.308c0.062-0.089,0.176-0.167,0.342-0.23c0.164-0.066,0.385-0.106,0.664-0.141
	c0.28-0.028,0.626-0.042,1.035-0.042c0.422,0,0.773,0.019,1.052,0.042c0.279,0.03,0.496,0.076,0.653,0.141
	c0.159,0.063,0.273,0.139,0.346,0.23c0.07,0.088,0.099,0.193,0.099,0.308v3.4h6.547v-4.221c0-0.117,0.03-0.217,0.093-0.309
	c0.063-0.092,0.176-0.166,0.343-0.223c0.165-0.056,0.386-0.104,0.666-0.138c0.28-0.033,0.623-0.051,1.035-0.051
	c0.422,0,0.771,0.019,1.05,0.051c0.28,0.029,0.499,0.082,0.655,0.138c0.158,0.057,0.272,0.13,0.346,0.223
	c0.067,0.089,0.096,0.196,0.096,0.309v4.221h3.318c0.116,0,0.21,0.027,0.296,0.084c0.079,0.057,0.145,0.153,0.209,0.282
	c0.066,0.135,0.106,0.309,0.141,0.538c0.028,0.23,0.042,0.507,0.042,0.836c0,0.63-0.06,1.076-0.183,1.344
	c-0.123,0.266-0.282,0.4-0.483,0.4h-3.333v7.16c0,0.83,0.134,1.453,0.385,1.875c0.256,0.417,0.726,0.624,1.41,0.624
	c0.233,0,0.433-0.02,0.616-0.058c0.187-0.04,0.342-0.087,0.479-0.141c0.137-0.052,0.253-0.095,0.358-0.138
	c0.105-0.043,0.197-0.061,0.274-0.061c0.068,0,0.135,0.02,0.193,0.061c0.055,0.038,0.101,0.118,0.141,0.239
	c0.04,0.119,0.074,0.282,0.103,0.487C-1012.19-565.091-1012.174-564.826-1012.174-564.51z"/>
<path d="M-993.713-570.85c0,1.355-0.145,2.579-0.434,3.667c-0.292,1.09-0.715,2.014-1.273,2.779
	c-0.56,0.763-1.253,1.352-2.086,1.761c-0.833,0.413-1.784,0.613-2.856,0.613c-0.443,0-0.851-0.037-1.217-0.124
	c-0.37-0.084-0.729-0.217-1.081-0.395c-0.349-0.179-0.693-0.398-1.034-0.658c-0.342-0.259-0.701-0.569-1.059-0.925v7.178
	c0,0.115-0.035,0.218-0.104,0.308c-0.068,0.091-0.186,0.168-0.35,0.231c-0.166,0.067-0.385,0.11-0.659,0.145
	c-0.273,0.033-0.621,0.049-1.039,0.049c-0.422,0-0.768-0.016-1.042-0.049c-0.272-0.034-0.492-0.085-0.657-0.145
	c-0.167-0.063-0.283-0.14-0.351-0.231c-0.068-0.085-0.103-0.195-0.103-0.308v-21.299c0-0.113,0.029-0.214,0.085-0.301
	c0.058-0.085,0.155-0.155,0.298-0.211c0.144-0.058,0.332-0.1,0.566-0.13c0.233-0.029,0.53-0.04,0.878-0.04
	c0.344,0,0.63,0.012,0.864,0.04c0.233,0.028,0.422,0.072,0.564,0.13c0.142,0.057,0.246,0.129,0.303,0.211
	c0.059,0.084,0.084,0.188,0.084,0.301v1.794c0.445-0.457,0.88-0.859,1.31-1.207c0.426-0.347,0.866-0.639,1.31-0.871
	c0.445-0.23,0.904-0.406,1.375-0.522c0.478-0.113,0.982-0.17,1.514-0.17c1.116,0,2.068,0.22,2.854,0.658
	c0.786,0.436,1.432,1.038,1.925,1.805c0.495,0.758,0.86,1.654,1.09,2.665C-993.826-573.085-993.713-572.003-993.713-570.85z
	 M-998.192-570.545c0-0.647-0.049-1.272-0.146-1.875c-0.092-0.593-0.255-1.13-0.491-1.6c-0.237-0.47-0.541-0.839-0.927-1.12
	c-0.381-0.279-0.858-0.422-1.429-0.422c-0.284,0-0.567,0.042-0.846,0.131c-0.28,0.084-0.568,0.226-0.859,0.421
	c-0.291,0.196-0.588,0.443-0.896,0.752c-0.306,0.311-0.632,0.694-0.973,1.149v5.024c0.603,0.762,1.179,1.354,1.726,1.769
	c0.542,0.417,1.116,0.624,1.709,0.624c0.558,0,1.039-0.139,1.431-0.422c0.393-0.289,0.711-0.657,0.968-1.118
	c0.25-0.467,0.434-0.982,0.555-1.565C-998.251-569.38-998.192-569.963-998.192-570.545z"/>
<path d="M-984.876-575.927c0,0.476-0.035,0.873-0.118,1.194c-0.082,0.321-0.214,0.584-0.403,0.791
	c-0.189,0.201-0.435,0.349-0.743,0.432c-0.309,0.084-0.701,0.13-1.163,0.13c-0.47,0-0.855-0.042-1.163-0.13
	c-0.308-0.086-0.556-0.23-0.743-0.432c-0.189-0.207-0.315-0.47-0.384-0.791c-0.07-0.316-0.103-0.716-0.103-1.194
	c0-0.491,0.033-0.903,0.103-1.233c0.068-0.329,0.197-0.594,0.384-0.806c0.187-0.203,0.434-0.353,0.743-0.445
	c0.309-0.087,0.699-0.138,1.163-0.138s0.855,0.046,1.163,0.138c0.307,0.094,0.554,0.242,0.743,0.445
	c0.188,0.207,0.321,0.478,0.403,0.806C-984.914-576.83-984.876-576.418-984.876-575.927z M-984.876-564.766
	c0,0.476-0.035,0.877-0.118,1.207c-0.082,0.325-0.214,0.59-0.403,0.794c-0.189,0.203-0.435,0.35-0.743,0.434
	c-0.309,0.084-0.701,0.13-1.163,0.13c-0.47,0-0.855-0.038-1.163-0.13c-0.308-0.086-0.556-0.231-0.743-0.434
	c-0.189-0.202-0.315-0.47-0.384-0.794c-0.07-0.324-0.103-0.727-0.103-1.207c0-0.481,0.033-0.887,0.103-1.222
	c0.068-0.335,0.197-0.607,0.384-0.814c0.187-0.204,0.434-0.351,0.743-0.432c0.309-0.085,0.699-0.133,1.163-0.133
	s0.855,0.041,1.163,0.133c0.308,0.084,0.554,0.229,0.743,0.432c0.188,0.203,0.321,0.478,0.403,0.814
	C-984.914-565.653-984.876-565.243-984.876-564.766z"/>
<path d="M-978.465-557.994c-0.058,0.143-0.132,0.266-0.224,0.362c-0.085,0.085-0.216,0.164-0.381,0.221
	c-0.164,0.057-0.369,0.096-0.612,0.13c-0.251,0.027-0.557,0.042-0.933,0.042c-0.467,0-0.849-0.027-1.147-0.074
	c-0.3-0.042-0.525-0.113-0.676-0.2c-0.151-0.09-0.246-0.209-0.263-0.355c-0.027-0.139,0-0.308,0.068-0.505l10.222-28.699
	c0.046-0.148,0.115-0.271,0.205-0.364c0.091-0.096,0.217-0.178,0.376-0.234c0.154-0.058,0.364-0.096,0.625-0.129
	c0.252-0.027,0.565-0.042,0.926-0.042c0.478,0,0.87,0.026,1.155,0.072c0.292,0.041,0.511,0.115,0.657,0.203
	c0.145,0.088,0.235,0.205,0.252,0.353c0.028,0.14,0.005,0.308-0.051,0.504L-978.465-557.994z"/>
<path d="M-966.155-557.994c-0.057,0.143-0.138,0.266-0.222,0.362c-0.092,0.085-0.22,0.164-0.384,0.221
	c-0.166,0.057-0.371,0.096-0.617,0.13c-0.245,0.027-0.554,0.042-0.932,0.042c-0.467,0-0.848-0.027-1.144-0.074
	c-0.296-0.042-0.522-0.113-0.676-0.2c-0.153-0.09-0.242-0.209-0.263-0.355c-0.023-0.139,0-0.308,0.067-0.505l10.225-28.699
	c0.043-0.148,0.114-0.271,0.203-0.364c0.091-0.096,0.217-0.178,0.376-0.234c0.159-0.058,0.365-0.096,0.624-0.129
	c0.255-0.027,0.567-0.042,0.93-0.042c0.476,0,0.864,0.026,1.151,0.072c0.29,0.041,0.509,0.115,0.659,0.203
	c0.141,0.088,0.231,0.205,0.252,0.353c0.029,0.14,0.01,0.308-0.046,0.504L-966.155-557.994z"/>
</svg>
