<?xml version="1.0" encoding="utf-8"?>
<!-- Generator: Adobe Illustrator 16.0.0, SVG Export Plug-In . SVG Version: 6.00 Build 0)  -->
<!DOCTYPE svg PUBLIC "-//W3C//DTD SVG 1.1//EN" "http://www.w3.org/Graphics/SVG/1.1/DTD/svg11.dtd">
<svg version="1.1" id="Layer_1" xmlns="http://www.w3.org/2000/svg" xmlns:xlink="http://www.w3.org/1999/xlink" x="0px" y="0px"
	 width="237.971px" height="169.979px" viewBox="0 0 237.971 169.979" enable-background="new 0 0 237.971 169.979"
	 xml:space="preserve">
<rect x="0" y="0.011" fill="#EDEDED" width="237.971" height="169.979"/>
<g>
	<path fill="#71C0FF" d="M207.958,59.934H30.228c-1.583,0-2.877,1.294-2.877,2.876v43.289c0,1.582,1.294,2.875,2.877,2.875h177.73
		c1.584,0,2.875-1.293,2.875-2.875V62.81C210.833,61.228,209.542,59.934,207.958,59.934z M206.61,104.534H31.575V64.371H206.61
		V104.534L206.61,104.534z"/>
	<path fill="#71C0FF" d="M55.18,91.015c0,0.084-0.025,0.158-0.075,0.221c-0.053,0.063-0.137,0.117-0.253,0.16
		c-0.119,0.043-0.282,0.072-0.49,0.098c-0.208,0.02-0.463,0.029-0.769,0.029c-0.313,0-0.571-0.012-0.779-0.029
		c-0.207-0.021-0.37-0.055-0.486-0.098c-0.119-0.043-0.203-0.098-0.257-0.16c-0.05-0.063-0.073-0.137-0.073-0.221v-6.458
		c0-0.553-0.04-0.98-0.121-1.296c-0.08-0.313-0.196-0.582-0.351-0.805c-0.15-0.227-0.35-0.397-0.59-0.521
		c-0.241-0.123-0.521-0.184-0.845-0.184c-0.405,0-0.815,0.146-1.23,0.441c-0.414,0.298-0.847,0.729-1.295,1.294v7.526
		c0,0.084-0.023,0.158-0.073,0.221c-0.053,0.063-0.14,0.115-0.263,0.158c-0.122,0.043-0.286,0.074-0.486,0.098
		c-0.203,0.021-0.461,0.031-0.774,0.031c-0.313,0-0.569-0.014-0.772-0.031c-0.201-0.021-0.364-0.055-0.487-0.098
		s-0.209-0.096-0.261-0.158c-0.052-0.062-0.075-0.137-0.075-0.221V74.326c0-0.084,0.023-0.16,0.075-0.229
		c0.052-0.063,0.138-0.122,0.261-0.17c0.123-0.047,0.286-0.083,0.487-0.107c0.203-0.024,0.463-0.036,0.772-0.036
		c0.313,0,0.571,0.012,0.774,0.036c0.2,0.024,0.364,0.063,0.486,0.107c0.123,0.048,0.21,0.104,0.263,0.17
		c0.05,0.068,0.073,0.146,0.073,0.229v6.257c0.553-0.542,1.11-0.946,1.685-1.213c0.571-0.269,1.165-0.399,1.782-0.399
		c0.771,0,1.42,0.129,1.946,0.381c0.528,0.256,0.956,0.604,1.281,1.043c0.325,0.438,0.561,0.951,0.704,1.54
		c0.145,0.587,0.216,1.301,0.216,2.141V91.015L55.18,91.015z"/>
	<path fill="#71C0FF" d="M72.82,89.898c0,0.371-0.022,0.656-0.067,0.854c-0.047,0.191-0.111,0.334-0.19,0.418
		c-0.08,0.084-0.192,0.158-0.343,0.217c-0.147,0.059-0.319,0.113-0.515,0.162c-0.194,0.053-0.408,0.09-0.643,0.115
		c-0.23,0.025-0.464,0.039-0.689,0.039c-0.646,0-1.197-0.08-1.663-0.24c-0.465-0.162-0.853-0.408-1.154-0.744
		c-0.305-0.334-0.528-0.754-0.673-1.262c-0.146-0.51-0.216-1.107-0.216-1.805v-5.8h-4.86v5.317c0,0.617,0.099,1.08,0.291,1.391
		c0.195,0.311,0.542,0.463,1.042,0.463c0.169,0,0.321-0.016,0.456-0.045c0.137-0.027,0.256-0.063,0.362-0.102
		c0.104-0.039,0.192-0.072,0.266-0.104c0.072-0.027,0.139-0.045,0.197-0.045c0.051,0,0.1,0.018,0.146,0.045
		c0.046,0.029,0.082,0.092,0.106,0.18c0.023,0.088,0.048,0.209,0.069,0.359c0.021,0.15,0.03,0.348,0.03,0.584
		c0,0.234-0.008,0.424-0.021,0.563c-0.015,0.141-0.029,0.256-0.05,0.352c-0.021,0.092-0.049,0.17-0.076,0.232
		c-0.03,0.063-0.079,0.123-0.146,0.18c-0.066,0.055-0.175,0.111-0.315,0.17c-0.146,0.063-0.313,0.111-0.509,0.158
		c-0.194,0.047-0.407,0.082-0.643,0.107c-0.231,0.025-0.468,0.039-0.703,0.039c-0.636,0-1.186-0.08-1.648-0.24
		c-0.467-0.162-0.853-0.408-1.154-0.744c-0.305-0.334-0.528-0.754-0.673-1.262c-0.146-0.51-0.216-1.107-0.216-1.805v-5.801H57.26
		c-0.16,0-0.284-0.098-0.368-0.297c-0.086-0.196-0.128-0.53-0.128-0.996c0-0.245,0.012-0.452,0.031-0.621
		c0.021-0.17,0.055-0.303,0.097-0.398c0.042-0.099,0.096-0.166,0.157-0.21c0.063-0.041,0.14-0.063,0.224-0.063h1.347v-2.526
		c0-0.083,0.021-0.158,0.068-0.228c0.046-0.067,0.131-0.125,0.254-0.173c0.122-0.045,0.287-0.079,0.495-0.103
		c0.207-0.021,0.463-0.029,0.769-0.029c0.313,0,0.572,0.01,0.78,0.029c0.206,0.021,0.369,0.058,0.486,0.103
		c0.119,0.048,0.203,0.104,0.255,0.173c0.052,0.065,0.075,0.145,0.075,0.228v2.526h4.86v-3.134c0-0.085,0.021-0.161,0.067-0.229
		c0.048-0.065,0.132-0.121,0.255-0.164c0.122-0.042,0.287-0.074,0.495-0.104c0.207-0.024,0.462-0.038,0.769-0.038
		c0.313,0,0.571,0.014,0.78,0.038c0.206,0.025,0.368,0.062,0.488,0.104c0.116,0.043,0.201,0.099,0.253,0.164
		c0.051,0.068,0.075,0.146,0.075,0.229v3.134h2.463c0.085,0,0.156,0.021,0.216,0.063c0.061,0.044,0.11,0.111,0.158,0.21
		c0.047,0.099,0.079,0.229,0.104,0.398c0.021,0.169,0.03,0.376,0.03,0.621c0,0.466-0.045,0.8-0.134,0.996
		c-0.089,0.199-0.209,0.297-0.361,0.297h-2.476v5.318c0,0.617,0.096,1.08,0.286,1.391c0.188,0.311,0.539,0.463,1.046,0.463
		c0.17,0,0.321-0.016,0.457-0.045c0.137-0.029,0.255-0.063,0.354-0.102c0.104-0.039,0.188-0.072,0.269-0.104
		c0.076-0.027,0.145-0.045,0.203-0.045c0.051,0,0.098,0.018,0.141,0.045c0.042,0.029,0.077,0.09,0.106,0.18
		c0.028,0.088,0.055,0.209,0.076,0.359C72.81,89.466,72.82,89.659,72.82,89.898z"/>
	<path fill="#71C0FF" d="M86.527,85.19c0,1.009-0.107,1.915-0.322,2.724c-0.218,0.809-0.531,1.496-0.945,2.063
		c-0.415,0.564-0.931,1.002-1.548,1.309c-0.619,0.305-1.325,0.453-2.12,0.453c-0.33,0-0.632-0.029-0.907-0.096
		c-0.272-0.063-0.542-0.158-0.799-0.291c-0.259-0.131-0.515-0.293-0.769-0.488c-0.256-0.191-0.519-0.422-0.786-0.686v5.328
		c0,0.086-0.026,0.162-0.076,0.229c-0.052,0.064-0.138,0.123-0.261,0.171s-0.285,0.085-0.488,0.106
		C77.3,96.04,77.042,96.05,76.73,96.05c-0.312,0-0.569-0.01-0.772-0.037c-0.203-0.021-0.365-0.063-0.488-0.105
		c-0.123-0.049-0.209-0.104-0.261-0.172c-0.05-0.066-0.075-0.145-0.075-0.229V79.694c0-0.084,0.021-0.156,0.063-0.222
		c0.042-0.063,0.115-0.115,0.224-0.157c0.104-0.044,0.245-0.073,0.419-0.096c0.173-0.021,0.392-0.031,0.653-0.031
		c0.254,0,0.467,0.012,0.642,0.031c0.173,0.021,0.313,0.052,0.418,0.096c0.105,0.042,0.182,0.097,0.224,0.157
		c0.042,0.063,0.063,0.138,0.063,0.222v1.333c0.331-0.338,0.654-0.637,0.972-0.895c0.317-0.259,0.644-0.476,0.972-0.646
		c0.329-0.174,0.673-0.303,1.021-0.388c0.352-0.086,0.727-0.128,1.123-0.128c0.828,0,1.535,0.163,2.119,0.49
		c0.584,0.324,1.061,0.771,1.428,1.339c0.368,0.565,0.637,1.229,0.808,1.979C86.441,83.532,86.527,84.335,86.527,85.19z
		 M83.2,85.418c0-0.482-0.036-0.946-0.108-1.392c-0.071-0.442-0.193-0.84-0.368-1.188c-0.174-0.347-0.398-0.625-0.685-0.832
		s-0.64-0.313-1.063-0.313c-0.211,0-0.422,0.032-0.628,0.097c-0.207,0.063-0.419,0.167-0.636,0.312
		c-0.216,0.146-0.438,0.332-0.666,0.561c-0.229,0.229-0.47,0.513-0.723,0.854v3.729c0.445,0.564,0.875,1.004,1.279,1.313
		c0.405,0.31,0.828,0.463,1.271,0.463c0.415,0,0.769-0.105,1.062-0.316c0.291-0.211,0.529-0.488,0.717-0.83
		c0.188-0.346,0.323-0.73,0.412-1.162C83.156,86.282,83.2,85.85,83.2,85.418z"/>
	<path fill="#71C0FF" d="M93.085,81.421c0,0.354-0.029,0.648-0.088,0.889c-0.062,0.237-0.159,0.435-0.299,0.585
		c-0.142,0.149-0.324,0.259-0.554,0.321c-0.229,0.062-0.517,0.097-0.861,0.097c-0.348,0-0.636-0.03-0.862-0.097
		c-0.229-0.063-0.413-0.172-0.553-0.321c-0.142-0.15-0.234-0.348-0.285-0.585c-0.051-0.235-0.076-0.532-0.076-0.889
		c0-0.362,0.025-0.67,0.076-0.915c0.051-0.244,0.146-0.442,0.285-0.596c0.139-0.154,0.321-0.264,0.553-0.329
		c0.229-0.067,0.517-0.104,0.862-0.104c0.348,0,0.635,0.033,0.861,0.104c0.229,0.065,0.412,0.176,0.554,0.329
		c0.14,0.15,0.237,0.352,0.299,0.596C93.056,80.751,93.085,81.059,93.085,81.421z M93.085,89.706c0,0.354-0.029,0.652-0.088,0.896
		c-0.062,0.24-0.159,0.438-0.299,0.59c-0.142,0.15-0.324,0.262-0.554,0.322c-0.229,0.064-0.517,0.096-0.861,0.096
		c-0.348,0-0.636-0.029-0.862-0.096c-0.229-0.063-0.413-0.172-0.553-0.322c-0.142-0.15-0.234-0.35-0.285-0.59
		s-0.076-0.539-0.076-0.896c0-0.355,0.025-0.656,0.076-0.906s0.146-0.449,0.285-0.604c0.14-0.148,0.321-0.258,0.553-0.32
		c0.229-0.063,0.517-0.098,0.862-0.098c0.348,0,0.635,0.031,0.861,0.098c0.229,0.063,0.412,0.172,0.554,0.32
		c0.14,0.154,0.237,0.354,0.299,0.604C93.056,89.05,93.085,89.353,93.085,89.706z"/>
	<path fill="#71C0FF" d="M97.844,94.734c-0.042,0.107-0.097,0.199-0.164,0.268c-0.067,0.067-0.164,0.123-0.285,0.164
		c-0.122,0.045-0.273,0.072-0.457,0.098c-0.182,0.021-0.412,0.031-0.688,0.031c-0.35,0-0.63-0.02-0.853-0.053
		c-0.222-0.031-0.389-0.084-0.502-0.15c-0.111-0.066-0.181-0.154-0.195-0.262c-0.02-0.104,0-0.229,0.052-0.373l7.589-21.309
		c0.034-0.108,0.085-0.198,0.152-0.271c0.064-0.071,0.158-0.129,0.277-0.17c0.117-0.044,0.271-0.075,0.462-0.098
		c0.19-0.021,0.422-0.031,0.691-0.031c0.354,0,0.643,0.019,0.854,0.052c0.219,0.033,0.381,0.085,0.489,0.153
		c0.109,0.065,0.173,0.151,0.189,0.259c0.018,0.104,0.004,0.229-0.039,0.375L97.844,94.734z"/>
	<path fill="#71C0FF" d="M106.984,94.734c-0.042,0.107-0.099,0.199-0.165,0.268c-0.066,0.066-0.16,0.123-0.283,0.164
		c-0.123,0.045-0.275,0.072-0.458,0.098c-0.183,0.021-0.411,0.031-0.69,0.031c-0.347,0-0.631-0.02-0.851-0.053
		c-0.222-0.031-0.39-0.084-0.502-0.15c-0.113-0.066-0.181-0.154-0.195-0.262c-0.02-0.104,0-0.229,0.051-0.373l7.589-21.309
		c0.033-0.108,0.084-0.198,0.152-0.271c0.064-0.071,0.16-0.129,0.278-0.17c0.117-0.044,0.271-0.075,0.463-0.098
		c0.189-0.021,0.421-0.031,0.69-0.031c0.354,0,0.642,0.019,0.855,0.052s0.378,0.085,0.488,0.153
		c0.108,0.065,0.174,0.151,0.188,0.259c0.017,0.104,0.005,0.229-0.039,0.375L106.984,94.734z"/>
</g>
<g>
	
		<linearGradient id="SVGID_1_" gradientUnits="userSpaceOnUse" x1="400.345" y1="207.4543" x2="485.012" y2="307.1208" gradientTransform="matrix(1 0 0 1 -552 -441.0215)">
		<stop  offset="0" style="stop-color:#4677C1"/>
		<stop  offset="1" style="stop-color:#528CE3"/>
	</linearGradient>
	<path fill="url(#SVGID_1_)" d="M207.682,60.299H29.95c-1.582,0-2.876,1.295-2.876,2.877v43.288c0,1.583,1.294,2.876,2.876,2.876
		h177.73c1.582,0,2.875-1.293,2.875-2.876V63.176C210.557,61.595,209.264,60.299,207.682,60.299z M206.333,104.903H31.3V64.74
		h175.033V104.903L206.333,104.903z"/>
	
		<linearGradient id="SVGID_2_" gradientUnits="userSpaceOnUse" x1="359.1819" y1="242.4446" x2="443.8447" y2="342.1062" gradientTransform="matrix(1 0 0 1 -552 -441.0215)">
		<stop  offset="0" style="stop-color:#4677C1"/>
		<stop  offset="1" style="stop-color:#528CE3"/>
	</linearGradient>
	<path fill="url(#SVGID_2_)" d="M54.905,91.381c0,0.085-0.023,0.159-0.075,0.225c-0.053,0.063-0.137,0.115-0.253,0.158
		c-0.118,0.041-0.281,0.071-0.488,0.096c-0.208,0.021-0.463,0.031-0.771,0.031c-0.313,0-0.571-0.012-0.779-0.031
		c-0.205-0.021-0.369-0.055-0.487-0.096c-0.119-0.043-0.203-0.098-0.254-0.158c-0.051-0.063-0.075-0.14-0.075-0.225v-6.459
		c0-0.55-0.041-0.981-0.121-1.295c-0.08-0.314-0.196-0.582-0.349-0.808c-0.153-0.224-0.353-0.396-0.591-0.521
		c-0.24-0.121-0.522-0.183-0.846-0.183c-0.404,0-0.814,0.146-1.229,0.44c-0.414,0.297-0.849,0.729-1.295,1.293v7.526
		c0,0.085-0.025,0.159-0.076,0.225c-0.05,0.063-0.139,0.114-0.26,0.158c-0.123,0.04-0.285,0.071-0.488,0.096
		c-0.203,0.021-0.462,0.031-0.774,0.031c-0.312,0-0.567-0.012-0.771-0.031c-0.203-0.021-0.367-0.056-0.489-0.096
		c-0.123-0.044-0.209-0.098-0.26-0.158c-0.053-0.063-0.076-0.14-0.076-0.225V74.692c0-0.084,0.023-0.158,0.076-0.229
		c0.051-0.066,0.137-0.124,0.26-0.171c0.122-0.046,0.286-0.083,0.489-0.107s0.461-0.038,0.771-0.038
		c0.313,0,0.571,0.014,0.774,0.038s0.365,0.063,0.488,0.107c0.121,0.047,0.21,0.104,0.26,0.171c0.051,0.068,0.076,0.146,0.076,0.229
		v6.259c0.55-0.543,1.108-0.946,1.682-1.215c0.572-0.267,1.165-0.397,1.783-0.397c0.77,0,1.419,0.126,1.946,0.38
		c0.527,0.256,0.957,0.603,1.28,1.042c0.325,0.439,0.563,0.954,0.704,1.541c0.146,0.589,0.217,1.302,0.217,2.14V91.381
		L54.905,91.381z"/>
	
		<linearGradient id="SVGID_3_" gradientUnits="userSpaceOnUse" x1="369.2698" y1="233.8274" x2="453.9409" y2="333.4987" gradientTransform="matrix(1 0 0 1 -552 -441.0215)">
		<stop  offset="0" style="stop-color:#4677C1"/>
		<stop  offset="1" style="stop-color:#528CE3"/>
	</linearGradient>
	<path fill="url(#SVGID_3_)" d="M72.544,90.265c0,0.374-0.023,0.655-0.069,0.853c-0.047,0.193-0.108,0.335-0.188,0.419
		c-0.079,0.085-0.194,0.154-0.344,0.216c-0.146,0.06-0.317,0.115-0.516,0.166c-0.194,0.05-0.407,0.088-0.642,0.114
		c-0.231,0.021-0.465,0.035-0.69,0.035c-0.644,0-1.197-0.08-1.662-0.238c-0.466-0.161-0.851-0.409-1.154-0.744
		c-0.305-0.334-0.526-0.755-0.673-1.264c-0.145-0.508-0.216-1.106-0.216-1.803V82.22h-4.86v5.316c0,0.615,0.1,1.079,0.292,1.39
		c0.194,0.31,0.541,0.463,1.04,0.463c0.172,0,0.322-0.015,0.457-0.043c0.139-0.029,0.257-0.063,0.361-0.103
		c0.105-0.04,0.195-0.072,0.267-0.104c0.072-0.03,0.141-0.045,0.196-0.045c0.052,0,0.102,0.015,0.146,0.045
		c0.047,0.028,0.083,0.088,0.105,0.178c0.024,0.09,0.048,0.209,0.07,0.361c0.021,0.151,0.03,0.348,0.03,0.583
		s-0.009,0.426-0.021,0.564c-0.012,0.14-0.03,0.256-0.051,0.351c-0.021,0.092-0.047,0.171-0.076,0.232
		c-0.029,0.063-0.078,0.123-0.146,0.179c-0.068,0.056-0.176,0.112-0.316,0.173c-0.146,0.059-0.313,0.109-0.508,0.157
		c-0.194,0.046-0.408,0.082-0.644,0.106c-0.229,0.022-0.468,0.037-0.703,0.037c-0.636,0-1.187-0.08-1.648-0.238
		c-0.466-0.161-0.853-0.409-1.154-0.744c-0.306-0.334-0.527-0.755-0.673-1.264c-0.144-0.508-0.216-1.106-0.216-1.803v-5.8h-1.357
		c-0.16,0-0.282-0.099-0.366-0.297c-0.086-0.199-0.13-0.53-0.13-0.998c0-0.244,0.014-0.45,0.033-0.621
		c0.021-0.171,0.053-0.303,0.097-0.399c0.043-0.096,0.097-0.167,0.156-0.209c0.063-0.042,0.141-0.063,0.226-0.063h1.345v-2.524
		c0-0.086,0.021-0.16,0.07-0.229c0.046-0.066,0.131-0.124,0.254-0.171c0.122-0.048,0.286-0.079,0.493-0.104
		c0.208-0.021,0.465-0.031,0.769-0.031c0.313,0,0.574,0.013,0.781,0.031c0.207,0.022,0.368,0.057,0.485,0.104
		c0.118,0.047,0.203,0.104,0.256,0.171c0.052,0.066,0.074,0.144,0.074,0.229v2.524h4.86v-3.134c0-0.086,0.022-0.161,0.069-0.229
		s0.131-0.123,0.255-0.165c0.122-0.042,0.286-0.077,0.494-0.103c0.208-0.024,0.463-0.038,0.769-0.038
		c0.313,0,0.572,0.014,0.779,0.038c0.208,0.022,0.37,0.061,0.487,0.103s0.202,0.097,0.256,0.165c0.05,0.066,0.072,0.145,0.072,0.229
		v3.134h2.463c0.086,0,0.156,0.021,0.219,0.063c0.059,0.042,0.108,0.113,0.156,0.209c0.048,0.1,0.079,0.229,0.104,0.399
		c0.021,0.171,0.031,0.377,0.031,0.621c0,0.468-0.044,0.799-0.135,0.998c-0.091,0.198-0.209,0.297-0.359,0.297H69.57v5.316
		c0,0.616,0.099,1.078,0.286,1.391c0.19,0.31,0.539,0.463,1.047,0.463c0.172,0,0.321-0.015,0.457-0.043
		c0.138-0.029,0.254-0.064,0.355-0.104c0.102-0.038,0.188-0.071,0.266-0.103s0.146-0.045,0.203-0.045c0.051,0,0.1,0.015,0.143,0.045
		c0.041,0.028,0.076,0.088,0.105,0.178c0.029,0.088,0.055,0.209,0.076,0.361C72.532,89.833,72.544,90.03,72.544,90.265z"/>
	
		<linearGradient id="SVGID_4_" gradientUnits="userSpaceOnUse" x1="375.967" y1="228.1614" x2="460.634" y2="327.8279" gradientTransform="matrix(1 0 0 1 -552 -441.0215)">
		<stop  offset="0" style="stop-color:#4677C1"/>
		<stop  offset="1" style="stop-color:#528CE3"/>
	</linearGradient>
	<path fill="url(#SVGID_4_)" d="M86.249,85.558c0,1.006-0.107,1.914-0.322,2.722c-0.217,0.809-0.531,1.495-0.945,2.063
		c-0.416,0.566-0.931,1.004-1.549,1.308c-0.618,0.306-1.324,0.455-2.12,0.455c-0.329,0-0.632-0.028-0.904-0.092
		c-0.274-0.063-0.541-0.161-0.802-0.293c-0.259-0.133-0.515-0.296-0.768-0.488c-0.254-0.193-0.52-0.423-0.786-0.687v5.329
		c0,0.085-0.026,0.162-0.077,0.229c-0.051,0.067-0.138,0.125-0.26,0.172c-0.123,0.049-0.286,0.082-0.489,0.107
		c-0.203,0.024-0.461,0.036-0.772,0.036c-0.313,0-0.57-0.012-0.773-0.036c-0.202-0.025-0.365-0.063-0.487-0.107
		c-0.124-0.047-0.21-0.104-0.261-0.172c-0.051-0.064-0.076-0.145-0.076-0.229V80.063c0-0.084,0.021-0.159,0.063-0.224
		c0.043-0.063,0.115-0.115,0.222-0.157c0.106-0.043,0.246-0.074,0.42-0.097c0.173-0.021,0.393-0.029,0.652-0.029
		c0.255,0,0.468,0.009,0.642,0.029c0.173,0.021,0.313,0.054,0.419,0.097c0.105,0.042,0.182,0.096,0.224,0.157
		c0.044,0.063,0.063,0.14,0.063,0.224v1.332c0.33-0.339,0.653-0.638,0.972-0.896c0.317-0.258,0.643-0.474,0.973-0.646
		c0.33-0.171,0.671-0.302,1.021-0.388c0.354-0.084,0.729-0.126,1.124-0.126c0.828,0,1.535,0.163,2.119,0.488
		c0.583,0.324,1.062,0.771,1.428,1.34c0.368,0.563,0.639,1.228,0.81,1.979C86.165,83.899,86.249,84.701,86.249,85.558z
		 M82.924,85.784c0-0.48-0.036-0.944-0.108-1.392c-0.069-0.441-0.19-0.839-0.365-1.188c-0.175-0.348-0.401-0.623-0.688-0.831
		c-0.283-0.207-0.637-0.313-1.061-0.313c-0.211,0-0.421,0.031-0.628,0.097c-0.208,0.063-0.421,0.168-0.637,0.313
		S79,82.799,78.772,83.029c-0.228,0.23-0.47,0.515-0.723,0.853v3.73c0.447,0.565,0.875,1.004,1.281,1.313
		c0.403,0.31,0.828,0.463,1.269,0.463c0.414,0,0.771-0.104,1.062-0.314c0.292-0.214,0.529-0.488,0.719-0.83
		c0.186-0.346,0.322-0.729,0.412-1.162C82.88,86.649,82.924,86.216,82.924,85.784z"/>
	
		<linearGradient id="SVGID_5_" gradientUnits="userSpaceOnUse" x1="383.6506" y1="221.634" x2="468.3176" y2="321.3005" gradientTransform="matrix(1 0 0 1 -552 -441.0215)">
		<stop  offset="0" style="stop-color:#4677C1"/>
		<stop  offset="1" style="stop-color:#528CE3"/>
	</linearGradient>
	<path fill="url(#SVGID_5_)" d="M92.81,81.788c0,0.354-0.027,0.649-0.088,0.887c-0.061,0.238-0.159,0.434-0.299,0.587
		c-0.141,0.149-0.323,0.259-0.552,0.32c-0.229,0.063-0.52,0.097-0.863,0.097c-0.349,0-0.635-0.031-0.863-0.097
		c-0.229-0.063-0.413-0.171-0.552-0.32c-0.141-0.153-0.234-0.349-0.285-0.587c-0.052-0.234-0.076-0.531-0.076-0.887
		c0-0.364,0.024-0.67,0.076-0.915c0.051-0.244,0.146-0.441,0.285-0.598c0.139-0.151,0.322-0.262,0.552-0.33
		c0.229-0.065,0.518-0.103,0.863-0.103s0.635,0.034,0.863,0.103c0.228,0.069,0.411,0.179,0.552,0.33
		c0.14,0.153,0.238,0.354,0.299,0.598C92.781,81.118,92.81,81.424,92.81,81.788z M92.81,90.074c0,0.354-0.027,0.652-0.088,0.896
		c-0.061,0.241-0.159,0.438-0.299,0.59c-0.141,0.15-0.323,0.26-0.552,0.322c-0.229,0.063-0.52,0.097-0.863,0.097
		c-0.349,0-0.635-0.029-0.863-0.097c-0.229-0.063-0.413-0.172-0.552-0.322c-0.141-0.15-0.234-0.349-0.285-0.59
		c-0.052-0.24-0.076-0.539-0.076-0.896c0-0.357,0.024-0.658,0.076-0.907c0.051-0.249,0.146-0.451,0.285-0.604
		c0.139-0.152,0.322-0.261,0.552-0.321c0.229-0.063,0.518-0.098,0.863-0.098s0.635,0.03,0.863,0.098
		c0.229,0.063,0.411,0.17,0.552,0.321c0.14,0.15,0.238,0.354,0.299,0.604C92.781,89.416,92.81,89.72,92.81,90.074z"/>
	
		<linearGradient id="SVGID_6_" gradientUnits="userSpaceOnUse" x1="389.5383" y1="216.5959" x2="474.2114" y2="316.2695" gradientTransform="matrix(1 0 0 1 -552 -441.0215)">
		<stop  offset="0" style="stop-color:#4677C1"/>
		<stop  offset="1" style="stop-color:#528CE3"/>
	</linearGradient>
	<path fill="url(#SVGID_6_)" d="M97.57,95.102c-0.043,0.106-0.098,0.197-0.166,0.268c-0.064,0.064-0.161,0.122-0.284,0.164
		c-0.121,0.042-0.273,0.072-0.454,0.097c-0.186,0.021-0.413,0.031-0.692,0.031c-0.347,0-0.63-0.02-0.852-0.054
		c-0.222-0.032-0.389-0.084-0.502-0.149c-0.112-0.066-0.182-0.155-0.195-0.263c-0.02-0.104,0-0.229,0.051-0.375l7.589-21.306
		c0.034-0.11,0.085-0.201,0.152-0.271c0.067-0.071,0.161-0.131,0.279-0.173c0.115-0.043,0.271-0.072,0.464-0.096
		c0.188-0.021,0.42-0.031,0.688-0.031c0.354,0,0.645,0.019,0.857,0.053c0.217,0.031,0.379,0.085,0.487,0.151
		c0.108,0.065,0.175,0.152,0.188,0.261c0.02,0.104,0.004,0.229-0.038,0.374L97.57,95.102z"/>
	
		<linearGradient id="SVGID_7_" gradientUnits="userSpaceOnUse" x1="394.8635" y1="212.1086" x2="479.5305" y2="311.7751" gradientTransform="matrix(1 0 0 1 -552 -441.0215)">
		<stop  offset="0" style="stop-color:#4677C1"/>
		<stop  offset="1" style="stop-color:#528CE3"/>
	</linearGradient>
	<path fill="url(#SVGID_7_)" d="M106.708,95.102c-0.042,0.106-0.102,0.197-0.165,0.268c-0.068,0.064-0.163,0.122-0.285,0.164
		c-0.123,0.042-0.275,0.072-0.458,0.097c-0.182,0.021-0.411,0.031-0.691,0.031c-0.347,0-0.63-0.02-0.85-0.054
		c-0.22-0.032-0.388-0.084-0.502-0.149c-0.113-0.066-0.18-0.155-0.195-0.263c-0.018-0.104,0-0.229,0.05-0.375l7.59-21.306
		c0.033-0.11,0.085-0.201,0.151-0.271c0.067-0.071,0.161-0.131,0.279-0.173c0.118-0.043,0.271-0.072,0.463-0.096
		c0.189-0.021,0.421-0.031,0.69-0.031c0.354,0,0.642,0.019,0.855,0.053c0.215,0.031,0.378,0.085,0.489,0.151
		c0.105,0.065,0.172,0.152,0.188,0.261c0.021,0.104,0.007,0.229-0.035,0.374L106.708,95.102z"/>
</g>
</svg>
