<?xml version="1.0" encoding="utf-8"?>
<!-- Generator: Adobe Illustrator 16.0.0, SVG Export Plug-In . SVG Version: 6.00 Build 0)  -->
<!DOCTYPE svg PUBLIC "-//W3C//DTD SVG 1.1//EN" "http://www.w3.org/Graphics/SVG/1.1/DTD/svg11.dtd">
<svg version="1.1" id="Layer_1" xmlns="http://www.w3.org/2000/svg" xmlns:xlink="http://www.w3.org/1999/xlink" x="0px" y="0px"
	 width="237.971px" height="169.979px" viewBox="0 0 237.971 169.979" enable-background="new 0 0 237.971 169.979"
	 xml:space="preserve">
<rect x="0" y="0" fill="#EDEDED" width="237.971" height="169.979"/>
<g>
	<path fill="#71C0FF" d="M132.786,124.805l-1.355-7.252h-24.29l-1.388,7.484c-0.884,2.395-3.573,4.874-3.573,5.485v0.768
		c0,0.635,0.637,1.146,1.425,1.146h31.362c0.786,0,1.426-0.515,1.426-1.146v-0.768C136.393,129.893,133.572,127.271,132.786,124.805
		z"/>
	<path fill="#71C0FF" d="M174.562,36.172H64.012c-1.497,0-2.723,1.226-2.723,2.721v72.313c0,1.498,1.226,2.723,2.723,2.723h110.55
		c1.496,0,2.724-1.225,2.724-2.723V38.893C177.281,37.397,176.058,36.172,174.562,36.172z M172.646,108.127H65.927V41.971h106.719
		V108.127L172.646,108.127z"/>
	<g>
		<path fill="#71C0FF" d="M128.954,77.027v6.325H109.61v-6.325h-3.716v8.188c0,1.027,0.83,1.854,1.856,1.854h23.062
			c1.027,0,1.861-0.827,1.861-1.854v-8.188H128.954L128.954,77.027z"/>
		<path fill="#71C0FF" d="M118.945,61.469l-5.317,6.425c0,0-0.813,0.771,0.064,0.771h2.995v9.362c0,0-0.118,0.455,0.571,0.455h4.221
			c0.496,0,0.479-0.384,0.479-0.384V68.85h2.771c1.067,0,0.269-0.794,0.269-0.794s-4.531-6.01-5.163-6.646
			C119.377,60.954,118.945,61.469,118.945,61.469L118.945,61.469z"/>
	</g>
</g>
<g>
	
		<linearGradient id="SVGID_1_" gradientUnits="userSpaceOnUse" x1="1222.8254" y1="1053.0305" x2="1222.8254" y2="918.4943" gradientTransform="matrix(1 0 0 1 -1104 -882.043)">
		<stop  offset="0" style="stop-color:#4677C1"/>
		<stop  offset="1" style="stop-color:#528CE3"/>
	</linearGradient>
	<path fill="url(#SVGID_1_)" d="M132.326,125.328l-1.355-7.253H106.68l-1.386,7.481c-0.885,2.396-3.575,4.874-3.575,5.488v0.765
		c0,0.639,0.637,1.147,1.425,1.147h31.363c0.787,0,1.426-0.518,1.426-1.147v-0.765C135.931,130.415,133.112,127.792,132.326,125.328
		z"/>
	
		<linearGradient id="SVGID_2_" gradientUnits="userSpaceOnUse" x1="1222.8235" y1="1053.0325" x2="1222.8235" y2="918.493" gradientTransform="matrix(1 0 0 1 -1104 -882.043)">
		<stop  offset="0" style="stop-color:#4677C1"/>
		<stop  offset="1" style="stop-color:#528CE3"/>
	</linearGradient>
	<path fill="url(#SVGID_2_)" d="M174.099,36.696H63.55c-1.497,0-2.722,1.229-2.722,2.725v72.313c0,1.497,1.225,2.725,2.722,2.725
		H174.1c1.496,0,2.721-1.228,2.721-2.725V39.416C176.82,37.92,175.595,36.696,174.099,36.696z M172.183,108.651H65.467V42.495
		h106.717L172.183,108.651L172.183,108.651z"/>
	<g>
		
			<linearGradient id="SVGID_3_" gradientUnits="userSpaceOnUse" x1="1222.8235" y1="1053.0266" x2="1222.8235" y2="918.4969" gradientTransform="matrix(1 0 0 1 -1104 -882.043)">
			<stop  offset="0" style="stop-color:#4677C1"/>
			<stop  offset="1" style="stop-color:#528CE3"/>
		</linearGradient>
		<path fill="url(#SVGID_3_)" d="M128.496,77.55v6.327H109.15V77.55h-3.716v8.187c0,1.027,0.83,1.857,1.858,1.857h23.061
			c1.027,0,1.861-0.83,1.861-1.857V77.55H128.496z"/>
		
			<linearGradient id="SVGID_4_" gradientUnits="userSpaceOnUse" x1="1222.8235" y1="1053.0413" x2="1222.8235" y2="918.4899" gradientTransform="matrix(1 0 0 1 -1104 -882.043)">
			<stop  offset="0" style="stop-color:#4677C1"/>
			<stop  offset="1" style="stop-color:#528CE3"/>
		</linearGradient>
		<path fill="url(#SVGID_4_)" d="M118.484,61.992l-5.316,6.425c0,0-0.813,0.769,0.063,0.769h2.995v9.364
			c0,0-0.118,0.455,0.572,0.455h4.221c0.495,0,0.479-0.383,0.479-0.383v-9.248h2.771c1.068,0,0.27-0.794,0.27-0.794
			s-4.53-6.015-5.162-6.646C118.918,61.479,118.484,61.992,118.484,61.992L118.484,61.992z"/>
	</g>
</g>
</svg>
