<?xml version="1.0" encoding="utf-8"?>
<!-- Generator: Adobe Illustrator 16.0.0, SVG Export Plug-In . SVG Version: 6.00 Build 0)  -->
<!DOCTYPE svg PUBLIC "-//W3C//DTD SVG 1.1//EN" "http://www.w3.org/Graphics/SVG/1.1/DTD/svg11.dtd">
<svg version="1.1" id="Layer_1" xmlns="http://www.w3.org/2000/svg" xmlns:xlink="http://www.w3.org/1999/xlink" x="0px" y="0px"
	 width="240px" height="170px" viewBox="0 0 240 170" enable-background="new 0 0 240 170" xml:space="preserve">
<rect y="0.01" fill="#EDEDED" width="240" height="169.98"/>
<g id="Layer_1_1_">
</g>
<path fill="#71C0FF" d="M176.232,102.365c-0.643,0-1.264,0.085-1.862,0.23l-60.772-66.265c0.002-0.073,0.011-0.145,0.011-0.218
	c0-4.365-3.551-7.916-7.915-7.916c-4.214,0-7.661,3.312-7.896,7.468L66.005,62.342c-0.501-0.1-1.019-0.154-1.549-0.154
	c-4.365,0-7.917,3.551-7.917,7.916c0,3.846,2.759,7.058,6.401,7.768l16.113,49.782c-1.293,1.409-2.091,3.282-2.091,5.342
	c0,4.364,3.551,7.918,7.916,7.918c4.028,0,7.357-3.029,7.848-6.926l77.111-19.057c1.441,1.977,3.768,3.269,6.395,3.269
	c4.364,0,7.916-3.553,7.916-7.918S180.597,102.365,176.232,102.365z M176.232,107.365c1.606,0,2.916,1.309,2.916,2.916
	c0,1.608-1.31,2.918-2.916,2.918c-1.609,0-2.918-1.31-2.918-2.918C173.314,108.674,174.623,107.365,176.232,107.365z M108.11,37.744
	c-0.525,0.775-1.413,1.286-2.416,1.286c-1.046,0-1.958-0.558-2.474-1.388c-0.277-0.446-0.444-0.967-0.444-1.529
	c0-1.608,1.309-2.916,2.918-2.916c1.607,0,2.916,1.308,2.916,2.916C108.61,36.716,108.426,37.278,108.11,37.744z M61.54,70.104
	c0-1.608,1.309-2.916,2.917-2.916c0.914,0,1.72,0.43,2.254,1.089c0.407,0.501,0.662,1.132,0.662,1.827
	c0,0.866-0.387,1.637-0.988,2.171c-0.515,0.458-1.186,0.746-1.928,0.746C62.849,73.021,61.54,71.712,61.54,70.104z M67.974,77.186
	c2.603-1.298,4.398-3.981,4.398-7.082c0-1.917-0.686-3.676-1.824-5.047l28.83-24.19c1.446,1.917,3.736,3.163,6.316,3.163
	c2.304,0,4.374-0.996,5.822-2.572l58.562,63.855c-1.076,1.328-1.729,3.011-1.757,4.843L91.75,129.078
	c-1.366-2.385-3.932-3.999-6.871-3.999c-0.465,0-0.919,0.048-1.362,0.126L67.974,77.186z M84.97,135.904
	c-0.031,0.001-0.06,0.009-0.091,0.009c-1.608,0-2.916-1.31-2.916-2.918c0-1.607,1.308-2.916,2.916-2.916
	c0.076,0,0.147,0.017,0.222,0.022l0.186,0.574l0.964-0.238c0.915,0.493,1.545,1.448,1.545,2.558c0,1.155-0.681,2.147-1.657,2.62
	L84.97,135.904z"/>
<linearGradient id="SVGID_1_" gradientUnits="userSpaceOnUse" x1="-619.5718" y1="-484.6406" x2="163.1761" y2="139.1328">
	<stop  offset="0" style="stop-color:#4677C1"/>
	<stop  offset="1" style="stop-color:#528CE3"/>
</linearGradient>
<path fill="url(#SVGID_1_)" d="M175.889,102.568c-0.643,0-1.264,0.085-1.862,0.23l-60.772-66.265
	c0.002-0.073,0.011-0.145,0.011-0.218c0-4.365-3.551-7.916-7.915-7.916c-4.214,0-7.661,3.312-7.896,7.468L65.662,62.545
	c-0.501-0.1-1.019-0.154-1.549-0.154c-4.365,0-7.917,3.551-7.917,7.916c0,3.846,2.759,7.058,6.401,7.768l16.113,49.782
	c-1.293,1.409-2.091,3.282-2.091,5.342c0,4.364,3.551,7.918,7.916,7.918c4.028,0,7.357-3.029,7.848-6.926l77.111-19.057
	c1.441,1.977,3.768,3.269,6.395,3.269c4.364,0,7.916-3.553,7.916-7.918S180.253,102.568,175.889,102.568z M175.889,107.568
	c1.606,0,2.916,1.309,2.916,2.916c0,1.608-1.31,2.918-2.916,2.918c-1.609,0-2.918-1.31-2.918-2.918
	C172.971,108.877,174.279,107.568,175.889,107.568z M107.767,37.947c-0.525,0.775-1.413,1.286-2.416,1.286
	c-1.046,0-1.958-0.558-2.474-1.388c-0.277-0.446-0.444-0.967-0.444-1.529c0-1.608,1.309-2.916,2.918-2.916
	c1.607,0,2.916,1.308,2.916,2.916C108.267,36.919,108.082,37.481,107.767,37.947z M61.196,70.307c0-1.608,1.309-2.916,2.917-2.916
	c0.914,0,1.72,0.43,2.254,1.089c0.407,0.501,0.662,1.132,0.662,1.827c0,0.866-0.387,1.637-0.988,2.171
	c-0.515,0.458-1.186,0.746-1.928,0.746C62.505,73.224,61.196,71.915,61.196,70.307z M67.63,77.389
	c2.603-1.298,4.398-3.981,4.398-7.082c0-1.917-0.686-3.676-1.824-5.047l28.83-24.19c1.446,1.917,3.736,3.163,6.316,3.163
	c2.304,0,4.374-0.996,5.822-2.572l58.562,63.855c-1.076,1.328-1.729,3.011-1.757,4.843l-76.571,18.923
	c-1.366-2.385-3.932-3.999-6.871-3.999c-0.465,0-0.919,0.048-1.362,0.126L67.63,77.389z M84.626,136.107
	c-0.031,0.001-0.06,0.009-0.091,0.009c-1.608,0-2.916-1.31-2.916-2.918c0-1.607,1.308-2.916,2.916-2.916
	c0.076,0,0.147,0.017,0.222,0.022l0.186,0.574l0.964-0.238c0.915,0.493,1.545,1.448,1.545,2.558c0,1.155-0.681,2.147-1.657,2.62
	L84.626,136.107z"/>
</svg>
