<?xml version="1.0" encoding="utf-8"?>
<!-- Generator: Adobe Illustrator 16.0.0, SVG Export Plug-In . SVG Version: 6.00 Build 0)  -->
<!DOCTYPE svg PUBLIC "-//W3C//DTD SVG 1.1//EN" "http://www.w3.org/Graphics/SVG/1.1/DTD/svg11.dtd">
<svg version="1.1" id="Layer_1" xmlns="http://www.w3.org/2000/svg" xmlns:xlink="http://www.w3.org/1999/xlink" x="0px" y="0px"
	 width="240px" height="170px" viewBox="0 0 240 170" enable-background="new 0 0 240 170" xml:space="preserve">
<rect fill="#EDEDED" width="240" height="169.979"/>
<g id="Layer_1_1_">
</g>
<g>
	<g>
		<g>
			<path fill="#71C0FF" d="M120.212,43.104c-12.975,0-23.489,10.519-23.489,23.487c0,22.432,23.489,51.679,23.489,51.679
				s23.487-29.247,23.487-51.679C143.699,53.623,133.182,43.104,120.212,43.104L120.212,43.104z M120.212,79.56
				c-7.005,0-12.688-5.684-12.688-12.688c0-7.009,5.684-12.685,12.688-12.685s12.686,5.676,12.686,12.685
				C132.893,73.876,127.217,79.56,120.212,79.56L120.212,79.56z"/>
		</g>
	</g>
	<g>
		<g>
			
				<linearGradient id="SVGID_1_" gradientUnits="userSpaceOnUse" x1="618.0664" y1="597.5391" x2="729.3986" y2="421.8728" gradientTransform="matrix(1 0 0 1 -552 -441)">
				<stop  offset="0" style="stop-color:#4677C1"/>
				<stop  offset="1" style="stop-color:#528CE3"/>
			</linearGradient>
			<path fill="url(#SVGID_1_)" d="M119.789,43.729c-12.974,0-23.488,10.519-23.488,23.487c0,22.431,23.488,51.679,23.488,51.679
				s23.488-29.248,23.488-51.679C143.277,54.248,132.76,43.729,119.789,43.729L119.789,43.729z M119.789,80.185
				c-7.005,0-12.688-5.684-12.688-12.688c0-7.009,5.683-12.685,12.688-12.685c7.005,0,12.685,5.676,12.685,12.685
				C132.471,74.501,126.795,80.185,119.789,80.185L119.789,80.185z"/>
		</g>
	</g>
</g>
</svg>
